<svg width="44" height="44" viewBox="0 0 44 44" fill="none" xmlns="http://www.w3.org/2000/svg">
<path d="M3.99479 32.8427C3.99479 33.8511 4.81246 34.6669 5.81896 34.6669H20.504C20.9878 34.6669 21.4517 34.4747 21.7938 34.1326C22.1359 33.7905 22.3281 33.3265 22.3281 32.8427C22.3281 32.3589 22.1359 31.8949 21.7938 31.5528C21.4517 31.2107 20.9878 31.0186 20.504 31.0186H5.81896C4.81062 31.0186 3.99479 31.8344 3.99479 32.8427Z" fill="white"/>
<path d="M3.99739 21.8334C3.99739 22.8418 4.81506 23.6576 5.82156 23.6576H38.8399C39.3237 23.6576 39.7877 23.4654 40.1298 23.1233C40.4719 22.7812 40.6641 22.3172 40.6641 21.8334C40.6641 21.3496 40.4719 20.8857 40.1298 20.5436C39.7877 20.2015 39.3237 20.0093 38.8399 20.0093H5.82156C4.81323 20.0093 3.99739 20.8269 3.99739 21.8334Z" fill="white"/>
<path d="M5.82156 12.6483C5.33776 12.6483 4.87378 12.4561 4.53168 12.114C4.18958 11.772 3.99739 11.308 3.99739 10.8242C3.99739 10.3404 4.18958 9.87638 4.53168 9.53429C4.87378 9.19219 5.33776 9 5.82156 9H27.8399C28.0794 9 28.3167 9.04718 28.538 9.13886C28.7593 9.23053 28.9604 9.3649 29.1298 9.53429C29.2992 9.70368 29.4335 9.90477 29.5252 10.1261C29.6169 10.3474 29.6641 10.5846 29.6641 10.8242C29.6641 11.0637 29.6169 11.3009 29.5252 11.5222C29.4335 11.7436 29.2992 11.9447 29.1298 12.114C28.9604 12.2834 28.7593 12.4178 28.538 12.5095C28.3167 12.6012 28.0794 12.6483 27.8399 12.6483H5.82156Z" fill="white"/>
</svg>
