<svg width="32" height="31" viewBox="0 0 32 31" fill="none" xmlns="http://www.w3.org/2000/svg">
<g clip-path="url(#clip0_169_2468)">
<path d="M28.397 9.7128L26.7699 7.08563C26.672 6.92724 26.4954 6.83057 26.3048 6.83057H24.7455C24.4461 6.83057 24.2032 7.06593 24.2032 7.35594C24.2032 7.64595 24.4461 7.88131 24.7455 7.88131H25.9978L26.974 9.45758H5.0253L6.00157 7.88131H24.7455C25.0449 7.88131 24.7455 7.64595 24.7455 7.35594C24.7455 7.06593 25.0449 6.83057 24.7455 6.83057H5.69458C5.5039 6.83057 5.32737 6.92724 5.22949 7.08563L3.60237 9.7128C3.50179 9.87535 3.49941 10.0775 3.59554 10.2422C3.69167 10.4069 3.87186 10.5088 4.06747 10.5088H27.9319C28.1275 10.5088 28.3075 10.4069 28.4038 10.2422C28.5001 10.0775 28.4976 9.87504 28.397 9.7128Z" fill="url(#paint0_linear_169_2468)"/>
<path d="M28.474 9.95644C28.4591 9.67721 28.2211 9.45801 27.9322 9.45801H4.06778C3.77891 9.45801 3.54088 9.67705 3.52594 9.95644L2.44114 30.4479C2.43352 30.5917 2.48722 30.7324 2.58956 30.8368C2.69204 30.941 2.8341 31.0002 2.98283 31.0002H29.0167C29.1653 31.0002 29.3075 30.9411 29.4104 30.8368C29.5126 30.7324 29.5663 30.5919 29.5588 30.4479L28.474 9.95644ZM3.55359 29.9493L4.58277 10.5088H27.4166L28.4458 29.9493H3.55359Z" fill="url(#paint1_linear_169_2468)"/>
<path d="M20.0675 11.5591C19.1702 11.5591 18.4404 12.2661 18.4404 13.1354C18.4404 14.0046 19.1702 14.7116 20.0675 14.7116C20.9648 14.7116 21.6947 14.0046 21.6947 13.1354C21.6947 12.2661 20.9648 11.5591 20.0675 11.5591ZM20.0675 13.6609C19.7683 13.6609 19.5252 13.4252 19.5252 13.1355C19.5252 12.8458 19.7685 12.6101 20.0675 12.6101C20.3666 12.6101 20.6099 12.8458 20.6099 13.1355C20.6099 13.4252 20.3666 13.6609 20.0675 13.6609Z" fill="url(#paint2_linear_169_2468)"/>
<path d="M11.9318 11.5591C11.0345 11.5591 10.3047 12.2661 10.3047 13.1354C10.3047 14.0046 11.0345 14.7116 11.9318 14.7116C12.8291 14.7116 13.5589 14.0046 13.5589 13.1354C13.5589 12.2661 12.8291 11.5591 11.9318 11.5591ZM11.9318 13.6609C11.6328 13.6609 11.3895 13.4252 11.3895 13.1355C11.3895 12.8458 11.6328 12.6101 11.9318 12.6101C12.2308 12.6101 12.4741 12.8458 12.4741 13.1355C12.4741 13.4252 12.2308 13.6609 11.9318 13.6609Z" fill="url(#paint3_linear_169_2468)"/>
<path d="M20.0675 13.1353H20.0258C19.7264 13.1353 19.4834 13.3706 19.4834 13.6606C19.4834 13.7324 19.4981 13.8009 19.5252 13.8632V16.5504C19.5252 18.4335 17.9437 19.9657 15.9998 19.9657C14.0558 19.9657 12.4743 18.4336 12.4743 16.5504V13.6608C12.4743 13.3708 12.2313 13.1354 11.932 13.1354C11.6326 13.1354 11.3896 13.3708 11.3896 13.6608V16.5506C11.3896 19.0132 13.4577 21.0166 15.9998 21.0166C18.5418 21.0166 20.6099 19.0132 20.6099 16.5506V13.6608C20.6099 13.3708 20.3669 13.1353 20.0675 13.1353Z" fill="url(#paint4_linear_169_2468)"/>
<path d="M20.48 7.75007H19.84C19.5407 7.75007 19.4834 7.86482 19.4834 7.57481C19.4834 7.50308 19.4981 7.43458 19.5252 7.37224V4.68504C19.5252 2.80198 17.9437 1.26974 15.9998 1.26974C14.0558 1.26974 12.4743 2.80183 12.4743 4.68504V7.57466C12.4743 7.86466 12.4594 7.75007 12.16 7.75007C11.8607 7.75007 11.3896 7.86466 11.3896 7.57466V4.68488C11.3896 2.22227 13.4577 0.218839 15.9998 0.218839C18.5418 0.218839 20.6099 2.22227 20.6099 4.68488V7.57466C20.6099 7.86466 20.7794 7.75007 20.48 7.75007Z" fill="url(#paint5_linear_169_2468)"/>
</g>
<defs>
<linearGradient id="paint0_linear_169_2468" x1="15.9997" y1="10.5088" x2="16.1824" y2="6.69183" gradientUnits="userSpaceOnUse">
<stop stop-color="#FFB481" stop-opacity="0.99"/>
<stop offset="0.978888" stop-color="#B86B36" stop-opacity="0.76"/>
</linearGradient>
<linearGradient id="paint1_linear_169_2468" x1="16" y1="31.0002" x2="21.4175" y2="9.99127" gradientUnits="userSpaceOnUse">
<stop stop-color="#FFB481" stop-opacity="0.99"/>
<stop offset="0.978888" stop-color="#B86B36" stop-opacity="0.76"/>
</linearGradient>
<linearGradient id="paint2_linear_169_2468" x1="20.0675" y1="14.7116" x2="21.0059" y2="11.7278" gradientUnits="userSpaceOnUse">
<stop stop-color="#FFB481" stop-opacity="0.99"/>
<stop offset="0.978888" stop-color="#B86B36" stop-opacity="0.76"/>
</linearGradient>
<linearGradient id="paint3_linear_169_2468" x1="11.9318" y1="14.7116" x2="12.8702" y2="11.7278" gradientUnits="userSpaceOnUse">
<stop stop-color="#FFB481" stop-opacity="0.99"/>
<stop offset="0.978888" stop-color="#B86B36" stop-opacity="0.76"/>
</linearGradient>
<linearGradient id="paint4_linear_169_2468" x1="15.9998" y1="21.0166" x2="18.1118" y2="13.4053" gradientUnits="userSpaceOnUse">
<stop stop-color="#FFB481" stop-opacity="0.99"/>
<stop offset="0.978888" stop-color="#B86B36" stop-opacity="0.76"/>
</linearGradient>
<linearGradient id="paint5_linear_169_2468" x1="16.0237" y1="0.218838" x2="17.9663" y2="7.56135" gradientUnits="userSpaceOnUse">
<stop stop-color="#FFB481" stop-opacity="0.99"/>
<stop offset="0.978888" stop-color="#B86B36" stop-opacity="0.76"/>
</linearGradient>
<clipPath id="clip0_169_2468">
<rect width="32" height="31" fill="white"/>
</clipPath>
</defs>
</svg>
