<svg width="32" height="31" viewBox="0 0 32 31" fill="none" xmlns="http://www.w3.org/2000/svg">
<g clip-path="url(#clip0_462_5736)">
<path d="M28.3953 9.7128L26.7682 7.08563C26.6703 6.92724 26.4937 6.83057 26.3031 6.83057H24.7438C24.4444 6.83057 24.2015 7.06593 24.2015 7.35594C24.2015 7.64595 24.4444 7.88131 24.7438 7.88131H25.9961L26.9723 9.45758H5.02359L5.99986 7.88131H24.7438C25.0432 7.88131 24.7438 7.64595 24.7438 7.35594C24.7438 7.06593 25.0432 6.83057 24.7438 6.83057H5.69287C5.5022 6.83057 5.32566 6.92724 5.22778 7.08563L3.60066 9.7128C3.50008 9.87535 3.4977 10.0775 3.59383 10.2422C3.68996 10.4069 3.87015 10.5088 4.06576 10.5088H27.9302C28.1258 10.5088 28.3058 10.4069 28.4021 10.2422C28.4984 10.0775 28.4959 9.87504 28.3953 9.7128Z" fill="white"/>
<path d="M28.475 9.95644C28.4601 9.67721 28.2221 9.45801 27.9332 9.45801H4.06876C3.77988 9.45801 3.54185 9.67705 3.52692 9.95644L2.44212 30.4479C2.43449 30.5917 2.4882 30.7324 2.59053 30.8368C2.69302 30.941 2.83508 31.0002 2.9838 31.0002H29.0177C29.1662 31.0002 29.3084 30.9411 29.4114 30.8368C29.5136 30.7324 29.5673 30.5919 29.5598 30.4479L28.475 9.95644ZM3.55457 29.9493L4.58375 10.5088H27.4176L28.4467 29.9493H3.55457Z" fill="white"/>
<path d="M20.0685 11.5591C19.1712 11.5591 18.4414 12.2661 18.4414 13.1354C18.4414 14.0046 19.1712 14.7116 20.0685 14.7116C20.9658 14.7116 21.6956 14.0046 21.6956 13.1354C21.6956 12.2661 20.9658 11.5591 20.0685 11.5591ZM20.0685 13.6609C19.7693 13.6609 19.5262 13.4252 19.5262 13.1355C19.5262 12.8458 19.7695 12.6101 20.0685 12.6101C20.3676 12.6101 20.6108 12.8458 20.6108 13.1355C20.6108 13.4252 20.3676 13.6609 20.0685 13.6609Z" fill="white"/>
<path d="M11.9318 11.5591C11.0345 11.5591 10.3047 12.2661 10.3047 13.1354C10.3047 14.0046 11.0345 14.7116 11.9318 14.7116C12.8291 14.7116 13.5589 14.0046 13.5589 13.1354C13.5589 12.2661 12.8291 11.5591 11.9318 11.5591ZM11.9318 13.6609C11.6328 13.6609 11.3895 13.4252 11.3895 13.1355C11.3895 12.8458 11.6328 12.6101 11.9318 12.6101C12.2308 12.6101 12.4741 12.8458 12.4741 13.1355C12.4741 13.4252 12.2308 13.6609 11.9318 13.6609Z" fill="white"/>
<path d="M20.0685 13.1353H20.0267C19.7274 13.1353 19.4844 13.3707 19.4844 13.6607C19.4844 13.7324 19.499 13.8009 19.5262 13.8633V16.5505C19.5262 18.4335 17.9447 19.9658 16.0007 19.9658C14.0568 19.9658 12.4753 18.4337 12.4753 16.5505V13.6608C12.4753 13.3708 12.2323 13.1355 11.9329 13.1355C11.6336 13.1355 11.3906 13.3708 11.3906 13.6608V16.5506C11.3906 19.0132 13.4587 21.0167 16.0007 21.0167C18.5428 21.0167 20.6108 19.0132 20.6108 16.5506V13.6608C20.6108 13.3708 20.3679 13.1353 20.0685 13.1353Z" fill="white"/>
<path d="M20.481 7.75007H19.841C19.5417 7.75007 19.4844 7.86482 19.4844 7.57481C19.4844 7.50308 19.499 7.43458 19.5262 7.37224V4.68504C19.5262 2.80198 17.9447 1.26974 16.0007 1.26974C14.0568 1.26974 12.4753 2.80183 12.4753 4.68504V7.57466C12.4753 7.86466 12.4604 7.75007 12.161 7.75007C11.8617 7.75007 11.3906 7.86466 11.3906 7.57466V4.68488C11.3906 2.22227 13.4587 0.218839 16.0007 0.218839C18.5428 0.218839 20.6108 2.22227 20.6108 4.68488V7.57466C20.6108 7.86466 20.7804 7.75007 20.481 7.75007Z" fill="white"/>
</g>
<defs>
<clipPath id="clip0_462_5736">
<rect width="32" height="31" fill="white"/>
</clipPath>
</defs>
</svg>
