<svg width="398" height="800" viewBox="0 0 398 800" fill="none" xmlns="http://www.w3.org/2000/svg">
<g style="mix-blend-mode:color-dodge" clip-path="url(#clip0_3200_3638)">
<path d="M380.104 801C362.108 776.499 382.203 748.644 375.605 720.381C368.706 691.306 354.109 691.713 344.211 652.471C337.913 627.665 382.103 556.196 384.103 530.679C386.403 499.977 365.207 484.321 373.705 454.33C378.804 436.438 383.903 418.647 389.002 400.754" stroke="url(#paint0_linear_3200_3638)" stroke-miterlimit="10"/>
<path d="M369.806 801C357.808 784.734 362.707 766.841 365.307 748.44C366.607 739.291 367.306 730.039 365.107 720.687C358.408 691.713 343.811 691.611 334.813 652.877C333.014 645.151 336.113 633.257 341.012 619.735C351.51 591.067 369.606 555.281 373.205 535.559C373.505 533.932 373.705 532.407 373.805 530.984C375.405 505.873 361.708 490.624 361.308 469.478C361.208 464.802 361.808 459.82 363.307 454.432C368.306 436.539 373.505 418.647 378.604 400.754" stroke="url(#paint1_linear_3200_3638)" stroke-miterlimit="10"/>
<path d="M359.508 801C347.61 784.836 352.409 767.045 354.909 748.644C356.209 739.596 356.908 730.344 354.809 720.991C348.31 692.221 333.613 691.509 325.615 653.284C324.015 645.558 327.215 633.663 332.213 620.244C343.011 591.473 360.008 555.891 363.207 535.864C363.507 534.237 363.707 532.712 363.707 531.289C364.907 506.28 351.51 490.827 351.11 469.681C351.01 465.005 351.509 460.023 353.009 454.635C357.908 436.641 363.107 418.748 368.306 400.856" stroke="url(#paint2_linear_3200_3638)" stroke-miterlimit="10"/>
<path d="M349.21 801C337.313 784.836 342.012 767.146 344.511 748.847C345.811 739.799 346.411 730.649 344.411 721.296C338.013 692.729 323.416 691.408 316.217 653.691C314.717 645.863 318.217 634.07 323.316 620.752C334.413 591.778 350.31 556.501 353.109 536.169C353.309 534.542 353.509 533.017 353.609 531.594C354.509 506.788 341.412 491.132 340.912 469.783C340.812 465.107 341.312 460.125 342.812 454.737C347.611 436.743 352.909 418.85 358.008 400.754" stroke="url(#paint3_linear_3200_3638)" stroke-miterlimit="10"/>
<path d="M338.812 801C327.015 784.937 331.514 767.248 334.113 749.05C335.313 740.104 336.013 730.853 334.013 721.601C327.815 693.238 313.218 691.306 306.919 654.098C305.619 646.168 309.219 634.477 314.417 621.26C325.815 592.185 340.612 557.111 343.012 536.474C343.211 534.847 343.411 533.322 343.411 531.899C343.911 507.195 331.114 491.336 330.614 469.986C330.514 465.208 331.014 460.227 332.414 454.839C337.113 436.743 342.412 418.85 347.611 400.754" stroke="url(#paint4_linear_3200_3638)" stroke-miterlimit="10"/>
<path d="M328.514 801C316.817 785.039 321.216 767.35 323.715 749.254C324.915 740.307 325.515 731.158 323.615 721.906C317.617 693.746 303.12 691.204 297.621 654.504C296.421 646.473 300.32 634.883 305.619 621.769C317.317 592.592 331.014 557.721 333.013 536.779C333.213 535.152 333.313 533.627 333.313 532.204C333.513 507.601 321.016 491.539 320.416 470.19C320.316 465.411 320.816 460.43 322.216 455.042C326.815 436.844 332.214 418.952 337.413 400.856" stroke="url(#paint5_linear_3200_3638)" stroke-miterlimit="10"/>
<path d="M318.217 801C306.519 785.141 310.818 767.553 313.318 749.457C314.517 740.511 315.117 731.463 313.218 722.211C307.319 694.254 292.922 691.001 288.323 654.911C287.323 646.879 291.422 635.29 296.721 622.277C308.719 592.998 321.316 558.331 322.916 537.084C323.016 535.457 323.116 533.932 323.116 532.509C323.016 508.008 310.718 491.742 310.118 470.393C310.018 465.615 310.518 460.532 311.818 455.144C316.317 436.946 321.816 419.053 327.015 400.754" stroke="url(#paint6_linear_3200_3638)" stroke-miterlimit="10"/>
<path d="M307.919 801C296.321 785.141 300.42 767.655 302.92 749.66C304.119 740.816 304.719 731.666 302.82 722.516C297.221 694.762 282.824 690.899 279.025 655.317C278.125 647.184 282.424 635.697 287.923 622.785C300.22 593.405 311.818 559.043 313.018 537.287C313.118 535.66 313.218 534.135 313.218 532.712C312.718 508.313 300.72 491.844 300.12 470.393C300.02 465.513 300.42 460.532 301.82 455.144C306.319 436.844 311.718 418.952 316.917 400.653" stroke="url(#paint7_linear_3200_3638)" stroke-miterlimit="10"/>
<path d="M297.621 801C286.023 785.242 290.122 767.756 292.522 749.864C293.722 741.019 294.222 731.971 292.422 722.821C286.923 695.271 272.726 690.696 269.727 655.724C269.027 647.489 273.526 636.103 279.025 623.294C291.622 593.812 302.12 559.653 302.92 537.592C303.02 535.965 303.02 534.441 303.02 533.017C302.22 508.822 290.522 492.047 289.823 470.596C289.623 465.717 290.122 460.735 291.422 455.347C295.821 437.048 301.32 419.053 306.519 400.754" stroke="url(#paint8_linear_3200_3638)" stroke-miterlimit="10"/>
<path d="M287.223 801C275.725 785.344 279.625 767.96 282.024 750.067C283.224 741.324 283.724 732.276 281.924 723.126C276.625 695.779 262.528 690.493 260.329 656.232C259.829 647.896 264.528 636.611 270.027 623.903C283.024 594.218 292.322 560.364 292.722 537.999C292.722 536.372 292.822 534.847 292.722 533.424C291.622 509.33 280.125 492.352 279.425 470.901C279.225 466.021 279.725 460.938 280.924 455.55C285.224 437.149 290.722 419.155 296.021 400.856" stroke="url(#paint9_linear_3200_3638)" stroke-miterlimit="10"/>
<path d="M276.925 801C265.527 785.446 269.327 768.061 271.626 750.27C272.726 741.527 273.226 732.581 271.526 723.431C266.427 696.287 252.53 690.391 251.03 656.639C250.63 648.201 255.629 637.018 261.228 624.412C274.525 594.625 282.824 561.076 282.724 538.304C282.724 536.677 282.724 535.152 282.624 533.729C281.224 509.736 270.026 492.657 269.227 471.105C269.027 466.225 269.526 461.142 270.726 455.754C274.925 437.353 280.524 419.358 285.823 400.856" stroke="url(#paint10_linear_3200_3638)" stroke-miterlimit="10"/>
<path d="M266.627 801C255.23 785.547 258.929 768.163 261.228 750.473C262.328 741.73 262.828 732.784 261.128 723.736C256.229 696.796 242.532 690.188 241.732 657.046C241.532 648.506 246.631 637.425 252.33 624.92C265.927 595.031 273.226 561.686 272.626 538.609C272.626 536.982 272.626 535.457 272.526 534.034C270.826 510.143 259.829 492.86 259.029 471.206C258.829 466.225 259.229 461.142 260.429 455.855C264.528 437.353 270.127 419.358 275.425 400.856" stroke="url(#paint11_linear_3200_3638)" stroke-miterlimit="10"/>
<path d="M256.329 801C245.032 785.547 248.531 768.265 250.83 750.677C251.93 742.036 252.43 733.089 250.83 724.041C246.031 697.202 232.634 689.883 232.534 657.452C232.534 648.811 237.833 637.831 243.632 625.428C257.529 595.438 263.728 562.296 262.728 538.914C262.628 537.287 262.628 535.762 262.528 534.339C260.528 510.651 249.731 493.064 248.931 471.41C248.731 466.428 249.131 461.345 250.33 455.957C254.33 437.353 260.028 419.358 265.327 400.856" stroke="url(#paint12_linear_3200_3638)" stroke-miterlimit="10"/>
<path d="M246.032 801C234.734 785.649 238.233 768.468 240.433 750.88C241.532 742.239 241.932 733.394 240.433 724.346C235.834 697.711 222.736 689.679 223.236 657.859C223.336 649.116 228.935 638.136 234.734 625.937C249.031 595.845 254.13 563.008 252.63 539.219C252.53 537.592 252.43 536.067 252.33 534.644C249.931 511.058 239.533 493.267 238.633 471.613C238.433 466.632 238.833 461.548 239.933 456.16C243.832 437.556 249.631 419.562 254.93 400.856" stroke="url(#paint13_linear_3200_3638)" stroke-miterlimit="10"/>
<path d="M235.634 801C224.436 785.751 227.735 768.57 229.935 751.084C231.035 742.544 231.435 733.598 229.935 724.651C225.536 698.219 212.639 689.476 213.838 658.266C214.138 649.421 219.937 638.543 225.836 626.445C240.433 596.251 244.532 563.618 242.532 539.524C242.432 537.897 242.332 536.372 242.132 534.949C239.433 511.465 229.235 493.47 228.335 471.816C228.135 466.835 228.535 461.65 229.635 456.262C233.434 437.556 239.233 419.562 244.632 400.856" stroke="url(#paint14_linear_3200_3638)" stroke-miterlimit="10"/>
<path d="M225.336 801C214.238 785.852 217.338 768.671 219.537 751.287C220.637 742.747 220.937 733.903 219.537 724.956C215.238 698.727 202.741 689.273 204.54 658.672C205.04 649.726 210.939 638.95 216.938 626.953C231.835 596.556 234.934 564.329 232.435 539.829C232.235 538.202 232.135 536.677 232.035 535.254C229.035 511.871 219.137 493.674 218.138 471.918C217.938 466.835 218.338 461.752 219.337 456.364C223.037 437.658 228.935 419.562 234.234 400.856" stroke="url(#paint15_linear_3200_3638)" stroke-miterlimit="10"/>
<path d="M215.038 801C203.94 785.954 207.039 768.874 209.139 751.49C210.139 742.95 210.539 734.208 209.139 725.261C205.04 699.236 192.843 689.069 195.242 659.079C195.942 650.031 202.041 639.356 208.039 627.36C223.336 596.861 225.236 564.838 222.336 539.93C222.136 538.304 222.036 536.779 221.836 535.356C218.537 512.075 208.839 493.775 207.839 471.918C207.639 466.835 207.939 461.65 209.039 456.364C212.638 437.556 218.537 419.46 223.936 400.653" stroke="url(#paint16_linear_3200_3638)" stroke-miterlimit="10"/>
<path d="M204.74 801C193.742 785.954 196.642 768.976 198.741 751.694C199.741 743.256 200.141 734.512 198.741 725.566C194.842 699.744 183.044 688.866 185.844 659.485C186.744 650.336 193.042 639.763 199.141 627.868C214.738 597.268 215.638 565.448 212.238 540.235C212.038 538.609 211.838 537.084 211.638 535.559C208.039 512.481 198.541 493.877 197.541 472.02C197.341 466.936 197.641 461.752 198.641 456.364C202.14 437.556 208.139 419.46 213.538 400.551" stroke="url(#paint17_linear_3200_3638)" stroke-miterlimit="10"/>
<path d="M194.443 801C183.445 786.056 186.244 769.078 188.344 751.897C189.344 743.459 189.644 734.716 188.344 725.871C184.545 700.252 173.147 688.663 176.546 659.892C177.646 650.641 184.145 640.17 190.244 628.377C206.14 597.675 206.14 566.159 202.141 540.54C201.941 538.914 201.741 537.389 201.441 535.864C197.542 512.888 188.344 494.08 187.244 472.223C186.944 467.14 187.344 461.955 188.344 456.567C191.743 437.658 197.742 419.562 203.241 400.653" stroke="url(#paint18_linear_3200_3638)" stroke-miterlimit="10"/>
<path d="M184.044 801C173.147 786.157 175.846 769.179 177.846 752.1C178.845 743.764 179.145 735.021 177.846 726.176C174.246 700.761 163.249 688.358 167.148 660.401C168.447 650.946 175.146 640.678 181.345 628.987C197.641 598.183 196.542 566.871 192.043 540.947C191.743 539.32 191.543 537.795 191.343 536.27C187.144 513.396 178.145 494.385 177.046 472.426C176.746 467.241 177.146 462.057 178.046 456.668C181.445 437.658 187.444 419.562 192.842 400.551" stroke="url(#paint19_linear_3200_3638)" stroke-miterlimit="10"/>
<path d="M173.747 801C162.949 786.259 165.448 769.383 167.448 752.303C168.448 743.967 168.648 735.326 167.448 726.481C164.048 701.269 153.451 688.154 157.85 660.807C159.349 651.251 166.248 641.084 172.447 629.495C189.043 598.59 186.944 567.481 181.945 541.252C181.645 539.625 181.445 538.1 181.145 536.575C176.746 513.803 167.848 494.589 166.748 472.63C166.448 467.445 166.748 462.26 167.748 456.872C171.047 437.861 177.146 419.765 182.545 400.653" stroke="url(#paint20_linear_3200_3638)" stroke-miterlimit="10"/>
<path d="M163.449 801C152.651 786.361 155.05 769.484 157.05 752.507C158.05 744.272 158.25 735.529 157.05 726.786C153.751 701.777 143.653 687.951 148.552 661.214C150.351 651.556 157.35 641.491 163.549 630.003C180.545 598.996 177.346 568.192 171.847 541.557C171.547 539.93 171.247 538.405 170.947 536.88C166.248 514.311 157.65 494.792 156.45 472.833C156.15 467.648 156.45 462.362 157.35 457.075C160.549 437.963 166.648 419.867 172.147 400.754" stroke="url(#paint21_linear_3200_3638)" stroke-miterlimit="10"/>
<path d="M153.151 801C142.453 786.361 144.752 769.586 146.652 752.71C147.552 744.476 147.752 735.834 146.752 727.091C143.653 702.285 133.955 687.748 139.354 661.62C141.353 651.861 148.452 641.898 154.85 630.512C172.147 599.403 168.048 568.802 161.949 541.862C161.549 540.235 161.349 538.71 160.949 537.185C155.95 514.718 147.552 495.097 146.352 472.934C146.052 467.648 146.352 462.463 147.152 457.075C150.251 437.963 156.45 419.765 161.949 400.551" stroke="url(#paint22_linear_3200_3638)" stroke-miterlimit="10"/>
<path d="M142.753 801C132.055 786.462 134.255 769.79 136.154 752.914C137.054 744.679 137.254 736.139 136.254 727.396C133.355 702.794 124.157 687.544 129.956 662.027C132.155 652.166 139.454 642.304 145.852 631.02C163.549 599.809 158.35 569.412 151.751 542.167C151.351 540.642 151.051 539.015 150.651 537.49C145.352 515.125 137.254 495.3 135.954 473.138C135.654 467.852 135.954 462.565 136.754 457.279C139.754 438.064 145.952 419.867 151.451 400.653" stroke="url(#paint23_linear_3200_3638)" stroke-miterlimit="10"/>
<path d="M132.455 801C121.857 786.564 123.957 769.891 125.757 753.117C126.656 744.984 126.856 736.444 125.856 727.701C123.057 703.302 114.459 687.341 120.657 662.434C123.157 652.471 130.555 642.711 137.054 631.528C155.15 600.216 148.952 570.022 141.753 542.472C141.353 540.947 141.053 539.32 140.653 537.795C135.055 515.531 127.156 495.504 125.856 473.341C125.557 468.055 125.756 462.768 126.556 457.38C129.456 438.064 135.754 419.968 141.253 400.653" stroke="url(#paint24_linear_3200_3638)" stroke-miterlimit="10"/>
<path d="M122.157 801C111.66 786.666 113.559 769.993 115.359 753.32C116.259 745.187 116.359 736.648 115.459 728.006C112.859 703.709 104.661 687.138 111.36 662.84C114.059 652.776 121.657 643.118 128.156 632.037C146.552 600.623 139.354 570.734 131.755 542.675C131.356 541.15 130.956 539.524 130.556 537.999C124.657 515.836 116.958 495.605 115.659 473.443C115.359 468.156 115.559 462.87 116.359 457.482C119.158 438.166 125.457 419.968 131.056 400.551" stroke="url(#paint25_linear_3200_3638)" stroke-miterlimit="10"/>
<path d="M111.86 801C101.362 786.767 103.162 770.094 104.961 753.523C105.861 745.492 105.961 736.953 105.061 728.311C102.662 704.217 94.9632 687.036 102.062 663.247C105.061 653.183 112.76 643.524 119.358 632.545C138.154 601.029 129.956 571.344 121.758 542.98C121.258 541.455 120.858 539.829 120.458 538.304C114.359 516.243 106.861 495.809 105.461 473.545C105.161 468.156 105.361 462.87 106.061 457.584C108.76 438.166 115.159 419.968 120.758 400.551" stroke="url(#paint26_linear_3200_3638)" stroke-miterlimit="10"/>
<path d="M101.562 801C91.1637 786.767 92.8634 770.298 94.563 753.727C95.4628 745.696 95.4628 737.257 94.663 728.616C92.3634 704.725 85.265 686.833 92.7635 663.654C96.0628 653.487 103.861 643.931 110.46 633.053C129.556 601.436 120.458 571.954 111.659 543.285C111.16 541.76 110.76 540.134 110.26 538.609C103.861 516.751 96.5626 496.012 95.1629 473.748C94.8629 468.36 95.063 463.073 95.7628 457.685C98.3623 438.268 104.861 420.07 110.36 400.551" stroke="url(#paint27_linear_3200_3638)" stroke-miterlimit="10"/>
<path d="M91.1638 801C80.7659 786.869 82.3656 770.399 84.0653 753.93C84.8651 745.899 84.9651 737.562 84.1652 728.921C82.0657 705.234 75.5671 686.629 83.3655 664.06C86.9647 653.792 94.8631 644.439 101.462 633.561C120.958 601.843 110.76 572.564 101.462 543.59C100.962 542.065 100.462 540.439 100.062 538.914C93.3634 517.158 86.3649 496.317 84.8652 473.951C84.4653 468.563 84.6652 463.175 85.3651 457.889C87.8645 438.369 94.3632 420.172 99.962 400.551" stroke="url(#paint28_linear_3200_3638)" stroke-miterlimit="10"/>
<path d="M80.866 801C70.5682 786.971 71.9678 770.501 73.6675 754.133C74.4673 746.204 74.4674 737.766 73.7675 729.226C71.7679 705.742 65.8691 686.528 74.0674 664.569C77.8666 654.199 85.9649 644.948 92.6635 634.172C112.559 602.453 101.362 573.276 91.4638 543.997C90.9639 542.472 90.464 540.845 89.9641 539.32C82.9656 517.666 76.1669 496.622 74.6672 474.256C74.2673 468.868 74.4673 463.48 75.1671 458.193C77.4667 438.573 84.1654 420.375 89.7642 400.754" stroke="url(#paint29_linear_3200_3638)" stroke-miterlimit="10"/>
<path d="M70.5679 801C60.3701 787.072 61.6699 770.704 63.2695 754.337C64.0694 746.407 64.0693 738.071 63.3695 729.531C61.5699 706.25 56.171 686.426 64.7692 664.975C68.8684 654.606 77.0667 645.354 83.7653 634.68C104.061 602.859 91.8636 573.886 81.3658 544.302C80.7659 542.777 80.266 541.15 79.7661 539.625C72.5676 518.073 65.869 496.825 64.3693 474.358C63.9694 468.868 64.1693 463.582 64.7692 458.193C66.9688 438.573 73.6674 420.273 79.3662 400.653" stroke="url(#paint30_linear_3200_3638)" stroke-miterlimit="10"/>
<path d="M60.2704 801C50.0726 787.072 51.2723 770.806 52.872 754.54C53.6718 746.712 53.6717 738.376 53.0719 729.836C51.4722 706.759 46.5732 686.324 55.4714 665.382C59.9705 654.911 68.1687 645.761 74.9673 635.188C95.563 603.266 82.4658 574.495 71.3681 544.607C70.7682 543.082 70.2683 541.455 69.6684 539.93C62.1699 518.48 55.7713 497.029 54.1716 474.561C53.7717 469.071 53.9717 463.683 54.5715 458.397C56.7711 438.674 63.4697 420.477 69.0685 400.754" stroke="url(#paint31_linear_3200_3638)" stroke-miterlimit="10"/>
<path d="M49.9723 801C39.8744 787.174 40.8742 770.908 42.4739 754.744C43.2737 746.915 43.1737 738.579 42.6738 730.141C41.1741 707.267 36.975 686.223 46.1731 665.789C50.9721 655.216 59.2704 646.168 66.069 635.696C87.0646 603.673 72.9676 575.106 61.27 544.912C60.6702 543.387 60.0702 541.76 59.5703 540.235C51.7719 518.886 45.5732 497.232 43.9736 474.764C43.5736 469.275 43.6737 463.887 44.2736 458.498C46.3731 438.776 53.0717 420.477 58.7705 400.653" stroke="url(#paint32_linear_3200_3638)" stroke-miterlimit="10"/>
<path d="M39.5746 801C29.4767 787.276 30.4765 771.009 31.9762 754.947C32.776 747.119 32.676 738.884 32.1761 730.446C30.7764 707.775 27.1772 686.121 36.7752 666.195C41.8742 655.622 50.2723 646.574 57.1709 636.205C78.5664 604.079 63.4696 575.614 51.1721 545.217C50.5723 543.692 49.9725 542.167 49.3726 540.54C41.3743 519.293 35.3754 497.435 33.6758 474.968C33.2759 469.376 33.3759 463.988 33.8758 458.702C35.8754 438.878 42.674 420.578 48.3728 400.754" stroke="url(#paint33_linear_3200_3638)" stroke-miterlimit="10"/>
<path d="M29.2765 801C19.2786 787.377 20.0783 771.213 21.578 755.15C22.2779 747.424 22.178 739.189 21.778 730.751C20.5783 708.284 17.5789 686.019 27.4768 666.602C32.8757 656.029 41.374 646.981 48.2726 636.713C70.068 604.588 53.9713 576.224 41.074 545.522C40.4741 543.997 39.7742 542.472 39.1743 540.845C30.8761 519.699 25.0773 497.74 23.3777 475.07C22.9778 469.478 23.0777 464.09 23.5776 458.804C25.4772 438.878 32.3758 420.68 38.0746 400.754" stroke="url(#paint34_linear_3200_3638)" stroke-miterlimit="10"/>
<path d="M18.9788 801C9.08088 787.479 9.78069 771.314 11.1804 755.353C11.8803 747.627 11.7803 739.494 11.3804 731.056C10.3806 708.792 7.88108 686.02 18.179 667.009C23.9778 656.334 32.4761 647.388 39.3746 637.221C61.5701 604.994 44.4736 576.834 30.9764 545.725C30.2765 544.2 29.6766 542.675 28.9768 541.048C20.4785 520.004 14.7797 497.842 13.08 475.171C12.6801 469.58 12.7801 464.192 13.18 458.803C14.9796 438.878 21.8782 420.578 27.577 400.551" stroke="url(#paint35_linear_3200_3638)" stroke-miterlimit="10"/>
<path d="M8.68079 801C-1.21716 787.479 -0.617183 771.416 0.782526 755.557C3.38199 727.599 -5.81613 692.933 8.88082 667.517C14.9796 656.842 23.5777 647.896 30.5763 637.831C53.1716 605.503 35.0754 577.545 20.9783 546.132C10.9804 523.867 4.88163 499.875 2.98202 475.476C0.882457 448.637 10.1805 426.068 17.479 400.754" stroke="url(#paint36_linear_3200_3638)" stroke-miterlimit="10"/>
<path d="M389.102 400.449C371.106 375.949 391.201 348.093 384.603 319.831C377.704 290.755 363.107 291.162 353.209 251.92C346.911 227.114 391.101 155.645 393.101 130.128C395.401 99.426 374.205 83.7701 382.703 53.7797C387.802 35.887 392.901 18.0959 398 0.20327" stroke="url(#paint37_linear_3200_3638)" stroke-miterlimit="10"/>
<path d="M378.804 400.449C366.806 384.183 371.705 366.29 374.305 347.889C375.605 338.74 376.305 329.489 374.105 320.136C367.406 291.162 352.809 291.06 343.811 252.327C342.012 244.6 345.111 232.706 350.01 219.185C360.508 190.516 378.604 154.731 382.203 135.008C382.503 133.381 382.703 131.856 382.803 130.433C384.403 105.323 370.706 90.0731 370.306 68.9273C370.206 64.2508 370.806 59.2693 372.305 53.8812C377.304 35.9886 382.503 18.0959 387.602 0.20327" stroke="url(#paint38_linear_3200_3638)" stroke-miterlimit="10"/>
<path d="M368.506 400.449C356.608 384.285 361.407 366.494 363.907 348.093C365.207 339.045 365.906 329.793 363.807 320.441C357.308 291.67 342.611 290.959 334.613 252.733C333.013 245.007 336.213 233.112 341.212 219.693C352.009 190.923 369.006 155.341 372.205 135.313C372.505 133.686 372.705 132.162 372.705 130.738C373.905 105.729 360.508 90.2764 360.108 69.1306C360.008 64.4541 360.508 59.4726 362.007 54.0845C366.906 36.0902 372.105 18.1977 377.304 0.305032" stroke="url(#paint39_linear_3200_3638)" stroke-miterlimit="10"/>
<path d="M358.208 400.449C346.311 384.285 351.01 366.596 353.509 348.296C354.809 339.248 355.409 330.099 353.409 320.746C347.011 292.178 332.414 290.857 325.215 253.14C323.715 245.312 327.215 233.519 332.314 220.201C343.411 191.227 359.308 155.951 362.108 135.618C362.307 133.991 362.507 132.467 362.607 131.043C363.507 106.238 350.41 90.5815 349.91 69.2323C349.81 64.5559 350.31 59.5743 351.81 54.1862C356.609 36.1919 361.908 18.2992 367.006 0.20327" stroke="url(#paint40_linear_3200_3638)" stroke-miterlimit="10"/>
<path d="M347.81 400.449C336.013 384.387 340.512 366.697 343.111 348.5C344.311 339.553 345.011 330.302 343.011 321.051C336.813 292.687 322.216 290.755 315.917 253.547C314.617 245.617 318.217 233.926 323.416 220.71C334.813 191.634 349.61 156.56 352.01 135.923C352.21 134.296 352.41 132.771 352.41 131.348C352.909 106.644 340.112 90.7848 339.612 69.4356C339.512 64.6575 340.012 59.6761 341.412 54.288C346.111 36.192 351.41 18.2992 356.609 0.20327" stroke="url(#paint41_linear_3200_3638)" stroke-miterlimit="10"/>
<path d="M337.512 400.449C325.815 384.488 330.214 366.799 332.713 348.703C333.913 339.756 334.513 330.607 332.614 321.356C326.615 293.195 312.118 290.653 306.619 253.953C305.419 245.922 309.318 234.332 314.617 221.218C326.315 192.041 340.012 157.17 342.012 136.228C342.211 134.601 342.312 133.076 342.312 131.653C342.511 107.051 330.014 90.988 329.414 69.6389C329.314 64.8607 329.814 59.8794 331.214 54.4913C335.813 36.2937 341.212 18.401 346.411 0.305032" stroke="url(#paint42_linear_3200_3638)" stroke-miterlimit="10"/>
<path d="M327.215 400.449C315.517 384.59 319.816 367.002 322.316 348.906C323.515 339.96 324.115 330.912 322.216 321.661C316.317 293.703 301.92 290.45 297.321 254.36C296.321 246.328 300.42 234.739 305.719 221.726C317.717 192.447 330.314 157.78 331.914 136.533C332.014 134.906 332.114 133.381 332.114 131.958C332.014 107.457 319.716 91.1913 319.116 69.8422C319.016 65.064 319.516 59.9809 320.816 54.5928C325.315 36.3952 330.814 18.5025 336.013 0.20327" stroke="url(#paint43_linear_3200_3638)" stroke-miterlimit="10"/>
<path d="M316.917 400.449C305.319 384.59 309.418 367.104 311.918 349.11C313.117 340.265 313.717 331.115 311.818 321.965C306.219 294.212 291.822 290.349 288.023 254.767C287.123 246.634 291.422 235.146 296.921 222.235C309.218 192.854 320.816 158.492 322.016 136.736C322.116 135.11 322.216 133.585 322.216 132.161C321.716 107.762 309.718 91.2929 309.118 69.8421C309.018 64.9623 309.418 59.9809 310.818 54.5927C315.317 36.2935 320.716 18.401 325.915 0.101709" stroke="url(#paint44_linear_3200_3638)" stroke-miterlimit="10"/>
<path d="M306.619 400.449C295.021 384.692 299.12 367.205 301.52 349.313C302.72 340.468 303.22 331.42 301.42 322.271C295.921 294.72 281.724 290.145 278.725 255.173C278.025 246.939 282.524 235.552 288.023 222.743C300.62 193.261 311.118 159.102 311.918 137.041C312.018 135.415 312.018 133.89 312.018 132.466C311.218 108.271 299.52 91.4965 298.821 70.0457C298.621 65.1659 299.121 60.1844 300.42 54.7963C304.819 36.497 310.318 18.5025 315.517 0.20327" stroke="url(#paint45_linear_3200_3638)" stroke-miterlimit="10"/>
<path d="M296.221 400.449C284.724 384.793 288.623 367.409 291.022 349.516C292.222 340.773 292.722 331.725 290.922 322.576C285.623 295.228 271.526 289.942 269.327 255.681C268.827 247.345 273.526 236.061 279.025 223.353C292.022 193.667 301.32 159.814 301.72 137.448C301.72 135.821 301.82 134.296 301.72 132.873C300.62 108.779 289.123 91.8013 288.423 70.3505C288.223 65.4707 288.723 60.3877 289.922 54.9996C294.222 36.5986 299.72 18.6043 305.019 0.305032" stroke="url(#paint46_linear_3200_3638)" stroke-miterlimit="10"/>
<path d="M285.923 400.449C274.525 384.895 278.325 367.51 280.624 349.719C281.724 340.976 282.224 332.03 280.524 322.881C275.425 295.737 261.528 289.84 260.028 256.088C259.628 247.65 264.627 236.467 270.226 223.861C283.523 194.074 291.822 160.525 291.722 137.753C291.722 136.126 291.722 134.601 291.622 133.178C290.222 109.186 279.024 92.1065 278.225 70.554C278.025 65.6742 278.525 60.591 279.724 55.2028C283.923 36.8019 289.522 18.8076 294.821 0.305032" stroke="url(#paint47_linear_3200_3638)" stroke-miterlimit="10"/>
<path d="M275.625 400.449C264.228 384.997 267.927 367.612 270.226 349.923C271.326 341.18 271.826 332.234 270.126 323.186C265.227 296.245 251.53 289.637 250.73 256.495C250.53 247.955 255.629 236.874 261.328 224.369C274.925 194.481 282.224 161.135 281.624 138.058C281.624 136.431 281.624 134.906 281.524 133.483C279.824 109.592 268.827 92.3097 268.027 70.6555C267.827 65.674 268.227 60.5911 269.427 55.3046C273.526 36.802 279.125 18.8076 284.423 0.305032" stroke="url(#paint48_linear_3200_3638)" stroke-miterlimit="10"/>
<path d="M265.327 400.449C254.03 384.997 257.529 367.714 259.828 350.126C260.928 341.485 261.428 332.538 259.828 323.49C255.029 296.651 241.632 289.332 241.532 256.901C241.532 248.26 246.831 237.281 252.63 224.878C266.527 194.887 272.726 161.745 271.726 138.363C271.626 136.736 271.626 135.211 271.526 133.788C269.526 110.101 258.729 92.5129 257.929 70.8588C257.729 65.8773 258.129 60.7942 259.329 55.4061C263.328 36.8019 269.027 18.8076 274.325 0.305032" stroke="url(#paint49_linear_3200_3638)" stroke-miterlimit="10"/>
<path d="M255.03 400.449C243.732 385.098 247.231 367.917 249.431 350.329C250.531 341.688 250.93 332.843 249.431 323.795C244.832 297.16 231.734 289.129 232.234 257.308C232.334 248.565 237.933 237.585 243.732 225.386C258.029 195.294 263.128 162.457 261.628 138.668C261.528 137.041 261.428 135.516 261.328 134.093C258.929 110.507 248.531 92.7165 247.631 71.0623C247.431 66.0808 247.831 60.9975 248.931 55.6094C252.83 37.0051 258.629 19.011 263.928 0.305032" stroke="url(#paint50_linear_3200_3638)" stroke-miterlimit="10"/>
<path d="M244.632 400.449C233.434 385.2 236.733 368.019 238.933 350.533C240.033 341.993 240.433 333.047 238.933 324.1C234.534 297.668 221.637 288.925 222.836 257.715C223.136 248.87 228.935 237.992 234.834 225.894C249.431 195.7 253.53 163.067 251.53 138.973C251.43 137.346 251.33 135.821 251.131 134.398C248.431 110.914 238.233 92.9197 237.333 71.2656C237.133 66.2841 237.533 61.0993 238.633 55.7112C242.432 37.0052 248.231 19.011 253.63 0.305032" stroke="url(#paint51_linear_3200_3638)" stroke-miterlimit="10"/>
<path d="M234.334 400.449C223.236 385.301 226.336 368.12 228.535 350.736C229.635 342.196 229.935 333.352 228.535 324.406C224.236 298.177 211.739 288.722 213.538 258.122C214.038 249.175 219.937 238.399 225.936 226.403C240.833 196.005 243.932 163.778 241.433 139.278C241.233 137.651 241.133 136.126 241.033 134.703C238.033 111.321 228.135 93.1229 227.136 71.3671C226.936 66.284 227.336 61.201 228.335 55.8129C232.035 37.107 237.933 19.011 243.232 0.305032" stroke="url(#paint52_linear_3200_3638)" stroke-miterlimit="10"/>
<path d="M224.036 400.449C212.938 385.403 216.038 368.324 218.137 350.939C219.137 342.4 219.537 333.657 218.137 324.711C214.038 298.685 201.841 288.519 204.24 258.528C204.94 249.48 211.039 238.806 217.037 226.809C232.334 196.311 234.234 164.287 231.334 139.38C231.134 137.753 231.035 136.228 230.835 134.805C227.535 111.524 217.837 93.2245 216.837 71.3671C216.637 66.2839 216.937 61.0993 218.037 55.8129C221.636 37.0053 227.535 18.9093 232.934 0.101709" stroke="url(#paint53_linear_3200_3638)" stroke-miterlimit="10"/>
<path d="M213.738 400.449C202.74 385.403 205.64 368.425 207.739 351.143C208.739 342.705 209.139 333.962 207.739 325.015C203.84 299.193 192.043 288.315 194.842 258.935C195.742 249.785 202.04 239.212 208.139 227.318C223.736 196.717 224.636 164.897 221.237 139.685C221.037 138.058 220.836 136.533 220.637 135.008C217.037 111.931 207.539 93.3263 206.539 71.4688C206.34 66.3857 206.639 61.201 207.639 55.8129C211.138 37.0053 217.137 18.9092 222.536 -5.25988e-05" stroke="url(#paint54_linear_3200_3638)" stroke-miterlimit="10"/>
<path d="M203.441 400.449C192.443 385.505 195.242 368.527 197.342 351.346C198.342 342.908 198.642 334.165 197.342 325.32C193.543 299.701 182.145 288.112 185.544 259.341C186.644 250.09 193.143 239.619 199.242 227.826C215.138 197.124 215.138 165.608 211.139 139.989C210.939 138.363 210.739 136.838 210.439 135.313C206.54 112.337 197.342 93.5296 196.242 71.6721C195.942 66.589 196.342 61.4043 197.342 56.0162C200.741 37.1069 206.74 19.011 212.239 0.101709" stroke="url(#paint55_linear_3200_3638)" stroke-miterlimit="10"/>
<path d="M193.042 400.449C182.145 385.606 184.844 368.629 186.844 351.549C187.843 343.213 188.143 334.47 186.844 325.625C183.244 300.21 172.247 287.807 176.146 259.85C177.446 250.395 184.144 240.127 190.343 228.436C206.64 197.632 205.54 166.32 201.041 140.396C200.741 138.77 200.541 137.245 200.341 135.72C196.142 112.845 187.144 93.8345 186.044 71.8754C185.744 66.6906 186.144 61.5058 187.044 56.1177C190.443 37.1068 196.442 19.0109 201.841 -5.25988e-05" stroke="url(#paint56_linear_3200_3638)" stroke-miterlimit="10"/>
<path d="M182.745 400.449C171.947 385.708 174.446 368.832 176.446 351.753C177.446 343.416 177.646 334.775 176.446 325.93C173.047 300.718 162.449 287.604 166.848 260.256C168.348 250.7 175.246 240.534 181.445 228.944C198.041 198.039 195.942 166.93 190.943 140.701C190.643 139.075 190.443 137.55 190.143 136.025C185.744 113.252 176.846 94.038 175.746 72.0789C175.446 66.8941 175.746 61.7093 176.746 56.3212C180.045 37.3103 186.144 19.2143 191.543 0.101709" stroke="url(#paint57_linear_3200_3638)" stroke-miterlimit="10"/>
<path d="M172.447 400.449C161.649 385.81 164.048 368.934 166.048 351.956C167.048 343.721 167.248 334.978 166.048 326.236C162.749 301.226 152.651 287.4 157.55 260.663C159.349 251.005 166.348 240.94 172.547 229.452C189.543 198.445 186.344 167.642 180.845 141.006C180.545 139.379 180.245 137.855 179.945 136.33C175.246 113.761 166.648 94.2413 165.448 72.2822C165.148 67.0974 165.448 61.811 166.348 56.5245C169.547 37.4119 175.646 19.3158 181.145 0.20327" stroke="url(#paint58_linear_3200_3638)" stroke-miterlimit="10"/>
<path d="M162.149 400.449C151.451 385.81 153.751 369.035 155.65 352.159C156.55 343.925 156.75 335.283 155.75 326.54C152.651 301.735 142.953 287.197 148.352 261.07C150.351 251.31 157.45 241.347 163.848 229.961C181.145 198.852 177.046 168.252 170.947 141.311C170.547 139.684 170.347 138.16 169.947 136.635C164.948 114.167 156.55 94.5461 155.35 72.3837C155.05 67.0972 155.35 61.9126 156.15 56.5245C159.249 37.4119 165.448 19.2142 170.947 -5.25988e-05" stroke="url(#paint59_linear_3200_3638)" stroke-miterlimit="10"/>
<path d="M151.751 400.449C141.053 385.911 143.253 369.239 145.152 352.363C146.052 344.128 146.252 335.588 145.252 326.845C142.353 302.243 133.155 286.994 138.954 261.476C141.153 251.615 148.452 241.754 154.85 230.469C172.547 199.259 167.348 168.862 160.749 141.616C160.349 140.091 160.049 138.464 159.649 136.939C154.35 114.574 146.252 94.7497 144.952 72.5872C144.652 67.3008 144.952 62.0142 145.752 56.7277C148.752 37.5135 154.95 19.3159 160.449 0.101709" stroke="url(#paint60_linear_3200_3638)" stroke-miterlimit="10"/>
<path d="M141.453 400.449C130.855 386.013 132.955 369.34 134.755 352.566C135.654 344.433 135.854 335.893 134.855 327.15C132.055 302.751 123.457 286.79 129.656 261.883C132.155 251.92 139.553 242.16 146.052 230.977C164.148 199.665 157.95 169.472 150.751 141.921C150.351 140.396 150.051 138.769 149.651 137.245C144.053 114.98 136.154 94.9529 134.855 72.7905C134.555 67.504 134.754 62.2176 135.554 56.8295C138.454 37.5136 144.752 19.4176 150.251 0.101709" stroke="url(#paint61_linear_3200_3638)" stroke-miterlimit="10"/>
<path d="M131.155 400.449C120.658 386.115 122.557 369.442 124.357 352.769C125.257 344.636 125.357 336.097 124.457 327.455C121.857 303.158 113.659 286.587 120.358 262.29C123.057 252.225 130.656 242.567 137.154 231.486C155.55 200.072 148.352 170.183 140.754 142.124C140.354 140.599 139.954 138.973 139.554 137.448C133.655 115.285 125.957 95.0545 124.657 72.892C124.357 67.6056 124.557 62.3191 125.357 56.931C128.156 37.6151 134.455 19.4175 140.054 -5.25988e-05" stroke="url(#paint62_linear_3200_3638)" stroke-miterlimit="10"/>
<path d="M120.858 400.449C110.36 386.216 112.16 369.544 113.959 352.973C114.859 344.941 114.959 336.402 114.059 327.76C111.66 303.666 103.961 286.485 111.06 262.696C114.059 252.632 121.758 242.974 128.356 231.994C147.152 200.479 138.954 170.793 130.756 142.429C130.256 140.904 129.856 139.278 129.456 137.753C123.357 115.692 115.859 95.2579 114.459 72.9938C114.159 67.6056 114.359 62.3192 115.059 57.0328C117.758 37.6152 124.157 19.4175 129.756 -5.25988e-05" stroke="url(#paint63_linear_3200_3638)" stroke-miterlimit="10"/>
<path d="M110.56 400.449C100.162 386.216 101.861 369.747 103.561 353.176C104.461 345.145 104.461 336.707 103.661 328.065C101.361 304.175 94.263 286.282 101.761 263.103C105.061 252.937 112.859 243.38 119.458 232.502C138.554 200.885 129.456 171.403 120.657 142.734C120.158 141.209 119.758 139.583 119.258 138.058C112.859 116.2 105.561 95.4612 104.161 73.197C103.861 67.8089 104.061 62.5224 104.761 57.1343C107.36 37.7167 113.859 19.5192 119.358 -5.25988e-05" stroke="url(#paint64_linear_3200_3638)" stroke-miterlimit="10"/>
<path d="M100.162 400.449C89.764 386.318 91.3637 369.849 93.0633 353.379C93.8631 345.348 93.9631 337.012 93.1633 328.37C91.0637 304.683 84.5651 286.079 92.3635 263.509C95.9628 253.242 103.861 243.889 110.46 233.011C129.956 201.292 119.758 172.013 110.46 143.039C109.96 141.514 109.46 139.888 109.06 138.363C102.361 116.607 95.3629 95.7661 93.8632 73.4003C93.4633 68.0122 93.6632 62.6243 94.3631 57.3378C96.8626 37.8186 103.361 19.6208 108.96 -5.25988e-05" stroke="url(#paint65_linear_3200_3638)" stroke-miterlimit="10"/>
<path d="M89.8641 400.449C79.5662 386.42 80.9659 369.95 82.6655 353.583C83.4654 345.653 83.4655 337.215 82.7656 328.675C80.766 305.191 74.8672 285.977 83.0655 264.018C86.8647 253.648 94.963 244.397 101.662 233.621C121.557 201.902 110.36 172.725 100.462 143.446C99.962 141.921 99.4621 140.294 98.9622 138.769C91.9636 117.115 85.165 96.0712 83.6653 73.7054C83.2654 68.3173 83.4654 62.9291 84.1652 57.6427C86.4647 38.0218 93.1634 19.8242 98.7623 0.20327" stroke="url(#paint66_linear_3200_3638)" stroke-miterlimit="10"/>
<path d="M79.566 400.449C69.3681 386.521 70.6679 370.154 72.2676 353.786C73.0674 345.856 73.0674 337.52 72.3675 328.98C70.5679 305.7 65.1691 285.875 73.7673 264.425C77.8664 254.055 86.0647 244.804 92.7633 234.129C113.059 202.309 100.862 173.335 90.3638 143.751C89.7639 142.226 89.2641 140.599 88.7642 139.074C81.5657 117.522 74.867 96.2746 73.3673 73.8071C72.9674 68.3173 73.1674 63.0307 73.7673 57.6426C75.9668 38.0217 82.6654 19.7226 88.3642 0.101709" stroke="url(#paint67_linear_3200_3638)" stroke-miterlimit="10"/>
<path d="M69.2685 400.449C59.0706 386.521 60.2703 370.255 61.87 353.989C62.6698 346.161 62.6698 337.825 62.0699 329.285C60.4702 306.208 55.5713 285.774 64.4694 264.831C68.9685 254.36 77.1668 245.21 83.9654 234.637C104.561 202.715 91.4638 173.945 80.3661 144.056C79.7663 142.531 79.2663 140.904 78.6664 139.38C71.168 117.929 64.7693 96.4779 63.1697 74.0104C62.7697 68.5207 62.9697 63.1326 63.5696 57.8462C65.7691 38.1236 72.4677 19.9258 78.0666 0.20327" stroke="url(#paint68_linear_3200_3638)" stroke-miterlimit="10"/>
<path d="M58.9704 400.449C48.8725 386.623 49.8723 370.357 51.4719 354.193C52.2718 346.365 52.1717 338.028 51.6718 329.59C50.1721 306.716 45.973 285.672 55.1711 265.238C59.9701 254.665 68.2684 245.617 75.067 235.146C96.0627 203.122 81.9657 174.555 70.2681 144.361C69.6682 142.836 69.0683 141.209 68.5684 139.685C60.77 118.335 54.5713 96.6811 52.9716 74.2137C52.5717 68.7239 52.6717 63.3358 53.2716 57.9476C55.3712 38.2251 62.0698 19.9259 67.7686 0.101709" stroke="url(#paint69_linear_3200_3638)" stroke-miterlimit="10"/>
<path d="M48.5726 400.449C38.4747 386.725 39.4745 370.459 40.9742 354.396C41.774 346.568 41.674 338.333 41.1741 329.895C39.7744 307.224 36.1752 285.57 45.7733 265.644C50.8722 255.072 59.2704 246.024 66.1689 235.654C87.5645 203.529 72.4676 175.063 60.1702 144.666C59.5703 143.141 58.9705 141.616 58.3706 139.989C50.3723 118.742 44.3734 96.8844 42.6738 74.417C42.2739 68.8255 42.3739 63.4374 42.8738 58.151C44.8734 38.3268 51.672 20.0275 57.3708 0.20327" stroke="url(#paint70_linear_3200_3638)" stroke-miterlimit="10"/>
<path d="M38.2746 400.449C28.2766 386.826 29.0764 370.662 30.5761 354.599C31.2759 346.873 31.176 338.638 30.7761 330.2C29.5764 307.733 26.5769 285.469 36.4749 266.051C41.8738 255.478 50.372 246.43 57.2706 236.162C79.0661 204.037 62.9693 175.673 50.072 144.971C49.4722 143.446 48.7723 141.921 48.1724 140.294C39.8741 119.149 34.0754 97.1895 32.3758 74.5187C31.9758 68.9273 32.0758 63.5392 32.5757 58.2527C34.4753 38.3269 41.3738 20.1291 47.0727 0.20327" stroke="url(#paint71_linear_3200_3638)" stroke-miterlimit="10"/>
<path d="M27.9769 400.449C18.079 386.928 18.7788 370.764 20.1785 354.803C20.8784 347.076 20.7785 338.943 20.3785 330.505C19.3787 308.241 16.8792 285.469 27.177 266.458C32.9758 255.783 41.4741 246.837 48.3727 236.671C70.5681 204.444 53.4716 176.283 39.9744 145.174C39.2746 143.649 38.6747 142.124 37.9748 140.498C29.4766 119.453 23.7778 97.2912 22.0781 74.6205C21.6782 69.029 21.7782 63.6408 22.1781 58.2527C23.9777 38.3268 30.8763 20.0275 36.5751 -5.25988e-05" stroke="url(#paint72_linear_3200_3638)" stroke-miterlimit="10"/>
<path d="M17.6788 400.449C7.78086 386.928 8.38083 370.865 9.78054 355.006C12.38 327.049 3.18188 292.382 17.8788 266.966C23.9776 256.292 32.5758 247.345 39.5743 237.281C62.1696 204.952 44.0734 176.995 29.9763 145.581C19.9784 123.317 13.8796 99.3243 11.98 74.9253C9.88047 48.0864 19.1785 25.5173 26.477 0.20327" stroke="url(#paint73_linear_3200_3638)" stroke-miterlimit="10"/>
</g>
<defs>
<linearGradient id="paint0_linear_3200_3638" x1="389.453" y1="600.932" x2="343.07" y2="600.932" gradientUnits="userSpaceOnUse">
<stop stop-color="white"/>
<stop offset="1"/>
</linearGradient>
<linearGradient id="paint1_linear_3200_3638" x1="379.135" y1="600.932" x2="333.858" y2="600.932" gradientUnits="userSpaceOnUse">
<stop stop-color="white"/>
<stop offset="1"/>
</linearGradient>
<linearGradient id="paint2_linear_3200_3638" x1="368.815" y1="600.932" x2="324.631" y2="600.932" gradientUnits="userSpaceOnUse">
<stop stop-color="white"/>
<stop offset="1"/>
</linearGradient>
<linearGradient id="paint3_linear_3200_3638" x1="358.497" y1="600.932" x2="315.398" y2="600.932" gradientUnits="userSpaceOnUse">
<stop stop-color="white"/>
<stop offset="1"/>
</linearGradient>
<linearGradient id="paint4_linear_3200_3638" x1="348.178" y1="600.932" x2="306.156" y2="600.932" gradientUnits="userSpaceOnUse">
<stop stop-color="white"/>
<stop offset="1"/>
</linearGradient>
<linearGradient id="paint5_linear_3200_3638" x1="337.859" y1="600.932" x2="296.906" y2="600.932" gradientUnits="userSpaceOnUse">
<stop stop-color="white"/>
<stop offset="1"/>
</linearGradient>
<linearGradient id="paint6_linear_3200_3638" x1="327.54" y1="600.932" x2="287.647" y2="600.932" gradientUnits="userSpaceOnUse">
<stop stop-color="white"/>
<stop offset="1"/>
</linearGradient>
<linearGradient id="paint7_linear_3200_3638" x1="317.221" y1="600.932" x2="278.38" y2="600.932" gradientUnits="userSpaceOnUse">
<stop stop-color="white"/>
<stop offset="1"/>
</linearGradient>
<linearGradient id="paint8_linear_3200_3638" x1="306.902" y1="600.932" x2="269.105" y2="600.932" gradientUnits="userSpaceOnUse">
<stop stop-color="white"/>
<stop offset="1"/>
</linearGradient>
<linearGradient id="paint9_linear_3200_3638" x1="296.584" y1="600.932" x2="259.822" y2="600.932" gradientUnits="userSpaceOnUse">
<stop stop-color="white"/>
<stop offset="1"/>
</linearGradient>
<linearGradient id="paint10_linear_3200_3638" x1="286.264" y1="600.932" x2="250.531" y2="600.932" gradientUnits="userSpaceOnUse">
<stop stop-color="white"/>
<stop offset="1"/>
</linearGradient>
<linearGradient id="paint11_linear_3200_3638" x1="275.946" y1="600.932" x2="241.232" y2="600.932" gradientUnits="userSpaceOnUse">
<stop stop-color="white"/>
<stop offset="1"/>
</linearGradient>
<linearGradient id="paint12_linear_3200_3638" x1="265.627" y1="600.932" x2="231.925" y2="600.932" gradientUnits="userSpaceOnUse">
<stop stop-color="white"/>
<stop offset="1"/>
</linearGradient>
<linearGradient id="paint13_linear_3200_3638" x1="255.308" y1="600.932" x2="222.597" y2="600.932" gradientUnits="userSpaceOnUse">
<stop stop-color="white"/>
<stop offset="1"/>
</linearGradient>
<linearGradient id="paint14_linear_3200_3638" x1="244.989" y1="600.932" x2="213.226" y2="600.932" gradientUnits="userSpaceOnUse">
<stop stop-color="white"/>
<stop offset="1"/>
</linearGradient>
<linearGradient id="paint15_linear_3200_3638" x1="234.671" y1="600.932" x2="203.819" y2="600.932" gradientUnits="userSpaceOnUse">
<stop stop-color="white"/>
<stop offset="1"/>
</linearGradient>
<linearGradient id="paint16_linear_3200_3638" x1="224.351" y1="600.932" x2="194.378" y2="600.932" gradientUnits="userSpaceOnUse">
<stop stop-color="white"/>
<stop offset="1"/>
</linearGradient>
<linearGradient id="paint17_linear_3200_3638" x1="214.373" y1="600.932" x2="184.909" y2="600.932" gradientUnits="userSpaceOnUse">
<stop stop-color="white"/>
<stop offset="1"/>
</linearGradient>
<linearGradient id="paint18_linear_3200_3638" x1="204.879" y1="600.932" x2="175.414" y2="600.932" gradientUnits="userSpaceOnUse">
<stop stop-color="white"/>
<stop offset="1"/>
</linearGradient>
<linearGradient id="paint19_linear_3200_3638" x1="195.467" y1="600.932" x2="165.894" y2="600.932" gradientUnits="userSpaceOnUse">
<stop stop-color="white"/>
<stop offset="1"/>
</linearGradient>
<linearGradient id="paint20_linear_3200_3638" x1="186.129" y1="600.932" x2="156.352" y2="600.932" gradientUnits="userSpaceOnUse">
<stop stop-color="white"/>
<stop offset="1"/>
</linearGradient>
<linearGradient id="paint21_linear_3200_3638" x1="176.857" y1="600.932" x2="146.787" y2="600.932" gradientUnits="userSpaceOnUse">
<stop stop-color="white"/>
<stop offset="1"/>
</linearGradient>
<linearGradient id="paint22_linear_3200_3638" x1="167.642" y1="600.932" x2="137.2" y2="600.932" gradientUnits="userSpaceOnUse">
<stop stop-color="white"/>
<stop offset="1"/>
</linearGradient>
<linearGradient id="paint23_linear_3200_3638" x1="158.476" y1="600.932" x2="127.591" y2="600.932" gradientUnits="userSpaceOnUse">
<stop stop-color="white"/>
<stop offset="1"/>
</linearGradient>
<linearGradient id="paint24_linear_3200_3638" x1="149.352" y1="600.932" x2="117.96" y2="600.932" gradientUnits="userSpaceOnUse">
<stop stop-color="white"/>
<stop offset="1"/>
</linearGradient>
<linearGradient id="paint25_linear_3200_3638" x1="140.266" y1="600.932" x2="108.304" y2="600.932" gradientUnits="userSpaceOnUse">
<stop stop-color="white"/>
<stop offset="1"/>
</linearGradient>
<linearGradient id="paint26_linear_3200_3638" x1="131.212" y1="600.932" x2="98.6231" y2="600.932" gradientUnits="userSpaceOnUse">
<stop stop-color="white"/>
<stop offset="1"/>
</linearGradient>
<linearGradient id="paint27_linear_3200_3638" x1="122.185" y1="600.932" x2="88.914" y2="600.932" gradientUnits="userSpaceOnUse">
<stop stop-color="white"/>
<stop offset="1"/>
</linearGradient>
<linearGradient id="paint28_linear_3200_3638" x1="113.183" y1="600.932" x2="79.1753" y2="600.932" gradientUnits="userSpaceOnUse">
<stop stop-color="white"/>
<stop offset="1"/>
</linearGradient>
<linearGradient id="paint29_linear_3200_3638" x1="104.203" y1="600.932" x2="69.4041" y2="600.932" gradientUnits="userSpaceOnUse">
<stop stop-color="white"/>
<stop offset="1"/>
</linearGradient>
<linearGradient id="paint30_linear_3200_3638" x1="95.2412" y1="600.932" x2="59.5969" y2="600.932" gradientUnits="userSpaceOnUse">
<stop stop-color="white"/>
<stop offset="1"/>
</linearGradient>
<linearGradient id="paint31_linear_3200_3638" x1="86.2969" y1="600.932" x2="49.7509" y2="600.932" gradientUnits="userSpaceOnUse">
<stop stop-color="white"/>
<stop offset="1"/>
</linearGradient>
<linearGradient id="paint32_linear_3200_3638" x1="77.367" y1="600.932" x2="39.8465" y2="600.932" gradientUnits="userSpaceOnUse">
<stop stop-color="white"/>
<stop offset="1"/>
</linearGradient>
<linearGradient id="paint33_linear_3200_3638" x1="68.4507" y1="600.932" x2="29.9135" y2="600.932" gradientUnits="userSpaceOnUse">
<stop stop-color="white"/>
<stop offset="1"/>
</linearGradient>
<linearGradient id="paint34_linear_3200_3638" x1="59.5464" y1="600.932" x2="19.9307" y2="600.932" gradientUnits="userSpaceOnUse">
<stop stop-color="white"/>
<stop offset="1"/>
</linearGradient>
<linearGradient id="paint35_linear_3200_3638" x1="50.6742" y1="600.932" x2="9.85092" y2="600.932" gradientUnits="userSpaceOnUse">
<stop stop-color="white"/>
<stop offset="1"/>
</linearGradient>
<linearGradient id="paint36_linear_3200_3638" x1="41.7694" y1="600.932" x2="-0.515925" y2="600.932" gradientUnits="userSpaceOnUse">
<stop stop-color="white"/>
<stop offset="1"/>
</linearGradient>
<linearGradient id="paint37_linear_3200_3638" x1="398.451" y1="200.381" x2="352.068" y2="200.381" gradientUnits="userSpaceOnUse">
<stop stop-color="white"/>
<stop offset="1"/>
</linearGradient>
<linearGradient id="paint38_linear_3200_3638" x1="388.133" y1="200.381" x2="342.856" y2="200.381" gradientUnits="userSpaceOnUse">
<stop stop-color="white"/>
<stop offset="1"/>
</linearGradient>
<linearGradient id="paint39_linear_3200_3638" x1="377.813" y1="200.381" x2="333.629" y2="200.381" gradientUnits="userSpaceOnUse">
<stop stop-color="white"/>
<stop offset="1"/>
</linearGradient>
<linearGradient id="paint40_linear_3200_3638" x1="367.495" y1="200.381" x2="324.396" y2="200.381" gradientUnits="userSpaceOnUse">
<stop stop-color="white"/>
<stop offset="1"/>
</linearGradient>
<linearGradient id="paint41_linear_3200_3638" x1="357.176" y1="200.381" x2="315.154" y2="200.381" gradientUnits="userSpaceOnUse">
<stop stop-color="white"/>
<stop offset="1"/>
</linearGradient>
<linearGradient id="paint42_linear_3200_3638" x1="346.857" y1="200.381" x2="305.904" y2="200.381" gradientUnits="userSpaceOnUse">
<stop stop-color="white"/>
<stop offset="1"/>
</linearGradient>
<linearGradient id="paint43_linear_3200_3638" x1="336.538" y1="200.381" x2="296.645" y2="200.381" gradientUnits="userSpaceOnUse">
<stop stop-color="white"/>
<stop offset="1"/>
</linearGradient>
<linearGradient id="paint44_linear_3200_3638" x1="326.219" y1="200.381" x2="287.378" y2="200.381" gradientUnits="userSpaceOnUse">
<stop stop-color="white"/>
<stop offset="1"/>
</linearGradient>
<linearGradient id="paint45_linear_3200_3638" x1="315.9" y1="200.381" x2="278.103" y2="200.381" gradientUnits="userSpaceOnUse">
<stop stop-color="white"/>
<stop offset="1"/>
</linearGradient>
<linearGradient id="paint46_linear_3200_3638" x1="305.582" y1="200.381" x2="268.82" y2="200.381" gradientUnits="userSpaceOnUse">
<stop stop-color="white"/>
<stop offset="1"/>
</linearGradient>
<linearGradient id="paint47_linear_3200_3638" x1="295.262" y1="200.381" x2="259.529" y2="200.381" gradientUnits="userSpaceOnUse">
<stop stop-color="white"/>
<stop offset="1"/>
</linearGradient>
<linearGradient id="paint48_linear_3200_3638" x1="284.944" y1="200.381" x2="250.23" y2="200.381" gradientUnits="userSpaceOnUse">
<stop stop-color="white"/>
<stop offset="1"/>
</linearGradient>
<linearGradient id="paint49_linear_3200_3638" x1="274.625" y1="200.381" x2="240.923" y2="200.381" gradientUnits="userSpaceOnUse">
<stop stop-color="white"/>
<stop offset="1"/>
</linearGradient>
<linearGradient id="paint50_linear_3200_3638" x1="264.306" y1="200.381" x2="231.595" y2="200.381" gradientUnits="userSpaceOnUse">
<stop stop-color="white"/>
<stop offset="1"/>
</linearGradient>
<linearGradient id="paint51_linear_3200_3638" x1="253.987" y1="200.381" x2="222.225" y2="200.381" gradientUnits="userSpaceOnUse">
<stop stop-color="white"/>
<stop offset="1"/>
</linearGradient>
<linearGradient id="paint52_linear_3200_3638" x1="243.669" y1="200.381" x2="212.817" y2="200.381" gradientUnits="userSpaceOnUse">
<stop stop-color="white"/>
<stop offset="1"/>
</linearGradient>
<linearGradient id="paint53_linear_3200_3638" x1="233.349" y1="200.381" x2="203.376" y2="200.381" gradientUnits="userSpaceOnUse">
<stop stop-color="white"/>
<stop offset="1"/>
</linearGradient>
<linearGradient id="paint54_linear_3200_3638" x1="223.371" y1="200.381" x2="193.907" y2="200.381" gradientUnits="userSpaceOnUse">
<stop stop-color="white"/>
<stop offset="1"/>
</linearGradient>
<linearGradient id="paint55_linear_3200_3638" x1="213.877" y1="200.381" x2="184.412" y2="200.381" gradientUnits="userSpaceOnUse">
<stop stop-color="white"/>
<stop offset="1"/>
</linearGradient>
<linearGradient id="paint56_linear_3200_3638" x1="204.465" y1="200.381" x2="174.892" y2="200.381" gradientUnits="userSpaceOnUse">
<stop stop-color="white"/>
<stop offset="1"/>
</linearGradient>
<linearGradient id="paint57_linear_3200_3638" x1="195.127" y1="200.381" x2="165.35" y2="200.381" gradientUnits="userSpaceOnUse">
<stop stop-color="white"/>
<stop offset="1"/>
</linearGradient>
<linearGradient id="paint58_linear_3200_3638" x1="185.855" y1="200.381" x2="155.785" y2="200.381" gradientUnits="userSpaceOnUse">
<stop stop-color="white"/>
<stop offset="1"/>
</linearGradient>
<linearGradient id="paint59_linear_3200_3638" x1="176.64" y1="200.381" x2="146.198" y2="200.381" gradientUnits="userSpaceOnUse">
<stop stop-color="white"/>
<stop offset="1"/>
</linearGradient>
<linearGradient id="paint60_linear_3200_3638" x1="167.474" y1="200.381" x2="136.589" y2="200.381" gradientUnits="userSpaceOnUse">
<stop stop-color="white"/>
<stop offset="1"/>
</linearGradient>
<linearGradient id="paint61_linear_3200_3638" x1="158.35" y1="200.381" x2="126.958" y2="200.381" gradientUnits="userSpaceOnUse">
<stop stop-color="white"/>
<stop offset="1"/>
</linearGradient>
<linearGradient id="paint62_linear_3200_3638" x1="149.264" y1="200.381" x2="117.302" y2="200.381" gradientUnits="userSpaceOnUse">
<stop stop-color="white"/>
<stop offset="1"/>
</linearGradient>
<linearGradient id="paint63_linear_3200_3638" x1="140.21" y1="200.381" x2="107.621" y2="200.381" gradientUnits="userSpaceOnUse">
<stop stop-color="white"/>
<stop offset="1"/>
</linearGradient>
<linearGradient id="paint64_linear_3200_3638" x1="131.183" y1="200.381" x2="97.9121" y2="200.381" gradientUnits="userSpaceOnUse">
<stop stop-color="white"/>
<stop offset="1"/>
</linearGradient>
<linearGradient id="paint65_linear_3200_3638" x1="122.181" y1="200.381" x2="88.1733" y2="200.381" gradientUnits="userSpaceOnUse">
<stop stop-color="white"/>
<stop offset="1"/>
</linearGradient>
<linearGradient id="paint66_linear_3200_3638" x1="113.201" y1="200.381" x2="78.4022" y2="200.381" gradientUnits="userSpaceOnUse">
<stop stop-color="white"/>
<stop offset="1"/>
</linearGradient>
<linearGradient id="paint67_linear_3200_3638" x1="104.239" y1="200.381" x2="68.5949" y2="200.381" gradientUnits="userSpaceOnUse">
<stop stop-color="white"/>
<stop offset="1"/>
</linearGradient>
<linearGradient id="paint68_linear_3200_3638" x1="95.2949" y1="200.381" x2="58.7489" y2="200.381" gradientUnits="userSpaceOnUse">
<stop stop-color="white"/>
<stop offset="1"/>
</linearGradient>
<linearGradient id="paint69_linear_3200_3638" x1="86.3651" y1="200.381" x2="48.8445" y2="200.381" gradientUnits="userSpaceOnUse">
<stop stop-color="white"/>
<stop offset="1"/>
</linearGradient>
<linearGradient id="paint70_linear_3200_3638" x1="77.4488" y1="200.381" x2="38.9115" y2="200.381" gradientUnits="userSpaceOnUse">
<stop stop-color="white"/>
<stop offset="1"/>
</linearGradient>
<linearGradient id="paint71_linear_3200_3638" x1="68.5444" y1="200.381" x2="28.9288" y2="200.381" gradientUnits="userSpaceOnUse">
<stop stop-color="white"/>
<stop offset="1"/>
</linearGradient>
<linearGradient id="paint72_linear_3200_3638" x1="59.6722" y1="200.381" x2="18.849" y2="200.381" gradientUnits="userSpaceOnUse">
<stop stop-color="white"/>
<stop offset="1"/>
</linearGradient>
<linearGradient id="paint73_linear_3200_3638" x1="50.7674" y1="200.381" x2="8.48209" y2="200.381" gradientUnits="userSpaceOnUse">
<stop stop-color="white"/>
<stop offset="1"/>
</linearGradient>
<clipPath id="clip0_3200_3638">
<rect width="398" height="800" fill="white" transform="translate(398 800) rotate(-180)"/>
</clipPath>
</defs>
</svg>
