<svg width="1920" height="1099" viewBox="0 0 1920 1099" fill="none" xmlns="http://www.w3.org/2000/svg">
<path d="M948.485 2208.14C1045.9 2091.21 1174.19 1859.24 908.024 1866.83C575.315 1876.33 1203.9 1569.89 981.344 1484.58C758.79 1399.26 695.802 1651.46 720.776 1443.2C740.754 1276.6 827.402 1147.96 868.229 1104.47" stroke="url(#paint0_linear_3217_3842)"/>
<path d="M975.907 2190.02C1070.68 2073.5 1192.65 1843.38 922.353 1855.11C584.483 1869.79 1212.32 1558.43 982.975 1478.12C753.631 1397.82 698.78 1646.77 716.587 1441.63C730.832 1277.51 814.233 1149.65 854.152 1106.24" stroke="url(#paint1_linear_3217_3842)"/>
<path d="M1003.3 2171.74C1095.4 2055.65 1211.02 1827.46 936.675 1843.33C593.746 1863.18 1220.64 1547 984.579 1471.73C748.516 1396.45 701.818 1642.09 712.453 1440.12C720.961 1278.54 801.088 1151.5 840.088 1108.17" stroke="url(#paint2_linear_3217_3842)"/>
<path d="M1030.67 2153.29C1120.07 2037.69 1229.29 1811.49 950.987 1831.49C603.103 1856.5 1228.87 1535.61 986.158 1465.39C743.448 1395.16 704.917 1637.41 708.377 1438.67C711.145 1279.68 787.975 1153.5 826.044 1110.28" stroke="url(#paint3_linear_3217_3842)"/>
<path d="M1058 2134.69C1144.67 2019.61 1247.47 1795.47 965.285 1819.6C612.553 1849.76 1237 1524.24 987.714 1459.1C738.43 1393.95 708.078 1632.73 704.362 1437.29C701.389 1280.93 774.898 1155.64 812.024 1112.54" stroke="url(#paint4_linear_3217_3842)"/>
<path d="M1085.29 2115.94C1169.21 2001.4 1265.55 1779.39 979.569 1807.64C622.096 1842.96 1245.03 1512.91 989.248 1452.86C733.467 1392.81 711.303 1628.05 700.412 1435.96C691.699 1282.29 761.865 1157.93 798.037 1114.97" stroke="url(#paint5_linear_3217_3842)"/>
<path d="M1112.53 2097.04C1193.66 1983.09 1283.52 1763.27 993.836 1795.63C631.73 1836.08 1252.96 1501.61 990.762 1446.68C728.561 1391.74 714.593 1623.37 696.53 1434.7C682.08 1283.76 748.881 1160.37 784.088 1117.54" stroke="url(#paint6_linear_3217_3842)"/>
<path d="M1139.71 2077.99C1218.04 1964.66 1301.38 1747.11 1008.08 1783.57C641.455 1829.15 1260.8 1490.35 992.257 1440.54C723.716 1390.74 717.948 1618.69 692.719 1433.49C672.536 1285.32 735.952 1162.94 770.182 1120.28" stroke="url(#paint7_linear_3217_3842)"/>
<path d="M1166.83 2058.8C1242.34 1946.12 1319.14 1730.9 1022.31 1771.45C651.272 1822.14 1268.54 1479.12 993.737 1434.46C718.938 1389.81 721.37 1614.01 688.983 1432.33C663.073 1286.99 723.085 1165.65 756.329 1123.16" stroke="url(#paint8_linear_3217_3842)"/>
<path d="M1193.88 2039.47C1266.54 1927.48 1336.78 1714.66 1036.51 1759.28C661.176 1815.07 1276.17 1467.93 995.2 1428.43C714.227 1388.93 724.859 1609.32 685.324 1431.22C653.695 1288.74 710.284 1168.49 742.532 1126.18" stroke="url(#paint9_linear_3217_3842)"/>
<path d="M1220.86 2020C1290.64 1908.73 1354.3 1698.38 1050.69 1747.06C671.168 1807.93 1283.71 1456.78 996.649 1422.45C709.587 1388.13 728.417 1604.62 681.745 1430.16C644.407 1290.59 697.556 1171.47 728.798 1129.35" stroke="url(#paint10_linear_3217_3842)"/>
<path d="M1247.76 2000.4C1314.64 1889.89 1371.7 1682.06 1064.83 1734.8C681.248 1800.72 1291.15 1445.67 998.087 1416.52C705.024 1387.38 732.045 1599.92 678.25 1429.15C635.215 1292.54 684.908 1174.56 715.134 1132.66" stroke="url(#paint11_linear_3217_3842)"/>
<path d="M1274.57 1980.67C1338.54 1870.96 1388.98 1665.71 1078.95 1722.48C691.412 1793.44 1298.49 1434.6 999.513 1410.64C700.538 1386.69 735.743 1595.22 674.842 1428.19C626.122 1294.57 672.343 1177.79 701.544 1136.1" stroke="url(#paint12_linear_3217_3842)"/>
<path d="M1301.29 1960.82C1362.32 1851.92 1406.13 1649.33 1093.03 1710.11C701.663 1786.09 1305.73 1423.56 1000.93 1404.81C696.136 1386.05 739.513 1590.5 671.525 1427.26C617.134 1296.68 659.871 1181.12 688.038 1139.67" stroke="url(#paint13_linear_3217_3842)"/>
<path d="M1327.91 1940.84C1385.99 1832.81 1423.14 1632.92 1107.08 1697.7C711.997 1778.68 1312.87 1412.58 1002.34 1399.02C691.818 1385.47 743.354 1585.78 668.3 1426.38C608.256 1298.87 647.494 1184.58 674.619 1143.37" stroke="url(#paint14_linear_3217_3842)"/>
<path d="M1354.42 1920.75C1409.53 1813.6 1440.03 1616.5 1121.09 1685.25C722.414 1771.2 1319.9 1401.63 1003.75 1393.29C687.589 1384.94 747.269 1581.05 665.17 1425.54C599.492 1301.14 635.22 1188.15 661.293 1147.2" stroke="url(#paint15_linear_3217_3842)"/>
<path d="M1380.82 1900.54C1432.95 1794.32 1456.77 1600.04 1135.06 1672.76C732.912 1763.65 1326.84 1390.73 1005.15 1387.59C683.452 1384.46 751.258 1576.3 662.14 1424.73C590.846 1303.48 623.053 1191.82 648.068 1151.15" stroke="url(#paint16_linear_3217_3842)"/>
<path d="M1407.11 1880.23C1456.23 1774.96 1473.38 1583.57 1148.98 1660.22C743.49 1756.03 1333.68 1379.87 1006.55 1381.95C679.411 1384.03 755.321 1571.55 659.212 1423.96C582.325 1305.9 611.001 1195.6 634.95 1155.21" stroke="url(#paint17_linear_3217_3842)"/>
<path d="M1433.27 1859.8C1479.38 1755.51 1489.84 1567.08 1162.87 1647.64C754.148 1748.33 1340.42 1369.05 1007.94 1376.34C675.469 1383.63 759.461 1566.77 656.389 1423.22C573.932 1308.38 599.068 1199.48 621.944 1159.39" stroke="url(#paint18_linear_3217_3842)"/>
<path d="M1459.31 1839.27C1502.38 1736.01 1506.16 1550.59 1176.7 1635.03C764.884 1740.58 1347.05 1358.29 1009.34 1370.79C671.629 1383.29 763.676 1561.99 653.674 1422.51C565.672 1310.93 587.261 1203.47 609.056 1163.68" stroke="url(#paint19_linear_3217_3842)"/>
<path d="M2153.03 1195.11C2103.27 1135.32 1915 1061.74 1560.06 1245.82C1116.37 1475.92 1500.55 1060.35 1059.48 1220.34C618.414 1380.34 928.529 1407.29 635.175 1403.79C400.492 1400.99 317.466 1349.44 305.289 1324.01" stroke="url(#paint20_linear_3217_3842)"/>
<path d="M2172.41 1173.37C2119.65 1115.38 1925.59 1046.07 1571.47 1232.74C1128.81 1466.07 1504.23 1051.34 1061.68 1215.72C619.136 1380.09 935.364 1401.61 637.027 1402.87C398.358 1403.89 312.081 1354.54 298.777 1329.73" stroke="url(#paint21_linear_3217_3842)"/>
<path d="M2191.51 1151.66C2135.76 1095.5 1935.97 1030.47 1582.78 1219.67C1141.28 1456.16 1507.82 1042.41 1063.93 1211.11C620.042 1379.81 942.288 1395.89 639.058 1401.92C396.475 1406.74 306.974 1359.61 292.547 1335.44" stroke="url(#paint22_linear_3217_3842)"/>
<path d="M2210.31 1129.99C2151.59 1075.66 1946.13 1014.93 1593.97 1206.61C1153.78 1446.2 1511.32 1033.54 1066.23 1206.51C621.133 1379.49 949.298 1390.13 641.269 1400.92C394.845 1409.55 302.147 1364.65 286.601 1341.11" stroke="url(#paint23_linear_3217_3842)"/>
<path d="M2228.81 1108.35C2167.15 1055.88 1956.07 999.471 1605.07 1193.56C1166.31 1436.17 1514.75 1024.73 1068.58 1201.93C622.412 1379.13 956.397 1384.33 643.662 1399.88C393.473 1412.31 297.607 1369.65 280.947 1346.77" stroke="url(#paint24_linear_3217_3842)"/>
<path d="M2247.02 1086.75C2182.42 1036.16 1965.8 984.079 1616.05 1180.52C1178.86 1426.08 1518.09 1015.99 1070.98 1197.36C623.88 1378.72 963.584 1378.48 646.237 1398.78C392.359 1415.02 293.353 1374.62 275.584 1352.38" stroke="url(#paint25_linear_3217_3842)"/>
<path d="M2264.92 1065.19C2197.41 1016.49 1975.31 968.763 1626.92 1167.51C1191.43 1415.93 1521.35 1007.32 1073.44 1192.8C625.54 1378.27 970.858 1372.59 648.997 1397.64C391.508 1417.67 289.392 1379.54 270.52 1357.96" stroke="url(#paint26_linear_3217_3842)"/>
<path d="M2282.51 1043.69C2212.12 996.884 1984.6 953.525 1637.67 1154.5C1204.02 1405.73 1524.53 998.712 1075.96 1188.24C627.393 1377.78 978.22 1366.65 651.943 1396.44C390.921 1420.27 285.727 1384.41 265.757 1363.5" stroke="url(#paint27_linear_3217_3842)"/>
<path d="M2299.8 1022.23C2226.53 977.348 1993.67 938.369 1648.32 1141.52C1216.63 1395.47 1527.63 990.171 1078.53 1183.7C629.439 1377.23 985.669 1360.67 655.074 1395.18C390.599 1422.8 282.358 1389.23 261.297 1369" stroke="url(#paint28_linear_3217_3842)"/>
<path d="M2316.77 1000.83C2240.66 957.88 2002.52 923.293 1658.85 1128.56C1229.25 1385.15 1530.65 981.696 1081.17 1179.17C631.682 1376.64 993.205 1354.64 658.395 1393.87C390.546 1425.26 279.292 1394 257.146 1374.45" stroke="url(#paint29_linear_3217_3842)"/>
<path d="M2333.42 979.494C2254.49 938.486 2011.16 908.301 1669.26 1115.62C1241.89 1374.77 1533.6 973.286 1083.86 1174.64C634.121 1375.99 1000.83 1348.56 661.904 1392.5C390.764 1427.66 276.53 1398.71 253.306 1379.84" stroke="url(#paint30_linear_3217_3842)"/>
<path d="M2349.76 958.221C2268.03 919.17 2019.57 893.396 1679.56 1102.7C1254.55 1364.34 1536.47 964.944 1086.61 1170.11C636.758 1375.28 1008.54 1342.43 665.602 1391.07C391.253 1429.98 274.075 1403.35 249.779 1385.17" stroke="url(#paint31_linear_3217_3842)"/>
<path d="M2365.77 937.013C2281.27 899.932 2027.75 878.576 1689.73 1089.81C1267.21 1353.85 1539.26 956.666 1089.43 1165.59C639.595 1374.51 1016.33 1336.26 669.49 1389.58C392.017 1432.23 271.929 1407.93 246.57 1390.44" stroke="url(#paint32_linear_3217_3842)"/>
<path d="M2381.46 915.882C2294.21 880.781 2035.72 863.851 1699.79 1076.94C1279.88 1343.3 1541.99 948.458 1092.31 1161.07C642.632 1373.69 1024.21 1330.04 673.571 1388.02C393.057 1434.4 270.097 1412.44 243.681 1395.65" stroke="url(#paint33_linear_3217_3842)"/>
<path d="M2396.82 894.827C2306.85 861.716 2043.46 849.217 1709.73 1064.1C1292.57 1332.71 1544.63 940.315 1095.25 1156.56C645.87 1372.8 1032.18 1323.77 677.843 1386.39C394.374 1436.49 268.579 1416.87 241.115 1400.79" stroke="url(#paint34_linear_3217_3842)"/>
<path d="M2411.85 873.851C2319.18 842.742 2050.98 834.677 1719.55 1051.29C1305.25 1322.06 1547.21 932.238 1098.26 1152.04C649.312 1371.84 1040.23 1317.44 682.309 1384.7C395.97 1438.5 267.379 1421.22 238.876 1405.86" stroke="url(#paint35_linear_3217_3842)"/>
<path d="M2426.55 852.96C2331.21 823.861 2058.28 820.233 1729.24 1038.51C1317.95 1311.36 1549.72 924.229 1101.34 1147.53C652.958 1370.82 1048.37 1311.07 686.969 1382.93C397.849 1440.42 266.5 1425.49 236.965 1410.84" stroke="url(#paint36_linear_3217_3842)"/>
<path d="M2440.91 832.157C2342.93 805.078 2065.35 805.888 1738.81 1025.76C1330.64 1300.61 1552.16 916.286 1104.48 1143.01C656.807 1369.73 1056.59 1304.64 691.821 1381.09C400.007 1442.24 265.941 1429.68 235.384 1415.75" stroke="url(#paint37_linear_3217_3842)"/>
<path d="M2454.93 811.448C2354.35 786.396 2072.2 791.644 1748.26 1013.05C1343.33 1289.8 1554.53 908.411 1107.7 1138.49C660.862 1368.57 1064.89 1298.17 696.87 1379.17C402.451 1443.98 265.708 1433.77 234.139 1420.57" stroke="url(#paint38_linear_3217_3842)"/>
<path d="M2468.61 790.834C2365.46 767.818 2078.83 777.502 1757.58 1000.37C1356.03 1278.95 1556.84 900.602 1110.98 1133.97C665.124 1367.34 1073.28 1291.64 702.114 1377.18C405.18 1445.62 265.802 1437.78 233.23 1425.3" stroke="url(#paint39_linear_3217_3842)"/>
<path d="M2481.95 770.32C2376.25 749.346 2085.23 763.464 1766.78 987.725C1368.71 1268.05 1559.08 892.859 1114.34 1129.44C669.594 1366.02 1081.75 1285.06 707.554 1375.11C408.196 1447.15 266.225 1441.68 232.66 1429.94" stroke="url(#paint40_linear_3217_3842)"/>
<path d="M2494.95 749.912C2386.73 730.987 2091.41 749.533 1775.85 975.121C1381.4 1257.11 1561.26 885.185 1117.77 1124.91C674.269 1364.64 1090.3 1278.43 713.189 1372.96C411.497 1448.59 266.977 1445.49 232.429 1434.48" stroke="url(#paint41_linear_3217_3842)"/>
<path d="M2507.6 729.607C2396.9 712.736 2097.37 735.706 1784.79 962.551C1394.07 1246.11 1563.38 877.572 1121.27 1120.37C679.155 1363.17 1098.94 1271.74 719.021 1370.73C415.088 1449.92 268.063 1449.19 232.542 1438.92" stroke="url(#paint42_linear_3217_3842)"/>
<path d="M2519.9 709.42C2406.76 694.609 2103.1 721.994 1793.61 950.028C1406.74 1235.07 1565.44 870.032 1124.84 1115.83C684.248 1361.62 1107.65 1265 725.05 1368.42C418.968 1451.15 269.482 1452.78 233 1443.26" stroke="url(#paint43_linear_3217_3842)"/>
<path d="M2531.85 689.344C2416.3 676.597 2108.61 708.39 1802.29 937.543C1419.4 1223.98 1567.44 862.555 1128.49 1111.27C689.551 1359.99 1116.45 1258.21 731.276 1366.01C423.138 1452.26 271.238 1456.26 233.805 1447.49" stroke="url(#paint44_linear_3217_3842)"/>
<path d="M2543.45 669.386C2425.52 658.707 2113.9 694.899 1810.85 925.1C1432.04 1212.85 1569.38 855.143 1132.22 1106.7C695.065 1358.27 1125.32 1251.36 737.7 1363.52C427.6 1453.25 273.331 1459.63 234.959 1451.6" stroke="url(#paint45_linear_3217_3842)"/>
<path d="M2554.7 649.551C2434.43 640.943 2118.96 681.522 1819.28 912.703C1444.67 1201.68 1571.26 847.797 1136.02 1102.13C700.788 1356.46 1134.28 1244.46 744.32 1360.94C432.353 1454.14 275.762 1462.88 236.462 1455.6" stroke="url(#paint46_linear_3217_3842)"/>
<path d="M2565.59 629.842C2443.02 623.308 2123.81 668.262 1827.58 900.352C1457.29 1190.46 1573.09 840.517 1139.91 1097.54C706.721 1354.57 1143.31 1237.5 751.137 1358.28C437.398 1454.9 278.533 1466 238.318 1459.48" stroke="url(#paint47_linear_3217_3842)"/>
<path d="M2576.13 610.263C2451.29 605.805 2128.43 655.12 1835.74 888.048C1469.88 1179.21 1574.87 833.303 1143.87 1092.94C712.866 1352.58 1152.42 1230.48 758.152 1355.51C442.736 1455.54 281.645 1469 240.527 1463.23" stroke="url(#paint48_linear_3217_3842)"/>
<path d="M2586.31 590.818C2459.24 588.437 2132.83 642.098 1843.78 875.792C1482.46 1167.91 1576.59 826.154 1147.91 1088.33C719.222 1350.5 1161.61 1223.41 765.364 1352.66C448.367 1456.06 285.1 1471.88 243.091 1466.86" stroke="url(#paint49_linear_3217_3842)"/>
<path d="M2596.14 571.506C2466.88 571.203 2137.02 629.194 1851.68 863.584C1495.02 1156.57 1578.27 819.068 1152.03 1083.7C725.788 1348.32 1170.87 1216.28 772.773 1349.71C454.292 1456.44 288.898 1474.62 246.011 1470.36" stroke="url(#paint50_linear_3217_3842)"/>
<path d="M2605.6 552.338C2474.19 554.113 2140.98 616.416 1859.46 851.43C1507.55 1145.2 1579.89 812.049 1156.23 1079.05C732.565 1346.05 1180.21 1209.1 780.378 1346.66C460.51 1456.7 293.04 1477.22 249.288 1473.73" stroke="url(#paint51_linear_3217_3842)"/>
<path d="M2614.71 533.311C2481.18 537.163 2144.73 603.76 1867.09 839.327C1520.05 1133.79 1581.47 805.093 1160.51 1074.39C739.554 1343.68 1189.63 1201.86 788.18 1343.51C467.023 1456.83 297.527 1479.69 252.924 1476.95" stroke="url(#paint52_linear_3217_3842)"/>
<path d="M2623.45 514.431C2487.86 520.36 2148.26 591.229 1874.6 827.277C1532.53 1122.34 1583 798.201 1164.88 1069.71C746.753 1341.21 1199.11 1194.56 796.178 1340.26C473.828 1456.82 302.359 1482.02 256.918 1480.04" stroke="url(#paint53_linear_3217_3842)"/>
<path d="M2631.84 495.703C2494.21 503.706 2151.57 578.827 1881.98 815.284C1544.98 1110.86 1584.49 791.374 1169.33 1065.01C754.163 1338.64 1208.67 1187.21 804.371 1336.92C480.928 1456.68 307.537 1484.2 261.272 1482.99" stroke="url(#paint54_linear_3217_3842)"/>
<path d="M2639.86 477.126C2500.25 487.201 2154.67 566.55 1889.22 803.344C1557.41 1099.34 1585.94 784.608 1173.86 1060.29C761.783 1335.96 1218.31 1179.8 812.76 1333.46C488.322 1456.4 313.062 1486.23 265.987 1485.78" stroke="url(#paint55_linear_3217_3842)"/>
<path d="M2647.52 458.706C2505.97 470.851 2157.55 554.404 1896.33 791.463C1569.79 1087.79 1587.35 777.906 1178.48 1055.55C769.614 1333.18 1228.01 1172.33 821.344 1329.91C496.01 1455.97 318.935 1488.11 271.064 1488.42" stroke="url(#paint56_linear_3217_3842)"/>
<path d="M2654.82 440.446C2511.36 454.656 2160.22 542.388 1903.3 779.64C1582.15 1076.2 1588.71 771.266 1183.18 1050.78C777.654 1330.3 1237.79 1164.8 830.121 1326.25C503.99 1455.4 325.153 1489.84 276.502 1490.92" stroke="url(#paint57_linear_3217_3842)"/>
<path d="M2661.76 422.348C2516.44 438.618 2162.68 530.503 1910.14 767.875C1594.47 1064.59 1590.04 764.688 1187.97 1045.99C785.904 1327.3 1247.63 1157.22 839.092 1322.48C512.263 1454.69 331.719 1491.41 282.301 1493.25" stroke="url(#paint58_linear_3217_3842)"/>
<path d="M2668.33 404.417C2521.2 422.743 2164.93 518.752 1916.85 756.172C1606.75 1052.95 1591.33 758.172 1192.85 1041.18C794.363 1324.2 1257.54 1149.58 848.256 1318.6C520.828 1453.82 338.633 1492.82 288.464 1495.42" stroke="url(#paint59_linear_3217_3842)"/>
<path d="M2674.54 386.653C2525.65 407.03 2166.97 507.133 1923.42 744.529C1618.99 1041.28 1592.59 751.715 1197.81 1036.35C803.031 1320.98 1267.52 1141.87 857.613 1314.61C529.686 1452.8 345.895 1494.07 294.99 1497.43" stroke="url(#paint60_linear_3217_3842)"/>
<path d="M2680.39 369.064C2529.77 391.485 2168.8 495.653 1929.87 732.953C1631.2 1029.58 1593.82 745.323 1202.86 1031.49C811.906 1317.65 1277.57 1134.12 867.159 1310.52C538.834 1451.64 353.502 1495.16 301.877 1499.28" stroke="url(#paint61_linear_3217_3842)"/>
<path d="M2685.88 351.645C2533.58 376.104 2170.43 484.304 1936.17 721.436C1643.35 1017.85 1595.01 738.986 1208 1026.6C820.988 1314.21 1287.68 1126.3 876.896 1306.31C548.272 1450.31 361.456 1496.07 309.126 1500.95" stroke="url(#paint62_linear_3217_3842)"/>
<path d="M2691 334.409C2537.08 360.897 2171.85 473.097 1942.35 709.988C1655.47 1006.1 1596.18 732.713 1213.23 1021.68C830.277 1310.65 1297.85 1118.42 886.824 1301.99C558.001 1448.83 369.758 1496.82 316.739 1502.45" stroke="url(#paint63_linear_3217_3842)"/>
<path d="M2695.77 317.347C2540.26 345.858 2173.07 462.023 1948.39 698.6C1667.54 994.322 1597.32 726.494 1218.55 1016.73C839.773 1306.97 1308.09 1110.49 896.94 1297.55C568.019 1447.19 378.406 1497.38 324.715 1503.77" stroke="url(#paint64_linear_3217_3842)"/>
<path d="M2700.17 300.472C2543.13 330.996 2174.09 451.091 1954.3 687.283C1679.56 982.523 1598.43 720.337 1223.95 1011.75C849.472 1303.17 1318.39 1102.5 907.243 1292.99C578.324 1445.39 387.399 1497.78 333.051 1504.92" stroke="url(#paint65_linear_3217_3842)"/>
<path d="M2704.22 283.783C2545.68 316.311 2174.9 440.3 1960.07 676.035C1691.54 970.703 1599.52 714.238 1229.45 1006.75C859.376 1299.26 1328.75 1094.44 917.732 1288.32C588.915 1443.43 396.736 1497.99 341.749 1505.89" stroke="url(#paint66_linear_3217_3842)"/>
<path d="M2707.9 267.284C2547.93 301.806 2175.52 429.65 1965.72 664.856C1703.46 958.864 1600.59 708.197 1235.03 1001.71C869.482 1295.23 1339.17 1086.34 928.406 1283.54C599.792 1441.3 406.418 1498.03 350.808 1506.67" stroke="url(#paint67_linear_3217_3842)"/>
<path d="M2711.23 250.973C2549.86 287.478 2175.95 419.14 1971.23 653.745C1715.33 947.002 1601.63 702.211 1240.71 996.639C879.79 1291.07 1349.65 1078.17 939.264 1278.63C610.951 1439 416.441 1497.88 360.225 1507.27" stroke="url(#paint68_linear_3217_3842)"/>
<path d="M2714.2 234.857C2551.49 273.334 2176.18 408.772 1976.61 642.705C1727.15 935.122 1602.66 696.281 1246.48 991.534C890.299 1286.79 1360.19 1069.94 950.305 1273.61C622.395 1436.54 426.807 1497.54 370.002 1507.67" stroke="url(#paint69_linear_3217_3842)"/>
<path d="M2716.81 218.936C2552.81 259.374 2176.22 398.548 1981.86 631.738C1738.91 923.225 1603.66 690.407 1252.34 986.394C901.008 1282.38 1370.79 1061.66 961.528 1268.46C634.12 1433.91 437.515 1497.01 380.138 1507.89" stroke="url(#paint70_linear_3217_3842)"/>
<path d="M988.595 2208.14C891.18 2091.21 762.89 1859.24 1029.06 1866.83C1361.77 1876.33 733.182 1569.89 955.736 1484.58C1178.29 1399.26 1241.28 1651.46 1216.31 1443.2C1196.33 1276.6 1109.68 1147.96 1068.85 1104.47" stroke="url(#paint71_linear_3217_3842)"/>
<path d="M961.174 2190.02C866.401 2073.5 744.431 1843.38 1014.73 1855.11C1352.6 1869.79 724.763 1558.43 954.106 1478.12C1183.45 1397.82 1238.3 1646.77 1220.49 1441.63C1206.25 1277.51 1122.85 1149.65 1082.93 1106.24" stroke="url(#paint72_linear_3217_3842)"/>
<path d="M933.776 2171.74C841.676 2055.65 726.062 1827.46 1000.41 1843.33C1343.33 1863.18 716.439 1547 952.502 1471.73C1188.56 1396.45 1235.26 1642.09 1224.63 1440.12C1216.12 1278.54 1135.99 1151.5 1096.99 1108.17" stroke="url(#paint73_linear_3217_3842)"/>
<path d="M906.409 2153.29C817.009 2037.69 707.787 1811.49 986.094 1831.49C1333.98 1856.5 708.213 1535.61 950.923 1465.39C1193.63 1395.16 1232.16 1637.41 1228.7 1438.67C1225.94 1279.68 1149.11 1153.5 1111.04 1110.28" stroke="url(#paint74_linear_3217_3842)"/>
<path d="M879.079 2134.69C792.407 2019.61 689.609 1795.47 971.795 1819.6C1324.53 1849.76 700.083 1524.24 949.367 1459.1C1198.65 1393.95 1229 1632.73 1232.72 1437.29C1235.69 1280.93 1162.18 1155.64 1125.06 1112.54" stroke="url(#paint75_linear_3217_3842)"/>
<path d="M851.792 2115.94C767.874 2001.4 671.533 1779.39 957.511 1807.64C1314.98 1842.96 692.052 1512.91 947.833 1452.86C1203.61 1392.81 1225.78 1628.05 1236.67 1435.96C1245.38 1282.29 1175.22 1157.93 1139.04 1114.97" stroke="url(#paint76_linear_3217_3842)"/>
<path d="M824.554 2097.04C743.416 1983.09 653.56 1763.27 943.245 1795.63C1305.35 1836.08 684.118 1501.61 946.319 1446.68C1208.52 1391.74 1222.49 1623.37 1240.55 1434.7C1255 1283.76 1188.2 1160.37 1152.99 1117.54" stroke="url(#paint77_linear_3217_3842)"/>
<path d="M797.372 2077.99C719.038 1964.66 635.696 1747.11 928.998 1783.57C1295.63 1829.15 676.283 1490.35 944.823 1440.54C1213.36 1390.74 1219.13 1618.69 1244.36 1433.49C1264.54 1285.32 1201.13 1162.94 1166.9 1120.28" stroke="url(#paint78_linear_3217_3842)"/>
<path d="M770.251 2058.8C694.745 1946.12 617.941 1730.9 914.771 1771.45C1285.81 1822.14 668.545 1479.12 943.344 1434.46C1218.14 1389.81 1215.71 1614.01 1248.1 1432.33C1274.01 1286.99 1214 1165.65 1180.75 1123.16" stroke="url(#paint79_linear_3217_3842)"/>
<path d="M743.199 2039.47C670.544 1927.48 600.302 1714.66 900.57 1759.28C1275.9 1815.07 660.908 1467.93 941.881 1428.43C1222.85 1388.93 1212.22 1609.32 1251.76 1431.22C1283.39 1288.74 1226.8 1168.49 1194.55 1126.18" stroke="url(#paint80_linear_3217_3842)"/>
<path d="M716.222 2020C646.44 1908.73 582.781 1698.38 886.395 1747.06C1265.91 1807.93 653.37 1456.78 940.432 1422.45C1227.49 1388.13 1208.66 1604.62 1255.34 1430.16C1292.67 1290.59 1239.52 1171.47 1208.28 1129.35" stroke="url(#paint81_linear_3217_3842)"/>
<path d="M689.324 2000.4C622.437 1889.89 565.38 1682.06 872.248 1734.8C1255.83 1800.72 645.931 1445.67 938.994 1416.52C1232.06 1387.38 1205.04 1599.92 1258.83 1429.15C1301.87 1292.54 1252.17 1174.56 1221.95 1132.66" stroke="url(#paint82_linear_3217_3842)"/>
<path d="M662.513 1980.67C598.541 1870.96 548.105 1665.71 858.133 1722.48C1245.67 1793.44 638.592 1434.6 937.567 1410.64C1236.54 1386.69 1201.34 1595.22 1262.24 1428.19C1310.96 1294.57 1264.74 1177.79 1235.54 1136.1" stroke="url(#paint83_linear_3217_3842)"/>
<path d="M635.794 1960.82C574.757 1851.92 530.956 1649.33 844.05 1710.11C1235.42 1786.09 631.353 1423.56 936.149 1404.81C1240.94 1386.05 1197.57 1590.5 1265.56 1427.26C1319.95 1296.68 1277.21 1181.12 1249.04 1139.67" stroke="url(#paint84_linear_3217_3842)"/>
<path d="M609.175 1940.84C551.091 1832.81 513.938 1632.92 830.003 1697.7C1225.08 1778.68 624.214 1412.58 934.738 1399.02C1245.26 1385.47 1193.73 1585.78 1268.78 1426.38C1328.82 1298.87 1289.59 1184.58 1262.46 1143.37" stroke="url(#paint85_linear_3217_3842)"/>
<path d="M582.661 1920.75C527.547 1813.6 497.055 1616.5 815.993 1685.25C1214.67 1771.2 617.176 1401.63 933.334 1393.29C1249.49 1384.94 1189.81 1581.05 1271.91 1425.54C1337.59 1301.14 1301.86 1188.15 1275.79 1147.2" stroke="url(#paint86_linear_3217_3842)"/>
<path d="M556.258 1900.54C504.132 1794.32 480.308 1600.04 802.024 1672.76C1204.17 1763.65 610.239 1390.73 931.933 1387.59C1253.63 1384.46 1185.82 1576.3 1274.94 1424.73C1346.23 1303.48 1314.03 1191.82 1289.01 1151.15" stroke="url(#paint87_linear_3217_3842)"/>
<path d="M529.971 1880.23C480.848 1774.96 463.701 1583.57 788.096 1660.22C1193.59 1756.03 603.401 1379.87 930.535 1381.95C1257.67 1384.03 1181.76 1571.55 1277.87 1423.96C1354.76 1305.9 1326.08 1195.6 1302.13 1155.21" stroke="url(#paint88_linear_3217_3842)"/>
<path d="M503.808 1859.8C457.703 1755.51 447.238 1567.08 774.213 1647.64C1182.93 1748.33 596.664 1369.05 929.138 1376.34C1261.61 1383.63 1177.62 1566.77 1280.69 1423.22C1363.15 1308.38 1338.01 1199.48 1315.14 1159.39" stroke="url(#paint89_linear_3217_3842)"/>
<path d="M477.773 1839.27C434.701 1736.01 430.921 1550.59 760.377 1635.03C1172.2 1740.58 590.028 1358.29 927.74 1370.79C1265.45 1383.29 1173.4 1561.99 1283.41 1422.51C1371.41 1310.93 1349.82 1203.47 1328.03 1163.68" stroke="url(#paint90_linear_3217_3842)"/>
<path d="M-215.948 1195.11C-166.186 1135.32 22.0758 1061.74 377.025 1245.82C820.711 1475.92 436.532 1060.35 877.599 1220.34C1318.67 1380.34 1008.55 1407.29 1301.91 1403.79C1536.59 1400.99 1619.61 1349.44 1631.79 1324.01" stroke="url(#paint91_linear_3217_3842)"/>
<path d="M-235.331 1173.37C-182.569 1115.38 11.487 1046.07 365.612 1232.74C808.268 1466.07 432.854 1051.34 875.399 1215.72C1317.94 1380.09 1001.72 1401.61 1300.05 1402.87C1538.72 1403.89 1625 1354.54 1638.3 1329.73" stroke="url(#paint92_linear_3217_3842)"/>
<path d="M-254.425 1151.66C-198.679 1095.5 1.11213 1030.47 354.305 1219.67C795.796 1456.16 429.263 1042.41 873.151 1211.11C1317.04 1379.81 994.793 1395.89 1298.02 1401.92C1540.61 1406.74 1630.11 1359.61 1644.53 1335.44" stroke="url(#paint93_linear_3217_3842)"/>
<path d="M-273.225 1129.99C-214.512 1075.66 -9.04707 1014.93 343.106 1206.61C783.298 1446.2 425.756 1033.54 870.852 1206.51C1315.95 1379.49 987.782 1390.13 1295.81 1400.92C1542.24 1409.55 1634.93 1364.65 1650.48 1341.11" stroke="url(#paint94_linear_3217_3842)"/>
<path d="M-291.73 1108.35C-230.068 1055.88 -18.9916 999.471 332.015 1193.56C770.773 1436.17 422.332 1024.73 868.5 1201.93C1314.67 1379.13 980.683 1384.33 1293.42 1399.88C1543.61 1412.31 1639.47 1369.65 1656.13 1346.77" stroke="url(#paint95_linear_3217_3842)"/>
<path d="M-309.935 1086.75C-245.342 1036.16 -28.7186 984.079 321.034 1180.52C758.225 1426.08 418.991 1015.99 866.096 1197.36C1313.2 1378.72 973.497 1378.48 1290.84 1398.78C1544.72 1415.02 1643.73 1374.62 1661.5 1352.38" stroke="url(#paint96_linear_3217_3842)"/>
<path d="M-327.837 1065.19C-260.333 1016.49 -38.2284 968.763 310.164 1167.51C745.655 1415.93 415.731 1007.32 863.636 1192.8C1311.54 1378.27 966.222 1372.59 1288.08 1397.64C1545.57 1417.67 1647.69 1379.54 1666.56 1357.96" stroke="url(#paint97_linear_3217_3842)"/>
<path d="M-345.432 1043.69C-275.039 996.884 -47.5199 953.525 299.406 1154.5C733.064 1405.73 412.551 998.712 861.119 1188.24C1309.69 1377.78 958.86 1366.65 1285.14 1396.44C1546.16 1420.27 1651.35 1384.41 1671.32 1363.5" stroke="url(#paint98_linear_3217_3842)"/>
<path d="M-362.716 1022.23C-289.454 977.348 -56.5912 938.369 288.763 1141.52C720.455 1395.47 409.451 990.171 858.546 1183.7C1307.64 1377.23 951.412 1360.67 1282.01 1395.18C1546.48 1422.8 1654.72 1389.23 1675.78 1369" stroke="url(#paint99_linear_3217_3842)"/>
<path d="M-379.689 1000.83C-303.58 957.88 -65.4437 923.293 278.233 1128.56C707.829 1385.15 406.427 981.696 855.913 1179.17C1305.4 1376.64 943.875 1354.64 1278.69 1393.87C1546.53 1425.26 1657.79 1394 1679.93 1374.45" stroke="url(#paint100_linear_3217_3842)"/>
<path d="M-396.344 979.494C-317.412 938.486 -74.0749 908.301 267.82 1115.62C695.188 1374.77 403.481 973.286 853.22 1174.64C1302.96 1375.99 936.252 1348.56 1275.18 1392.5C1546.32 1427.66 1660.55 1398.71 1683.77 1379.84" stroke="url(#paint101_linear_3217_3842)"/>
<path d="M-412.679 958.221C-330.949 919.17 -82.4846 893.396 257.524 1102.7C682.535 1364.34 400.612 964.944 850.467 1170.11C1300.32 1375.28 928.543 1342.43 1271.48 1391.07C1545.83 1429.98 1663.01 1403.35 1687.3 1385.17" stroke="url(#paint102_linear_3217_3842)"/>
<path d="M-428.693 937.013C-344.188 899.932 -90.6726 878.576 247.346 1089.81C669.87 1353.85 397.817 956.666 847.651 1165.59C1297.49 1374.51 920.748 1336.26 1267.59 1389.58C1545.06 1432.23 1665.15 1407.93 1690.51 1390.44" stroke="url(#paint103_linear_3217_3842)"/>
<path d="M-444.381 915.882C-357.127 880.781 -98.6382 863.851 237.288 1076.94C657.196 1343.3 395.095 948.458 844.772 1161.07C1294.45 1373.69 912.867 1330.04 1263.51 1388.02C1544.02 1434.4 1666.98 1412.44 1693.4 1395.65" stroke="url(#paint104_linear_3217_3842)"/>
<path d="M-459.741 894.827C-369.765 861.716 -106.381 849.217 227.35 1064.1C644.514 1332.71 392.446 940.315 841.828 1156.56C1291.21 1372.8 904.9 1323.77 1259.24 1386.39C1542.71 1436.49 1668.5 1416.87 1695.97 1400.79" stroke="url(#paint105_linear_3217_3842)"/>
<path d="M-474.77 873.851C-382.1 842.742 -113.901 834.677 217.533 1051.29C631.827 1322.06 389.867 932.238 838.818 1152.04C1287.77 1371.84 896.849 1317.44 1254.77 1384.7C1541.11 1438.5 1669.7 1421.22 1698.21 1405.86" stroke="url(#paint106_linear_3217_3842)"/>
<path d="M-489.467 852.96C-394.131 823.861 -121.199 820.233 207.838 1038.51C619.134 1311.36 387.358 924.229 835.74 1147.53C1284.12 1370.82 888.712 1311.07 1250.11 1382.93C1539.23 1440.42 1670.58 1425.49 1700.12 1410.84" stroke="url(#paint107_linear_3217_3842)"/>
<path d="M-503.827 832.157C-405.853 805.078 -128.271 805.888 198.268 1025.76C606.442 1300.61 384.919 916.286 832.597 1143.01C1280.27 1369.73 880.492 1304.64 1245.26 1381.09C1537.07 1442.24 1671.14 1429.68 1701.7 1415.75" stroke="url(#paint108_linear_3217_3842)"/>
<path d="M-517.85 811.448C-417.269 786.396 -135.121 791.644 188.821 1013.05C593.748 1289.8 382.546 908.411 829.382 1138.49C1276.22 1368.57 872.188 1298.17 1240.21 1379.17C1534.63 1443.98 1671.37 1433.77 1702.94 1420.57" stroke="url(#paint109_linear_3217_3842)"/>
<path d="M-531.533 790.834C-428.375 767.818 -141.748 777.502 179.498 1000.37C581.055 1278.95 380.239 900.602 826.098 1133.97C1271.96 1367.34 863.8 1291.64 1234.97 1377.18C1531.9 1445.62 1671.28 1437.78 1703.85 1425.3" stroke="url(#paint110_linear_3217_3842)"/>
<path d="M-544.873 770.32C-439.17 749.346 -148.151 763.464 170.301 987.725C568.366 1268.05 377.996 892.859 822.742 1129.44C1267.49 1366.02 855.329 1285.06 1229.53 1375.11C1528.88 1447.15 1670.86 1441.68 1704.42 1429.94" stroke="url(#paint111_linear_3217_3842)"/>
<path d="M-557.869 749.912C-449.653 730.987 -154.33 749.533 161.231 975.121C555.683 1257.11 375.817 885.185 819.314 1124.91C1262.81 1364.64 846.777 1278.43 1223.89 1372.96C1525.58 1448.59 1670.1 1445.49 1704.65 1434.48" stroke="url(#paint112_linear_3217_3842)"/>
<path d="M-570.519 729.607C-459.823 712.736 -160.286 735.706 152.288 962.551C543.006 1246.11 373.699 877.572 815.813 1120.37C1257.93 1363.17 838.143 1271.74 1218.06 1370.73C1521.99 1449.92 1669.02 1449.19 1704.54 1438.92" stroke="url(#paint113_linear_3217_3842)"/>
<path d="M-582.82 709.42C-469.677 694.609 -166.019 721.994 143.474 950.028C530.339 1235.07 371.643 870.032 812.238 1115.83C1252.83 1361.62 829.428 1265 1212.03 1368.42C1518.11 1451.15 1667.6 1452.78 1704.08 1443.26" stroke="url(#paint114_linear_3217_3842)"/>
<path d="M-594.772 689.344C-479.217 676.597 -171.529 708.39 134.787 937.543C517.682 1223.98 369.645 862.555 808.587 1111.27C1247.53 1359.99 820.633 1258.21 1205.8 1366.01C1513.94 1452.26 1665.84 1456.26 1703.28 1447.49" stroke="url(#paint115_linear_3217_3842)"/>
<path d="M-606.373 669.386C-488.441 658.707 -176.817 694.899 126.23 925.1C505.037 1212.85 367.704 855.143 804.86 1106.7C1242.02 1358.27 811.757 1251.36 1199.38 1363.52C1509.48 1453.25 1663.75 1459.63 1702.12 1451.6" stroke="url(#paint116_linear_3217_3842)"/>
<path d="M-617.62 649.551C-497.348 640.943 -181.882 681.522 117.802 912.703C492.407 1201.68 365.82 847.797 801.057 1102.13C1236.29 1356.46 802.803 1244.46 1192.76 1360.94C1504.73 1454.14 1661.32 1462.88 1700.62 1455.6" stroke="url(#paint117_linear_3217_3842)"/>
<path d="M-628.514 629.842C-505.937 623.308 -186.726 668.262 109.504 900.352C479.793 1190.46 363.991 840.517 797.175 1097.54C1230.36 1354.57 793.77 1237.5 1185.94 1358.28C1499.68 1454.9 1658.55 1466 1698.76 1459.48" stroke="url(#paint118_linear_3217_3842)"/>
<path d="M-639.053 610.263C-514.209 605.805 -191.35 655.12 101.337 888.048C467.196 1179.21 362.214 833.303 793.214 1092.94C1224.21 1352.58 784.659 1230.48 1178.93 1355.51C1494.34 1455.54 1655.44 1469 1696.55 1463.23" stroke="url(#paint119_linear_3217_3842)"/>
<path d="M-649.234 590.818C-522.161 588.437 -195.753 642.098 93.3016 875.792C454.62 1167.91 360.489 826.154 789.174 1088.33C1217.86 1350.5 775.471 1223.41 1171.72 1352.66C1488.71 1456.06 1651.98 1471.88 1693.99 1466.86" stroke="url(#paint120_linear_3217_3842)"/>
<path d="M-659.058 571.506C-529.795 571.203 -199.936 629.194 85.3973 863.584C442.064 1156.57 358.814 819.068 785.053 1083.7C1211.29 1348.32 766.207 1216.28 1164.31 1349.71C1482.79 1456.44 1648.18 1474.62 1691.07 1470.36" stroke="url(#paint121_linear_3217_3842)"/>
<path d="M-668.522 552.338C-537.109 554.113 -203.901 616.416 77.6255 851.43C429.533 1145.2 357.189 812.049 780.852 1079.05C1204.52 1346.05 756.868 1209.1 1156.7 1346.66C1476.57 1456.7 1644.04 1477.22 1687.79 1473.73" stroke="url(#paint122_linear_3217_3842)"/>
<path d="M-677.628 533.311C-544.103 537.163 -207.647 603.76 69.9856 839.327C417.026 1133.79 355.61 805.093 776.569 1074.39C1197.53 1343.68 747.454 1201.86 1148.9 1343.51C1470.06 1456.83 1639.55 1479.69 1684.16 1476.95" stroke="url(#paint123_linear_3217_3842)"/>
<path d="M-686.372 514.431C-550.778 520.36 -211.176 591.229 62.4787 827.277C404.547 1122.34 354.077 798.201 772.203 1069.71C1190.33 1341.21 737.966 1194.56 1140.9 1340.26C1463.25 1456.82 1634.72 1482.02 1680.16 1480.04" stroke="url(#paint124_linear_3217_3842)"/>
<path d="M-694.756 495.703C-557.133 503.706 -214.489 578.827 55.1042 815.284C392.096 1110.86 352.588 791.374 767.753 1065.01C1182.92 1338.64 728.406 1187.21 1132.71 1336.92C1456.15 1456.68 1629.54 1484.2 1675.81 1482.99" stroke="url(#paint125_linear_3217_3842)"/>
<path d="M-702.779 477.126C-563.169 487.201 -217.587 566.55 47.8631 803.344C379.675 1099.34 351.142 784.608 763.22 1060.29C1175.3 1335.96 718.773 1179.8 1124.32 1333.46C1448.76 1456.4 1624.02 1486.23 1671.09 1485.78" stroke="url(#paint126_linear_3217_3842)"/>
<path d="M-710.44 458.706C-568.886 470.851 -220.471 554.404 40.7544 791.463C367.286 1087.79 349.735 777.906 758.601 1055.55C1167.47 1333.18 709.069 1172.33 1115.74 1329.91C1441.07 1455.97 1618.15 1488.11 1666.02 1488.42" stroke="url(#paint127_linear_3217_3842)"/>
<path d="M-717.738 440.446C-574.283 454.656 -223.141 542.388 33.7799 779.64C354.932 1076.2 348.369 771.266 753.898 1050.78C1159.43 1330.3 699.295 1164.8 1106.96 1326.25C1433.09 1455.4 1611.93 1489.84 1660.58 1490.92" stroke="url(#paint128_linear_3217_3842)"/>
<path d="M-724.675 422.348C-579.362 438.618 -225.601 530.503 26.9384 767.875C342.612 1064.59 347.04 764.688 749.108 1045.99C1151.18 1327.3 689.452 1157.22 1097.99 1322.48C1424.82 1454.69 1605.36 1491.41 1654.78 1493.25" stroke="url(#paint129_linear_3217_3842)"/>
<path d="M-731.248 404.417C-584.122 422.743 -227.85 518.752 20.2305 756.172C330.331 1052.95 345.747 758.172 744.232 1041.18C1142.72 1324.2 679.54 1149.58 1088.82 1318.6C1416.25 1453.82 1598.45 1492.82 1648.62 1495.42" stroke="url(#paint130_linear_3217_3842)"/>
<path d="M-737.46 386.653C-588.565 407.03 -229.89 507.133 13.6556 744.529C318.087 1041.28 344.487 751.715 739.268 1036.35C1134.05 1320.98 669.56 1141.87 1079.47 1314.61C1407.39 1452.8 1591.19 1494.07 1642.09 1497.43" stroke="url(#paint131_linear_3217_3842)"/>
<path d="M-743.309 369.064C-592.691 391.485 -231.722 495.653 7.21487 732.953C305.885 1029.58 343.262 745.323 734.218 1031.49C1125.17 1317.65 659.515 1134.12 1069.92 1310.52C1398.25 1451.64 1583.58 1495.16 1635.2 1499.28" stroke="url(#paint132_linear_3217_3842)"/>
<path d="M-748.796 351.645C-596.501 376.104 -233.348 484.304 0.907319 721.436C293.726 1017.85 342.067 738.986 729.08 1026.6C1116.09 1314.21 649.405 1126.3 1060.18 1306.31C1388.81 1450.31 1575.62 1496.07 1627.95 1500.95" stroke="url(#paint133_linear_3217_3842)"/>
<path d="M-753.922 334.409C-599.996 360.897 -234.769 473.097 -5.26732 709.988C281.61 1006.1 340.901 732.713 723.852 1021.68C1106.8 1310.65 639.229 1118.42 1050.26 1301.99C1379.08 1448.83 1567.32 1496.82 1620.34 1502.45" stroke="url(#paint134_linear_3217_3842)"/>
<path d="M-758.687 317.347C-603.177 345.858 -235.988 462.023 -11.3093 698.6C269.539 994.322 339.762 726.494 718.535 1016.73C1097.31 1306.97 628.99 1110.49 1040.14 1297.55C1369.06 1447.19 1558.67 1497.38 1612.37 1503.77" stroke="url(#paint135_linear_3217_3842)"/>
<path d="M-763.091 300.472C-606.045 330.996 -237.006 451.091 -17.2181 687.283C257.516 982.523 338.649 720.337 713.129 1011.75C1087.61 1303.17 618.689 1102.5 1029.84 1292.99C1358.76 1445.39 1549.68 1497.78 1604.03 1504.92" stroke="url(#paint136_linear_3217_3842)"/>
<path d="M-767.135 283.783C-608.6 316.311 -237.823 440.3 -22.994 676.035C245.543 970.703 337.561 714.238 707.633 1006.75C1077.7 1299.26 608.327 1094.44 1019.35 1288.32C1348.17 1443.43 1540.34 1497.99 1595.33 1505.89" stroke="url(#paint137_linear_3217_3842)"/>
<path d="M-770.82 267.284C-610.845 301.806 -238.443 429.65 -28.6373 664.856C233.62 958.864 336.496 708.197 702.047 1001.71C1067.6 1295.23 597.906 1086.34 1008.67 1283.54C1337.29 1441.3 1530.66 1498.03 1586.27 1506.67" stroke="url(#paint138_linear_3217_3842)"/>
<path d="M-774.147 250.973C-612.78 287.478 -238.867 419.14 -34.1487 653.745C221.749 947.002 335.451 702.211 696.371 996.639C1057.29 1291.07 587.426 1078.17 997.817 1278.63C1326.13 1439 1520.64 1497.88 1576.86 1507.27" stroke="url(#paint139_linear_3217_3842)"/>
<path d="M-777.118 234.857C-614.408 273.334 -239.097 408.772 -39.529 642.705C209.931 935.122 334.425 696.281 690.603 991.534C1046.78 1286.79 576.888 1069.94 986.775 1273.61C1314.69 1436.54 1510.27 1497.54 1567.08 1507.67" stroke="url(#paint140_linear_3217_3842)"/>
<path d="M-779.732 218.936C-615.729 259.374 -239.135 398.548 -44.7778 631.738C198.169 923.225 333.416 690.407 684.745 986.394C1036.07 1282.38 566.293 1061.66 975.553 1268.46C1302.96 1433.91 1499.57 1497.01 1556.94 1507.89" stroke="url(#paint141_linear_3217_3842)"/>
<defs>
<linearGradient id="paint0_linear_3217_3842" x1="1037.1" y1="1593.88" x2="729.856" y2="1630.31" gradientUnits="userSpaceOnUse">
<stop stop-color="#037159"/>
<stop offset="1" stop-color="#F9AF7C"/>
</linearGradient>
<linearGradient id="paint1_linear_3217_3842" x1="1043.63" y1="1584.7" x2="734.03" y2="1634.2" gradientUnits="userSpaceOnUse">
<stop stop-color="#037159"/>
<stop offset="1" stop-color="#F9AF7C"/>
</linearGradient>
<linearGradient id="paint2_linear_3217_3842" x1="1050.12" y1="1575.53" x2="739.113" y2="1638.63" gradientUnits="userSpaceOnUse">
<stop stop-color="#037159"/>
<stop offset="1" stop-color="#F9AF7C"/>
</linearGradient>
<linearGradient id="paint3_linear_3217_3842" x1="1056.56" y1="1566.39" x2="745.199" y2="1643.49" gradientUnits="userSpaceOnUse">
<stop stop-color="#037159"/>
<stop offset="1" stop-color="#F9AF7C"/>
</linearGradient>
<linearGradient id="paint4_linear_3217_3842" x1="1062.96" y1="1557.27" x2="752.367" y2="1648.66" gradientUnits="userSpaceOnUse">
<stop stop-color="#037159"/>
<stop offset="1" stop-color="#F9AF7C"/>
</linearGradient>
<linearGradient id="paint5_linear_3217_3842" x1="1069.31" y1="1548.17" x2="760.678" y2="1654" gradientUnits="userSpaceOnUse">
<stop stop-color="#037159"/>
<stop offset="1" stop-color="#F9AF7C"/>
</linearGradient>
<linearGradient id="paint6_linear_3217_3842" x1="1075.62" y1="1539.09" x2="770.172" y2="1659.38" gradientUnits="userSpaceOnUse">
<stop stop-color="#037159"/>
<stop offset="1" stop-color="#F9AF7C"/>
</linearGradient>
<linearGradient id="paint7_linear_3217_3842" x1="1081.89" y1="1530.04" x2="780.864" y2="1664.62" gradientUnits="userSpaceOnUse">
<stop stop-color="#037159"/>
<stop offset="1" stop-color="#F9AF7C"/>
</linearGradient>
<linearGradient id="paint8_linear_3217_3842" x1="1088.11" y1="1521.02" x2="792.742" y2="1669.57" gradientUnits="userSpaceOnUse">
<stop stop-color="#037159"/>
<stop offset="1" stop-color="#F9AF7C"/>
</linearGradient>
<linearGradient id="paint9_linear_3217_3842" x1="1094.28" y1="1512.01" x2="805.763" y2="1674.06" gradientUnits="userSpaceOnUse">
<stop stop-color="#037159"/>
<stop offset="1" stop-color="#F9AF7C"/>
</linearGradient>
<linearGradient id="paint10_linear_3217_3842" x1="1100.41" y1="1503.03" x2="819.86" y2="1677.96" gradientUnits="userSpaceOnUse">
<stop stop-color="#037159"/>
<stop offset="1" stop-color="#F9AF7C"/>
</linearGradient>
<linearGradient id="paint11_linear_3217_3842" x1="1106.5" y1="1494.08" x2="834.939" y2="1681.11" gradientUnits="userSpaceOnUse">
<stop stop-color="#037159"/>
<stop offset="1" stop-color="#F9AF7C"/>
</linearGradient>
<linearGradient id="paint12_linear_3217_3842" x1="1112.54" y1="1485.16" x2="850.884" y2="1683.4" gradientUnits="userSpaceOnUse">
<stop stop-color="#037159"/>
<stop offset="1" stop-color="#F9AF7C"/>
</linearGradient>
<linearGradient id="paint13_linear_3217_3842" x1="1118.55" y1="1476.25" x2="867.565" y2="1684.74" gradientUnits="userSpaceOnUse">
<stop stop-color="#037159"/>
<stop offset="1" stop-color="#F9AF7C"/>
</linearGradient>
<linearGradient id="paint14_linear_3217_3842" x1="1124.5" y1="1467.38" x2="884.838" y2="1685.05" gradientUnits="userSpaceOnUse">
<stop stop-color="#037159"/>
<stop offset="1" stop-color="#F9AF7C"/>
</linearGradient>
<linearGradient id="paint15_linear_3217_3842" x1="1130.42" y1="1458.53" x2="902.555" y2="1684.29" gradientUnits="userSpaceOnUse">
<stop stop-color="#037159"/>
<stop offset="1" stop-color="#F9AF7C"/>
</linearGradient>
<linearGradient id="paint16_linear_3217_3842" x1="1136.29" y1="1449.7" x2="920.569" y2="1682.45" gradientUnits="userSpaceOnUse">
<stop stop-color="#037159"/>
<stop offset="1" stop-color="#F9AF7C"/>
</linearGradient>
<linearGradient id="paint17_linear_3217_3842" x1="1142.12" y1="1440.91" x2="938.736" y2="1679.53" gradientUnits="userSpaceOnUse">
<stop stop-color="#037159"/>
<stop offset="1" stop-color="#F9AF7C"/>
</linearGradient>
<linearGradient id="paint18_linear_3217_3842" x1="1147.91" y1="1432.14" x2="956.924" y2="1675.55" gradientUnits="userSpaceOnUse">
<stop stop-color="#037159"/>
<stop offset="1" stop-color="#F9AF7C"/>
</linearGradient>
<linearGradient id="paint19_linear_3217_3842" x1="1153.65" y1="1423.39" x2="975.011" y2="1670.57" gradientUnits="userSpaceOnUse">
<stop stop-color="#037159"/>
<stop offset="1" stop-color="#F9AF7C"/>
</linearGradient>
<linearGradient id="paint20_linear_3217_3842" x1="1308.38" y1="1174.42" x2="1323.61" y2="1352.46" gradientUnits="userSpaceOnUse">
<stop stop-color="#037159"/>
<stop offset="1" stop-color="#F9AF7C"/>
</linearGradient>
<linearGradient id="paint21_linear_3217_3842" x1="1313.03" y1="1166.58" x2="1330.34" y2="1341.82" gradientUnits="userSpaceOnUse">
<stop stop-color="#037159"/>
<stop offset="1" stop-color="#F9AF7C"/>
</linearGradient>
<linearGradient id="paint22_linear_3217_3842" x1="1317.65" y1="1158.77" x2="1336.93" y2="1331.3" gradientUnits="userSpaceOnUse">
<stop stop-color="#037159"/>
<stop offset="1" stop-color="#F9AF7C"/>
</linearGradient>
<linearGradient id="paint23_linear_3217_3842" x1="1322.25" y1="1150.98" x2="1343.37" y2="1320.9" gradientUnits="userSpaceOnUse">
<stop stop-color="#037159"/>
<stop offset="1" stop-color="#F9AF7C"/>
</linearGradient>
<linearGradient id="paint24_linear_3217_3842" x1="1326.82" y1="1143.23" x2="1349.68" y2="1310.6" gradientUnits="userSpaceOnUse">
<stop stop-color="#037159"/>
<stop offset="1" stop-color="#F9AF7C"/>
</linearGradient>
<linearGradient id="paint25_linear_3217_3842" x1="1331.36" y1="1135.51" x2="1355.87" y2="1300.4" gradientUnits="userSpaceOnUse">
<stop stop-color="#037159"/>
<stop offset="1" stop-color="#F9AF7C"/>
</linearGradient>
<linearGradient id="paint26_linear_3217_3842" x1="1335.88" y1="1127.81" x2="1361.94" y2="1290.31" gradientUnits="userSpaceOnUse">
<stop stop-color="#037159"/>
<stop offset="1" stop-color="#F9AF7C"/>
</linearGradient>
<linearGradient id="paint27_linear_3217_3842" x1="1340.37" y1="1120.15" x2="1367.9" y2="1280.33" gradientUnits="userSpaceOnUse">
<stop stop-color="#037159"/>
<stop offset="1" stop-color="#F9AF7C"/>
</linearGradient>
<linearGradient id="paint28_linear_3217_3842" x1="1344.85" y1="1112.52" x2="1373.77" y2="1270.45" gradientUnits="userSpaceOnUse">
<stop stop-color="#037159"/>
<stop offset="1" stop-color="#F9AF7C"/>
</linearGradient>
<linearGradient id="paint29_linear_3217_3842" x1="1349.3" y1="1104.91" x2="1379.54" y2="1260.67" gradientUnits="userSpaceOnUse">
<stop stop-color="#037159"/>
<stop offset="1" stop-color="#F9AF7C"/>
</linearGradient>
<linearGradient id="paint30_linear_3217_3842" x1="1353.72" y1="1097.33" x2="1385.22" y2="1250.99" gradientUnits="userSpaceOnUse">
<stop stop-color="#037159"/>
<stop offset="1" stop-color="#F9AF7C"/>
</linearGradient>
<linearGradient id="paint31_linear_3217_3842" x1="1358.13" y1="1089.78" x2="1390.82" y2="1241.4" gradientUnits="userSpaceOnUse">
<stop stop-color="#037159"/>
<stop offset="1" stop-color="#F9AF7C"/>
</linearGradient>
<linearGradient id="paint32_linear_3217_3842" x1="1362.52" y1="1082.26" x2="1396.34" y2="1231.91" gradientUnits="userSpaceOnUse">
<stop stop-color="#037159"/>
<stop offset="1" stop-color="#F9AF7C"/>
</linearGradient>
<linearGradient id="paint33_linear_3217_3842" x1="1366.89" y1="1074.77" x2="1401.79" y2="1222.52" gradientUnits="userSpaceOnUse">
<stop stop-color="#037159"/>
<stop offset="1" stop-color="#F9AF7C"/>
</linearGradient>
<linearGradient id="paint34_linear_3217_3842" x1="1371.23" y1="1067.3" x2="1407.18" y2="1213.22" gradientUnits="userSpaceOnUse">
<stop stop-color="#037159"/>
<stop offset="1" stop-color="#F9AF7C"/>
</linearGradient>
<linearGradient id="paint35_linear_3217_3842" x1="1375.56" y1="1059.87" x2="1412.51" y2="1204" gradientUnits="userSpaceOnUse">
<stop stop-color="#037159"/>
<stop offset="1" stop-color="#F9AF7C"/>
</linearGradient>
<linearGradient id="paint36_linear_3217_3842" x1="1379.88" y1="1052.46" x2="1417.77" y2="1194.88" gradientUnits="userSpaceOnUse">
<stop stop-color="#037159"/>
<stop offset="1" stop-color="#F9AF7C"/>
</linearGradient>
<linearGradient id="paint37_linear_3217_3842" x1="1384.17" y1="1045.08" x2="1422.99" y2="1185.84" gradientUnits="userSpaceOnUse">
<stop stop-color="#037159"/>
<stop offset="1" stop-color="#F9AF7C"/>
</linearGradient>
<linearGradient id="paint38_linear_3217_3842" x1="1388.45" y1="1037.73" x2="1428.15" y2="1176.88" gradientUnits="userSpaceOnUse">
<stop stop-color="#037159"/>
<stop offset="1" stop-color="#F9AF7C"/>
</linearGradient>
<linearGradient id="paint39_linear_3217_3842" x1="1392.72" y1="1030.4" x2="1433.27" y2="1168.01" gradientUnits="userSpaceOnUse">
<stop stop-color="#037159"/>
<stop offset="1" stop-color="#F9AF7C"/>
</linearGradient>
<linearGradient id="paint40_linear_3217_3842" x1="1396.97" y1="1023.1" x2="1438.34" y2="1159.21" gradientUnits="userSpaceOnUse">
<stop stop-color="#037159"/>
<stop offset="1" stop-color="#F9AF7C"/>
</linearGradient>
<linearGradient id="paint41_linear_3217_3842" x1="1401.2" y1="1015.83" x2="1443.38" y2="1150.5" gradientUnits="userSpaceOnUse">
<stop stop-color="#037159"/>
<stop offset="1" stop-color="#F9AF7C"/>
</linearGradient>
<linearGradient id="paint42_linear_3217_3842" x1="1405.42" y1="1008.58" x2="1448.38" y2="1141.86" gradientUnits="userSpaceOnUse">
<stop stop-color="#037159"/>
<stop offset="1" stop-color="#F9AF7C"/>
</linearGradient>
<linearGradient id="paint43_linear_3217_3842" x1="1409.63" y1="1001.37" x2="1453.34" y2="1133.3" gradientUnits="userSpaceOnUse">
<stop stop-color="#037159"/>
<stop offset="1" stop-color="#F9AF7C"/>
</linearGradient>
<linearGradient id="paint44_linear_3217_3842" x1="1413.83" y1="994.174" x2="1458.28" y2="1124.81" gradientUnits="userSpaceOnUse">
<stop stop-color="#037159"/>
<stop offset="1" stop-color="#F9AF7C"/>
</linearGradient>
<linearGradient id="paint45_linear_3217_3842" x1="1418.02" y1="987.006" x2="1463.18" y2="1116.4" gradientUnits="userSpaceOnUse">
<stop stop-color="#037159"/>
<stop offset="1" stop-color="#F9AF7C"/>
</linearGradient>
<linearGradient id="paint46_linear_3217_3842" x1="1422.2" y1="979.865" x2="1468.07" y2="1108.05" gradientUnits="userSpaceOnUse">
<stop stop-color="#037159"/>
<stop offset="1" stop-color="#F9AF7C"/>
</linearGradient>
<linearGradient id="paint47_linear_3217_3842" x1="1426.37" y1="972.749" x2="1472.93" y2="1099.77" gradientUnits="userSpaceOnUse">
<stop stop-color="#037159"/>
<stop offset="1" stop-color="#F9AF7C"/>
</linearGradient>
<linearGradient id="paint48_linear_3217_3842" x1="1430.53" y1="965.659" x2="1477.77" y2="1091.56" gradientUnits="userSpaceOnUse">
<stop stop-color="#037159"/>
<stop offset="1" stop-color="#F9AF7C"/>
</linearGradient>
<linearGradient id="paint49_linear_3217_3842" x1="1434.68" y1="958.593" x2="1482.59" y2="1083.42" gradientUnits="userSpaceOnUse">
<stop stop-color="#037159"/>
<stop offset="1" stop-color="#F9AF7C"/>
</linearGradient>
<linearGradient id="paint50_linear_3217_3842" x1="1438.83" y1="951.55" x2="1487.39" y2="1075.34" gradientUnits="userSpaceOnUse">
<stop stop-color="#037159"/>
<stop offset="1" stop-color="#F9AF7C"/>
</linearGradient>
<linearGradient id="paint51_linear_3217_3842" x1="1442.97" y1="944.534" x2="1492.19" y2="1067.32" gradientUnits="userSpaceOnUse">
<stop stop-color="#037159"/>
<stop offset="1" stop-color="#F9AF7C"/>
</linearGradient>
<linearGradient id="paint52_linear_3217_3842" x1="1447.1" y1="937.54" x2="1496.97" y2="1059.37" gradientUnits="userSpaceOnUse">
<stop stop-color="#037159"/>
<stop offset="1" stop-color="#F9AF7C"/>
</linearGradient>
<linearGradient id="paint53_linear_3217_3842" x1="1451.23" y1="930.57" x2="1501.74" y2="1051.47" gradientUnits="userSpaceOnUse">
<stop stop-color="#037159"/>
<stop offset="1" stop-color="#F9AF7C"/>
</linearGradient>
<linearGradient id="paint54_linear_3217_3842" x1="1455.36" y1="923.625" x2="1506.5" y2="1043.64" gradientUnits="userSpaceOnUse">
<stop stop-color="#037159"/>
<stop offset="1" stop-color="#F9AF7C"/>
</linearGradient>
<linearGradient id="paint55_linear_3217_3842" x1="1459.48" y1="916.7" x2="1511.26" y2="1035.86" gradientUnits="userSpaceOnUse">
<stop stop-color="#037159"/>
<stop offset="1" stop-color="#F9AF7C"/>
</linearGradient>
<linearGradient id="paint56_linear_3217_3842" x1="1463.6" y1="909.799" x2="1516.02" y2="1028.14" gradientUnits="userSpaceOnUse">
<stop stop-color="#037159"/>
<stop offset="1" stop-color="#F9AF7C"/>
</linearGradient>
<linearGradient id="paint57_linear_3217_3842" x1="1467.72" y1="902.921" x2="1520.77" y2="1020.47" gradientUnits="userSpaceOnUse">
<stop stop-color="#037159"/>
<stop offset="1" stop-color="#F9AF7C"/>
</linearGradient>
<linearGradient id="paint58_linear_3217_3842" x1="1471.84" y1="896.063" x2="1525.53" y2="1012.86" gradientUnits="userSpaceOnUse">
<stop stop-color="#037159"/>
<stop offset="1" stop-color="#F9AF7C"/>
</linearGradient>
<linearGradient id="paint59_linear_3217_3842" x1="1475.95" y1="889.228" x2="1530.29" y2="1005.3" gradientUnits="userSpaceOnUse">
<stop stop-color="#037159"/>
<stop offset="1" stop-color="#F9AF7C"/>
</linearGradient>
<linearGradient id="paint60_linear_3217_3842" x1="1480.07" y1="882.412" x2="1535.05" y2="997.795" gradientUnits="userSpaceOnUse">
<stop stop-color="#037159"/>
<stop offset="1" stop-color="#F9AF7C"/>
</linearGradient>
<linearGradient id="paint61_linear_3217_3842" x1="1484.19" y1="875.621" x2="1539.81" y2="990.341" gradientUnits="userSpaceOnUse">
<stop stop-color="#037159"/>
<stop offset="1" stop-color="#F9AF7C"/>
</linearGradient>
<linearGradient id="paint62_linear_3217_3842" x1="1488.31" y1="868.846" x2="1544.59" y2="982.932" gradientUnits="userSpaceOnUse">
<stop stop-color="#037159"/>
<stop offset="1" stop-color="#F9AF7C"/>
</linearGradient>
<linearGradient id="paint63_linear_3217_3842" x1="1492.44" y1="862.095" x2="1549.37" y2="975.576" gradientUnits="userSpaceOnUse">
<stop stop-color="#037159"/>
<stop offset="1" stop-color="#F9AF7C"/>
</linearGradient>
<linearGradient id="paint64_linear_3217_3842" x1="1496.57" y1="855.358" x2="1554.17" y2="968.262" gradientUnits="userSpaceOnUse">
<stop stop-color="#037159"/>
<stop offset="1" stop-color="#F9AF7C"/>
</linearGradient>
<linearGradient id="paint65_linear_3217_3842" x1="1500.71" y1="848.644" x2="1558.97" y2="960.998" gradientUnits="userSpaceOnUse">
<stop stop-color="#037159"/>
<stop offset="1" stop-color="#F9AF7C"/>
</linearGradient>
<linearGradient id="paint66_linear_3217_3842" x1="1504.85" y1="841.949" x2="1563.8" y2="953.78" gradientUnits="userSpaceOnUse">
<stop stop-color="#037159"/>
<stop offset="1" stop-color="#F9AF7C"/>
</linearGradient>
<linearGradient id="paint67_linear_3217_3842" x1="1508.99" y1="835.274" x2="1568.63" y2="946.607" gradientUnits="userSpaceOnUse">
<stop stop-color="#037159"/>
<stop offset="1" stop-color="#F9AF7C"/>
</linearGradient>
<linearGradient id="paint68_linear_3217_3842" x1="1513.15" y1="828.614" x2="1573.49" y2="939.475" gradientUnits="userSpaceOnUse">
<stop stop-color="#037159"/>
<stop offset="1" stop-color="#F9AF7C"/>
</linearGradient>
<linearGradient id="paint69_linear_3217_3842" x1="1517.31" y1="821.972" x2="1578.36" y2="932.386" gradientUnits="userSpaceOnUse">
<stop stop-color="#037159"/>
<stop offset="1" stop-color="#F9AF7C"/>
</linearGradient>
<linearGradient id="paint70_linear_3217_3842" x1="1521.48" y1="815.348" x2="1583.26" y2="925.339" gradientUnits="userSpaceOnUse">
<stop stop-color="#037159"/>
<stop offset="1" stop-color="#F9AF7C"/>
</linearGradient>
<linearGradient id="paint71_linear_3217_3842" x1="899.978" y1="1593.88" x2="1207.22" y2="1630.31" gradientUnits="userSpaceOnUse">
<stop stop-color="#037159"/>
<stop offset="1" stop-color="#F9AF7C"/>
</linearGradient>
<linearGradient id="paint72_linear_3217_3842" x1="893.447" y1="1584.7" x2="1203.05" y2="1634.2" gradientUnits="userSpaceOnUse">
<stop stop-color="#037159"/>
<stop offset="1" stop-color="#F9AF7C"/>
</linearGradient>
<linearGradient id="paint73_linear_3217_3842" x1="886.959" y1="1575.53" x2="1197.97" y2="1638.63" gradientUnits="userSpaceOnUse">
<stop stop-color="#037159"/>
<stop offset="1" stop-color="#F9AF7C"/>
</linearGradient>
<linearGradient id="paint74_linear_3217_3842" x1="880.517" y1="1566.39" x2="1191.88" y2="1643.49" gradientUnits="userSpaceOnUse">
<stop stop-color="#037159"/>
<stop offset="1" stop-color="#F9AF7C"/>
</linearGradient>
<linearGradient id="paint75_linear_3217_3842" x1="874.12" y1="1557.27" x2="1184.71" y2="1648.66" gradientUnits="userSpaceOnUse">
<stop stop-color="#037159"/>
<stop offset="1" stop-color="#F9AF7C"/>
</linearGradient>
<linearGradient id="paint76_linear_3217_3842" x1="867.767" y1="1548.17" x2="1176.4" y2="1654" gradientUnits="userSpaceOnUse">
<stop stop-color="#037159"/>
<stop offset="1" stop-color="#F9AF7C"/>
</linearGradient>
<linearGradient id="paint77_linear_3217_3842" x1="861.459" y1="1539.09" x2="1166.91" y2="1659.38" gradientUnits="userSpaceOnUse">
<stop stop-color="#037159"/>
<stop offset="1" stop-color="#F9AF7C"/>
</linearGradient>
<linearGradient id="paint78_linear_3217_3842" x1="855.195" y1="1530.04" x2="1156.22" y2="1664.62" gradientUnits="userSpaceOnUse">
<stop stop-color="#037159"/>
<stop offset="1" stop-color="#F9AF7C"/>
</linearGradient>
<linearGradient id="paint79_linear_3217_3842" x1="848.975" y1="1521.02" x2="1144.34" y2="1669.57" gradientUnits="userSpaceOnUse">
<stop stop-color="#037159"/>
<stop offset="1" stop-color="#F9AF7C"/>
</linearGradient>
<linearGradient id="paint80_linear_3217_3842" x1="842.8" y1="1512.01" x2="1131.32" y2="1674.06" gradientUnits="userSpaceOnUse">
<stop stop-color="#037159"/>
<stop offset="1" stop-color="#F9AF7C"/>
</linearGradient>
<linearGradient id="paint81_linear_3217_3842" x1="836.668" y1="1503.03" x2="1117.22" y2="1677.96" gradientUnits="userSpaceOnUse">
<stop stop-color="#037159"/>
<stop offset="1" stop-color="#F9AF7C"/>
</linearGradient>
<linearGradient id="paint82_linear_3217_3842" x1="830.58" y1="1494.08" x2="1102.14" y2="1681.11" gradientUnits="userSpaceOnUse">
<stop stop-color="#037159"/>
<stop offset="1" stop-color="#F9AF7C"/>
</linearGradient>
<linearGradient id="paint83_linear_3217_3842" x1="824.536" y1="1485.16" x2="1086.2" y2="1683.4" gradientUnits="userSpaceOnUse">
<stop stop-color="#037159"/>
<stop offset="1" stop-color="#F9AF7C"/>
</linearGradient>
<linearGradient id="paint84_linear_3217_3842" x1="818.534" y1="1476.25" x2="1069.52" y2="1684.74" gradientUnits="userSpaceOnUse">
<stop stop-color="#037159"/>
<stop offset="1" stop-color="#F9AF7C"/>
</linearGradient>
<linearGradient id="paint85_linear_3217_3842" x1="812.577" y1="1467.38" x2="1052.24" y2="1685.05" gradientUnits="userSpaceOnUse">
<stop stop-color="#037159"/>
<stop offset="1" stop-color="#F9AF7C"/>
</linearGradient>
<linearGradient id="paint86_linear_3217_3842" x1="806.662" y1="1458.53" x2="1034.53" y2="1684.29" gradientUnits="userSpaceOnUse">
<stop stop-color="#037159"/>
<stop offset="1" stop-color="#F9AF7C"/>
</linearGradient>
<linearGradient id="paint87_linear_3217_3842" x1="800.79" y1="1449.7" x2="1016.51" y2="1682.45" gradientUnits="userSpaceOnUse">
<stop stop-color="#037159"/>
<stop offset="1" stop-color="#F9AF7C"/>
</linearGradient>
<linearGradient id="paint88_linear_3217_3842" x1="794.96" y1="1440.91" x2="998.344" y2="1679.53" gradientUnits="userSpaceOnUse">
<stop stop-color="#037159"/>
<stop offset="1" stop-color="#F9AF7C"/>
</linearGradient>
<linearGradient id="paint89_linear_3217_3842" x1="789.173" y1="1432.14" x2="980.157" y2="1675.55" gradientUnits="userSpaceOnUse">
<stop stop-color="#037159"/>
<stop offset="1" stop-color="#F9AF7C"/>
</linearGradient>
<linearGradient id="paint90_linear_3217_3842" x1="783.428" y1="1423.39" x2="962.07" y2="1670.57" gradientUnits="userSpaceOnUse">
<stop stop-color="#037159"/>
<stop offset="1" stop-color="#F9AF7C"/>
</linearGradient>
<linearGradient id="paint91_linear_3217_3842" x1="628.696" y1="1174.42" x2="613.471" y2="1352.46" gradientUnits="userSpaceOnUse">
<stop stop-color="#037159"/>
<stop offset="1" stop-color="#F9AF7C"/>
</linearGradient>
<linearGradient id="paint92_linear_3217_3842" x1="624.047" y1="1166.58" x2="606.736" y2="1341.82" gradientUnits="userSpaceOnUse">
<stop stop-color="#037159"/>
<stop offset="1" stop-color="#F9AF7C"/>
</linearGradient>
<linearGradient id="paint93_linear_3217_3842" x1="619.427" y1="1158.77" x2="600.152" y2="1331.3" gradientUnits="userSpaceOnUse">
<stop stop-color="#037159"/>
<stop offset="1" stop-color="#F9AF7C"/>
</linearGradient>
<linearGradient id="paint94_linear_3217_3842" x1="614.833" y1="1150.98" x2="593.711" y2="1320.9" gradientUnits="userSpaceOnUse">
<stop stop-color="#037159"/>
<stop offset="1" stop-color="#F9AF7C"/>
</linearGradient>
<linearGradient id="paint95_linear_3217_3842" x1="610.264" y1="1143.23" x2="587.401" y2="1310.6" gradientUnits="userSpaceOnUse">
<stop stop-color="#037159"/>
<stop offset="1" stop-color="#F9AF7C"/>
</linearGradient>
<linearGradient id="paint96_linear_3217_3842" x1="605.721" y1="1135.51" x2="581.215" y2="1300.4" gradientUnits="userSpaceOnUse">
<stop stop-color="#037159"/>
<stop offset="1" stop-color="#F9AF7C"/>
</linearGradient>
<linearGradient id="paint97_linear_3217_3842" x1="601.202" y1="1127.81" x2="575.143" y2="1290.31" gradientUnits="userSpaceOnUse">
<stop stop-color="#037159"/>
<stop offset="1" stop-color="#F9AF7C"/>
</linearGradient>
<linearGradient id="paint98_linear_3217_3842" x1="596.706" y1="1120.15" x2="569.179" y2="1280.33" gradientUnits="userSpaceOnUse">
<stop stop-color="#037159"/>
<stop offset="1" stop-color="#F9AF7C"/>
</linearGradient>
<linearGradient id="paint99_linear_3217_3842" x1="592.235" y1="1112.52" x2="563.316" y2="1270.45" gradientUnits="userSpaceOnUse">
<stop stop-color="#037159"/>
<stop offset="1" stop-color="#F9AF7C"/>
</linearGradient>
<linearGradient id="paint100_linear_3217_3842" x1="587.784" y1="1104.91" x2="557.545" y2="1260.67" gradientUnits="userSpaceOnUse">
<stop stop-color="#037159"/>
<stop offset="1" stop-color="#F9AF7C"/>
</linearGradient>
<linearGradient id="paint101_linear_3217_3842" x1="583.356" y1="1097.33" x2="551.863" y2="1250.99" gradientUnits="userSpaceOnUse">
<stop stop-color="#037159"/>
<stop offset="1" stop-color="#F9AF7C"/>
</linearGradient>
<linearGradient id="paint102_linear_3217_3842" x1="578.949" y1="1089.78" x2="546.263" y2="1241.4" gradientUnits="userSpaceOnUse">
<stop stop-color="#037159"/>
<stop offset="1" stop-color="#F9AF7C"/>
</linearGradient>
<linearGradient id="paint103_linear_3217_3842" x1="574.563" y1="1082.26" x2="540.739" y2="1231.91" gradientUnits="userSpaceOnUse">
<stop stop-color="#037159"/>
<stop offset="1" stop-color="#F9AF7C"/>
</linearGradient>
<linearGradient id="paint104_linear_3217_3842" x1="570.195" y1="1074.77" x2="535.286" y2="1222.52" gradientUnits="userSpaceOnUse">
<stop stop-color="#037159"/>
<stop offset="1" stop-color="#F9AF7C"/>
</linearGradient>
<linearGradient id="paint105_linear_3217_3842" x1="565.847" y1="1067.3" x2="529.9" y2="1213.22" gradientUnits="userSpaceOnUse">
<stop stop-color="#037159"/>
<stop offset="1" stop-color="#F9AF7C"/>
</linearGradient>
<linearGradient id="paint106_linear_3217_3842" x1="561.518" y1="1059.87" x2="524.575" y2="1204" gradientUnits="userSpaceOnUse">
<stop stop-color="#037159"/>
<stop offset="1" stop-color="#F9AF7C"/>
</linearGradient>
<linearGradient id="paint107_linear_3217_3842" x1="557.204" y1="1052.46" x2="519.307" y2="1194.88" gradientUnits="userSpaceOnUse">
<stop stop-color="#037159"/>
<stop offset="1" stop-color="#F9AF7C"/>
</linearGradient>
<linearGradient id="paint108_linear_3217_3842" x1="552.91" y1="1045.08" x2="514.095" y2="1185.84" gradientUnits="userSpaceOnUse">
<stop stop-color="#037159"/>
<stop offset="1" stop-color="#F9AF7C"/>
</linearGradient>
<linearGradient id="paint109_linear_3217_3842" x1="548.63" y1="1037.73" x2="508.932" y2="1176.88" gradientUnits="userSpaceOnUse">
<stop stop-color="#037159"/>
<stop offset="1" stop-color="#F9AF7C"/>
</linearGradient>
<linearGradient id="paint110_linear_3217_3842" x1="544.365" y1="1030.4" x2="503.814" y2="1168.01" gradientUnits="userSpaceOnUse">
<stop stop-color="#037159"/>
<stop offset="1" stop-color="#F9AF7C"/>
</linearGradient>
<linearGradient id="paint111_linear_3217_3842" x1="540.116" y1="1023.1" x2="498.739" y2="1159.21" gradientUnits="userSpaceOnUse">
<stop stop-color="#037159"/>
<stop offset="1" stop-color="#F9AF7C"/>
</linearGradient>
<linearGradient id="paint112_linear_3217_3842" x1="535.88" y1="1015.83" x2="493.704" y2="1150.5" gradientUnits="userSpaceOnUse">
<stop stop-color="#037159"/>
<stop offset="1" stop-color="#F9AF7C"/>
</linearGradient>
<linearGradient id="paint113_linear_3217_3842" x1="531.657" y1="1008.58" x2="488.704" y2="1141.86" gradientUnits="userSpaceOnUse">
<stop stop-color="#037159"/>
<stop offset="1" stop-color="#F9AF7C"/>
</linearGradient>
<linearGradient id="paint114_linear_3217_3842" x1="527.447" y1="1001.37" x2="483.739" y2="1133.3" gradientUnits="userSpaceOnUse">
<stop stop-color="#037159"/>
<stop offset="1" stop-color="#F9AF7C"/>
</linearGradient>
<linearGradient id="paint115_linear_3217_3842" x1="523.248" y1="994.174" x2="478.804" y2="1124.81" gradientUnits="userSpaceOnUse">
<stop stop-color="#037159"/>
<stop offset="1" stop-color="#F9AF7C"/>
</linearGradient>
<linearGradient id="paint116_linear_3217_3842" x1="519.059" y1="987.006" x2="473.896" y2="1116.4" gradientUnits="userSpaceOnUse">
<stop stop-color="#037159"/>
<stop offset="1" stop-color="#F9AF7C"/>
</linearGradient>
<linearGradient id="paint117_linear_3217_3842" x1="514.881" y1="979.865" x2="469.014" y2="1108.05" gradientUnits="userSpaceOnUse">
<stop stop-color="#037159"/>
<stop offset="1" stop-color="#F9AF7C"/>
</linearGradient>
<linearGradient id="paint118_linear_3217_3842" x1="510.713" y1="972.749" x2="464.154" y2="1099.77" gradientUnits="userSpaceOnUse">
<stop stop-color="#037159"/>
<stop offset="1" stop-color="#F9AF7C"/>
</linearGradient>
<linearGradient id="paint119_linear_3217_3842" x1="506.552" y1="965.659" x2="459.314" y2="1091.56" gradientUnits="userSpaceOnUse">
<stop stop-color="#037159"/>
<stop offset="1" stop-color="#F9AF7C"/>
</linearGradient>
<linearGradient id="paint120_linear_3217_3842" x1="502.399" y1="958.593" x2="454.492" y2="1083.42" gradientUnits="userSpaceOnUse">
<stop stop-color="#037159"/>
<stop offset="1" stop-color="#F9AF7C"/>
</linearGradient>
<linearGradient id="paint121_linear_3217_3842" x1="498.253" y1="951.55" x2="449.686" y2="1075.34" gradientUnits="userSpaceOnUse">
<stop stop-color="#037159"/>
<stop offset="1" stop-color="#F9AF7C"/>
</linearGradient>
<linearGradient id="paint122_linear_3217_3842" x1="494.114" y1="944.534" x2="444.894" y2="1067.32" gradientUnits="userSpaceOnUse">
<stop stop-color="#037159"/>
<stop offset="1" stop-color="#F9AF7C"/>
</linearGradient>
<linearGradient id="paint123_linear_3217_3842" x1="489.98" y1="937.54" x2="440.113" y2="1059.37" gradientUnits="userSpaceOnUse">
<stop stop-color="#037159"/>
<stop offset="1" stop-color="#F9AF7C"/>
</linearGradient>
<linearGradient id="paint124_linear_3217_3842" x1="485.851" y1="930.57" x2="435.341" y2="1051.47" gradientUnits="userSpaceOnUse">
<stop stop-color="#037159"/>
<stop offset="1" stop-color="#F9AF7C"/>
</linearGradient>
<linearGradient id="paint125_linear_3217_3842" x1="481.725" y1="923.625" x2="430.576" y2="1043.64" gradientUnits="userSpaceOnUse">
<stop stop-color="#037159"/>
<stop offset="1" stop-color="#F9AF7C"/>
</linearGradient>
<linearGradient id="paint126_linear_3217_3842" x1="477.603" y1="916.7" x2="425.817" y2="1035.86" gradientUnits="userSpaceOnUse">
<stop stop-color="#037159"/>
<stop offset="1" stop-color="#F9AF7C"/>
</linearGradient>
<linearGradient id="paint127_linear_3217_3842" x1="473.482" y1="909.799" x2="421.06" y2="1028.14" gradientUnits="userSpaceOnUse">
<stop stop-color="#037159"/>
<stop offset="1" stop-color="#F9AF7C"/>
</linearGradient>
<linearGradient id="paint128_linear_3217_3842" x1="469.363" y1="902.921" x2="416.306" y2="1020.47" gradientUnits="userSpaceOnUse">
<stop stop-color="#037159"/>
<stop offset="1" stop-color="#F9AF7C"/>
</linearGradient>
<linearGradient id="paint129_linear_3217_3842" x1="465.245" y1="896.063" x2="411.551" y2="1012.86" gradientUnits="userSpaceOnUse">
<stop stop-color="#037159"/>
<stop offset="1" stop-color="#F9AF7C"/>
</linearGradient>
<linearGradient id="paint130_linear_3217_3842" x1="461.128" y1="889.228" x2="406.794" y2="1005.3" gradientUnits="userSpaceOnUse">
<stop stop-color="#037159"/>
<stop offset="1" stop-color="#F9AF7C"/>
</linearGradient>
<linearGradient id="paint131_linear_3217_3842" x1="457.008" y1="882.412" x2="402.033" y2="997.795" gradientUnits="userSpaceOnUse">
<stop stop-color="#037159"/>
<stop offset="1" stop-color="#F9AF7C"/>
</linearGradient>
<linearGradient id="paint132_linear_3217_3842" x1="452.888" y1="875.621" x2="397.266" y2="990.341" gradientUnits="userSpaceOnUse">
<stop stop-color="#037159"/>
<stop offset="1" stop-color="#F9AF7C"/>
</linearGradient>
<linearGradient id="paint133_linear_3217_3842" x1="448.766" y1="868.846" x2="392.493" y2="982.932" gradientUnits="userSpaceOnUse">
<stop stop-color="#037159"/>
<stop offset="1" stop-color="#F9AF7C"/>
</linearGradient>
<linearGradient id="paint134_linear_3217_3842" x1="444.639" y1="862.095" x2="387.709" y2="975.576" gradientUnits="userSpaceOnUse">
<stop stop-color="#037159"/>
<stop offset="1" stop-color="#F9AF7C"/>
</linearGradient>
<linearGradient id="paint135_linear_3217_3842" x1="440.509" y1="855.358" x2="382.914" y2="968.262" gradientUnits="userSpaceOnUse">
<stop stop-color="#037159"/>
<stop offset="1" stop-color="#F9AF7C"/>
</linearGradient>
<linearGradient id="paint136_linear_3217_3842" x1="436.374" y1="848.644" x2="378.107" y2="960.998" gradientUnits="userSpaceOnUse">
<stop stop-color="#037159"/>
<stop offset="1" stop-color="#F9AF7C"/>
</linearGradient>
<linearGradient id="paint137_linear_3217_3842" x1="432.233" y1="841.949" x2="373.285" y2="953.78" gradientUnits="userSpaceOnUse">
<stop stop-color="#037159"/>
<stop offset="1" stop-color="#F9AF7C"/>
</linearGradient>
<linearGradient id="paint138_linear_3217_3842" x1="428.087" y1="835.274" x2="368.448" y2="946.607" gradientUnits="userSpaceOnUse">
<stop stop-color="#037159"/>
<stop offset="1" stop-color="#F9AF7C"/>
</linearGradient>
<linearGradient id="paint139_linear_3217_3842" x1="423.933" y1="828.614" x2="363.593" y2="939.475" gradientUnits="userSpaceOnUse">
<stop stop-color="#037159"/>
<stop offset="1" stop-color="#F9AF7C"/>
</linearGradient>
<linearGradient id="paint140_linear_3217_3842" x1="419.771" y1="821.972" x2="358.718" y2="932.386" gradientUnits="userSpaceOnUse">
<stop stop-color="#037159"/>
<stop offset="1" stop-color="#F9AF7C"/>
</linearGradient>
<linearGradient id="paint141_linear_3217_3842" x1="415.601" y1="815.348" x2="353.822" y2="925.339" gradientUnits="userSpaceOnUse">
<stop stop-color="#037159"/>
<stop offset="1" stop-color="#F9AF7C"/>
</linearGradient>
</defs>
</svg>
