<svg width="1389" height="1696" viewBox="0 0 1389 1696" fill="none" xmlns="http://www.w3.org/2000/svg">
<path d="M803.37 1571.23C857.53 1472.87 914.835 1266.08 710.777 1225.75C455.706 1175.34 885.74 984.707 698.637 860.154C511.535 735.6 508.265 974.18 490.096 772.309C475.561 610.812 519.306 498.921 542.995 463.163" stroke="url(#paint0_linear_159_2781)"/>
<path d="M821.276 1558.21C873.468 1459.78 926.229 1253.68 719.73 1216.72C461.605 1170.51 890.178 974.867 698.736 854.055C507.294 733.243 509.721 970.073 486.58 769.996C468.068 609.933 509.446 498.231 532.45 462.387" stroke="url(#paint1_linear_159_2781)"/>
<path d="M839.133 1545.01C889.343 1446.55 937.544 1241.21 728.665 1207.62C467.565 1165.62 894.547 965.038 698.823 848.004C503.1 730.97 511.223 965.979 483.118 767.756C460.634 609.177 499.633 497.697 521.944 461.779" stroke="url(#paint2_linear_159_2781)"/>
<path d="M856.938 1531.66C905.151 1433.18 948.777 1228.67 737.582 1198.46C473.587 1160.69 898.847 955.224 698.902 842.003C498.957 728.782 512.774 961.899 479.713 765.59C453.264 608.543 489.872 497.319 511.483 461.338" stroke="url(#paint3_linear_159_2781)"/>
<path d="M874.687 1518.14C920.887 1419.68 959.926 1216.06 746.478 1189.24C479.669 1155.71 903.078 945.423 698.972 836.05C494.866 726.677 514.373 957.83 476.365 763.496C445.959 608.029 480.166 497.095 501.07 461.061" stroke="url(#paint4_linear_159_2781)"/>
<path d="M892.375 1504.46C936.549 1406.06 970.987 1203.39 755.353 1179.96C485.81 1150.69 907.239 935.639 699.035 830.148C490.831 724.656 516.021 953.775 473.079 761.475C438.725 607.635 470.519 497.025 490.71 460.949" stroke="url(#paint5_linear_159_2781)"/>
<path d="M909.999 1490.63C952.132 1392.3 981.96 1190.65 764.205 1170.63C492.01 1145.61 911.331 925.87 699.092 824.292C486.852 722.714 517.718 949.728 469.855 759.521C431.564 607.355 460.936 497.102 480.408 460.996" stroke="url(#paint6_linear_159_2781)"/>
<path d="M927.552 1476.64C967.633 1378.43 992.841 1177.84 773.031 1161.24C498.268 1140.48 915.353 916.118 699.143 818.484C482.934 720.851 519.465 945.692 466.696 757.635C424.48 607.189 451.42 497.327 470.168 461.202" stroke="url(#paint7_linear_159_2781)"/>
<path d="M945.033 1462.5C983.049 1364.43 1003.63 1164.97 781.832 1151.79C504.585 1135.3 919.306 906.385 699.192 812.725C479.077 719.066 521.265 941.665 463.604 755.816C417.476 607.137 441.977 497.699 459.994 461.565" stroke="url(#paint8_linear_159_2781)"/>
<path d="M962.436 1448.21C998.375 1350.3 1014.32 1152.05 790.605 1142.28C510.957 1130.07 923.189 896.671 699.237 807.014C475.285 717.357 523.114 937.647 460.581 754.062C410.554 607.194 432.608 498.214 449.889 462.082" stroke="url(#paint9_linear_159_2781)"/>
<path d="M979.757 1433.77C1013.61 1336.07 1024.92 1139.06 799.348 1132.72C517.385 1124.8 927.002 886.977 699.28 801.35C471.559 715.723 525.016 933.636 457.629 752.371C403.718 607.36 423.319 498.871 439.859 462.753" stroke="url(#paint10_linear_159_2781)"/>
<path d="M996.992 1419.19C1028.75 1321.71 1035.41 1126.02 808.06 1123.11C523.868 1119.46 930.745 877.302 699.324 795.731C467.902 714.16 526.971 929.631 454.75 750.741C396.973 607.63 414.114 499.665 429.907 463.572" stroke="url(#paint11_linear_159_2781)"/>
<path d="M1014.14 1404.46C1043.78 1307.24 1045.81 1112.93 816.74 1113.44C530.405 1114.08 934.418 867.651 699.368 790.161C464.317 712.671 528.979 925.633 451.946 749.173C390.32 608.006 404.997 500.598 420.039 464.54" stroke="url(#paint12_linear_159_2781)"/>
<path d="M1031.19 1389.59C1058.72 1292.66 1056.1 1099.78 825.386 1103.72C536.995 1108.65 938.022 858.021 699.413 784.636C460.805 711.25 531.041 921.638 449.22 747.663C383.763 608.482 395.971 501.664 410.257 465.653" stroke="url(#paint13_linear_159_2781)"/>
<path d="M1048.14 1374.58C1073.55 1277.97 1066.28 1086.59 833.996 1093.95C543.638 1103.16 941.555 848.415 699.462 779.156C457.368 709.897 533.156 917.648 446.572 746.209C377.305 609.058 387.04 502.862 400.566 466.908" stroke="url(#paint14_linear_159_2781)"/>
<path d="M1064.99 1359.44C1088.26 1263.17 1076.36 1073.34 842.569 1084.13C550.332 1097.62 945.019 838.834 699.514 773.723C454.009 708.612 535.327 913.662 444.006 744.812C370.949 609.732 378.208 504.19 390.969 468.305" stroke="url(#paint15_linear_159_2781)"/>
<path d="M1081.74 1344.16C1102.87 1248.27 1086.33 1060.05 851.104 1074.26C557.076 1092.02 948.413 829.277 699.571 768.334C450.729 707.391 537.552 909.677 441.522 743.468C364.698 610.5 369.479 505.645 381.473 469.839" stroke="url(#paint16_linear_159_2781)"/>
<path d="M1098.37 1328.75C1117.36 1233.27 1096.18 1046.72 859.599 1064.34C563.871 1086.37 951.738 819.747 699.635 762.99C447.533 706.233 539.833 905.694 439.124 742.175C358.556 611.36 360.857 507.224 372.079 471.508" stroke="url(#paint17_linear_159_2781)"/>
<path d="M1114.89 1313.22C1131.72 1218.17 1105.92 1033.34 868.052 1054.37C570.714 1080.67 954.993 810.243 699.706 757.69C444.419 705.137 542.17 901.712 436.812 740.934C352.525 612.312 352.346 508.926 362.792 473.311" stroke="url(#paint18_linear_159_2781)"/>
<path d="M1131.29 1297.56C1145.97 1202.97 1115.55 1019.92 876.463 1044.36C577.604 1074.91 958.179 800.767 699.786 752.434C441.393 704.1 544.564 897.73 434.588 739.742C346.608 613.351 343.949 510.747 353.617 475.244" stroke="url(#paint19_linear_159_2781)"/>
<path d="M1147.57 1281.77C1160.09 1187.68 1125.06 1006.46 884.829 1034.3C584.542 1069.09 961.296 791.32 699.875 747.221C438.454 703.122 547.014 893.747 432.455 738.597C340.808 614.476 335.67 512.686 344.556 477.306" stroke="url(#paint20_linear_159_2781)"/>
<path d="M1163.73 1265.87C1174.08 1172.3 1134.45 992.973 893.15 1024.2C591.525 1063.23 964.344 781.902 699.975 742.051C435.606 702.199 549.521 889.762 430.414 737.497C335.128 615.684 327.512 514.738 335.614 479.491" stroke="url(#paint21_linear_159_2781)"/>
<path d="M1179.75 1249.85C1187.93 1156.83 1143.72 979.446 901.423 1014.05C598.553 1057.3 967.323 772.514 700.086 736.923C432.85 701.331 552.087 885.775 428.467 736.441C329.571 616.973 319.48 516.902 326.796 481.8" stroke="url(#paint22_linear_159_2781)"/>
<path d="M1195.64 1233.71C1201.65 1141.27 1152.87 965.888 909.648 1003.86C605.625 1051.32 970.233 763.157 700.211 731.836C430.188 700.516 554.71 881.783 426.615 735.426C324.14 618.34 311.576 519.174 318.103 484.227" stroke="url(#paint23_linear_159_2781)"/>
<path d="M1211.4 1217.46C1215.24 1125.63 1161.89 952.299 917.824 993.627C612.74 1045.29 973.075 753.832 700.349 726.792C427.623 699.751 557.391 877.788 424.861 734.452C318.837 619.784 303.804 521.553 309.541 486.771" stroke="url(#paint24_linear_159_2781)"/>
<path d="M1227.01 1201.11C1228.68 1109.91 1170.79 938.684 925.948 983.355C619.896 1039.19 975.85 744.54 700.503 721.788C425.156 699.037 560.131 873.787 423.206 733.517C313.666 621.301 296.169 524.036 301.114 489.43" stroke="url(#paint25_linear_159_2781)"/>
<path d="M1242.48 1184.65C1241.97 1094.11 1179.56 925.041 934.02 973.043C627.093 1033.05 978.556 735.281 700.672 716.824C422.789 698.368 562.93 869.78 421.651 732.618C308.628 622.888 288.673 526.618 292.823 492.199" stroke="url(#paint26_linear_159_2781)"/>
<path d="M1257.81 1168.08C1255.12 1078.24 1188.2 911.375 942.037 962.693C634.33 1026.84 981.195 726.056 700.859 711.9C420.523 697.745 565.788 865.766 420.199 731.754C303.728 624.544 281.32 529.298 284.675 495.077" stroke="url(#paint27_linear_159_2781)"/>
<path d="M1272.98 1151.42C1268.12 1062.29 1196.72 897.688 950 952.306C641.606 1020.58 983.767 716.865 701.065 707.015C418.362 697.166 568.706 861.745 418.851 730.923C298.966 626.265 274.113 532.073 276.672 498.059" stroke="url(#paint28_linear_159_2781)"/>
<path d="M1287.99 1134.65C1280.96 1046.27 1205.1 883.981 957.907 941.882C648.919 1014.26 986.272 707.711 701.289 702.169C416.306 696.628 571.683 857.715 417.608 730.123C294.347 628.05 267.055 534.94 268.817 501.144" stroke="url(#paint29_linear_159_2781)"/>
<path d="M1302.85 1117.8C1293.65 1030.19 1213.34 870.257 965.755 931.425C656.268 1007.88 988.711 698.593 701.534 697.362C414.357 696.13 574.721 853.676 416.471 729.354C289.872 629.896 260.15 537.896 261.114 504.329" stroke="url(#paint30_linear_159_2781)"/>
<path d="M1317.55 1100.85C1306.18 1014.04 1221.46 856.517 973.544 920.932C663.652 1001.45 991.084 689.511 701.8 692.59C412.516 695.669 577.818 849.626 415.443 728.611C285.543 631.799 253.4 540.938 253.567 507.609" stroke="url(#paint31_linear_159_2781)"/>
<path d="M1332.08 1083.82C1318.54 997.832 1229.44 842.765 981.273 910.407C671.071 994.96 993.391 680.468 702.089 687.856C410.787 695.245 580.975 845.565 414.525 727.894C281.364 633.757 246.81 544.063 246.179 510.982" stroke="url(#paint32_linear_159_2781)"/>
<path d="M1346.44 1066.7C1330.75 981.565 1237.28 829.001 988.941 899.85C678.522 988.412 995.633 671.463 702.402 683.158C409.17 694.854 584.193 841.493 413.718 727.202C277.337 635.769 240.383 547.267 238.953 514.446" stroke="url(#paint33_linear_159_2781)"/>
<path d="M1360.63 1049.5C1342.78 965.242 1244.98 815.228 996.547 889.263C686.006 981.806 997.811 662.496 702.74 678.496C407.668 694.495 587.473 837.407 413.024 726.531C273.464 637.829 234.121 550.549 231.894 517.996" stroke="url(#paint34_linear_159_2781)"/>
<path d="M1374.65 1032.23C1354.65 948.867 1252.54 801.449 1004.09 878.647C693.521 975.144 999.925 653.57 703.103 673.868C406.28 694.167 590.812 833.309 412.443 725.881C269.748 639.938 228.027 553.905 225.004 521.631" stroke="url(#paint35_linear_159_2781)"/>
<path d="M1388.49 1014.87C1366.35 932.443 1259.96 787.665 1011.56 868.002C701.065 968.423 1001.97 644.684 703.492 669.275C405.01 693.866 594.212 829.195 411.977 725.248C266.189 642.091 222.104 557.33 218.285 525.345" stroke="url(#paint36_linear_159_2781)"/>
<path d="M1402.14 997.451C1377.87 915.972 1267.24 773.879 1018.97 857.331C708.637 961.646 1003.96 635.84 703.909 664.716C403.858 693.592 597.674 825.068 411.629 724.634C262.792 644.286 216.356 560.825 211.743 529.138" stroke="url(#paint37_linear_159_2781)"/>
<path d="M1415.62 979.959C1389.21 899.458 1274.38 760.092 1026.32 846.634C716.237 954.81 1005.88 627.037 704.355 660.189C402.827 693.342 601.196 820.924 411.397 724.033C259.558 646.52 210.785 564.384 205.378 533.004" stroke="url(#paint38_linear_159_2781)"/>
<path d="M1428.91 962.401C1400.38 882.903 1281.38 746.307 1033.59 835.912C723.862 947.918 1007.75 618.276 704.831 655.695C401.916 693.114 604.78 816.763 411.285 723.445C256.489 648.791 205.394 568.004 199.196 536.942" stroke="url(#paint39_linear_159_2781)"/>
<path d="M1442 944.782C1411.36 866.311 1288.22 732.527 1040.8 825.167C731.513 940.968 1009.55 609.559 705.337 651.232C401.13 692.906 608.425 812.585 411.293 722.869C253.588 651.096 200.186 571.683 193.198 540.948" stroke="url(#paint40_linear_159_2781)"/>
<path d="M1454.91 927.105C1422.16 849.683 1294.93 718.752 1047.93 814.4C739.188 933.961 1011.28 600.885 705.876 646.801C400.467 692.717 612.131 808.389 411.423 722.301C250.856 653.431 195.164 575.416 187.388 545.018" stroke="url(#paint41_linear_159_2781)"/>
<path d="M1467.62 909.373C1432.78 833.025 1301.48 704.986 1054.99 803.613C746.885 926.896 1012.96 592.255 706.447 642.399C399.93 692.544 615.898 804.174 411.674 721.741C248.295 655.795 190.329 579.202 181.769 549.149" stroke="url(#paint42_linear_159_2781)"/>
<path d="M1480.13 891.588C1443.21 816.338 1307.89 691.23 1061.99 792.806C754.603 919.774 1014.58 583.67 707.051 638.027C399.52 692.385 619.727 799.939 412.049 721.186C245.907 658.184 185.686 583.037 176.343 553.338" stroke="url(#paint43_linear_159_2781)"/>
<path d="M1492.44 873.755C1453.44 799.624 1314.15 677.487 1068.9 781.979C762.341 912.595 1016.14 575.13 707.69 633.684C399.238 692.237 623.616 795.683 412.548 720.634C243.694 660.595 181.236 586.916 171.113 557.582" stroke="url(#paint44_linear_159_2781)"/>
<path d="M1504.54 855.877C1463.49 782.889 1320.26 663.758 1075.74 771.136C770.099 905.359 1017.64 566.636 708.364 629.368C399.086 692.1 627.567 791.406 413.173 720.084C241.659 663.026 176.982 590.838 166.083 561.876" stroke="url(#paint45_linear_159_2781)"/>
<path d="M1516.44 837.957C1473.34 766.134 1326.22 650.046 1082.51 760.277C777.873 898.066 1019.09 558.189 709.075 625.08C399.064 691.972 631.579 787.107 413.925 719.534C239.801 665.475 172.926 594.8 161.253 566.219" stroke="url(#paint46_linear_159_2781)"/>
<path d="M1528.13 819.998C1483 749.362 1332.03 636.353 1089.2 749.404C785.665 890.717 1020.47 549.788 709.824 620.819C399.174 691.849 635.651 782.785 414.803 718.981C238.124 667.937 169.071 598.796 156.629 570.606" stroke="url(#paint47_linear_159_2781)"/>
<path d="M1539.61 802.005C1492.46 732.577 1337.69 622.681 1095.82 738.516C793.471 883.311 1021.8 541.435 710.61 616.583C399.417 691.73 639.784 778.439 415.809 718.423C236.629 670.411 165.418 602.825 152.21 575.034" stroke="url(#paint48_linear_159_2781)"/>
<path d="M1550.88 783.981C1501.72 715.783 1343.2 609.033 1102.35 727.618C801.291 875.85 1023.08 533.131 711.435 612.373C399.794 691.615 643.979 774.07 416.945 717.861C235.317 672.894 161.971 606.885 148.001 579.501" stroke="url(#paint49_linear_159_2781)"/>
<path d="M1561.93 765.929C1510.78 698.981 1348.55 595.409 1108.81 716.708C809.124 868.331 1024.3 524.873 712.301 608.186C400.306 691.499 648.234 769.675 418.21 717.29C234.191 675.383 158.731 610.969 144.004 584" stroke="url(#paint50_linear_159_2781)"/>
<path d="M1572.76 747.85C1519.64 682.173 1353.75 581.812 1115.18 705.787C816.968 860.757 1025.46 516.664 713.208 604.022C400.954 691.38 652.549 765.253 419.606 716.709C233.251 677.873 155.701 615.075 140.221 588.53" stroke="url(#paint51_linear_159_2781)"/>
<path d="M1583.38 729.752C1528.3 665.365 1358.8 568.245 1121.48 694.859C824.822 853.127 1026.57 508.505 714.156 599.881C401.738 691.257 656.924 760.806 421.132 716.116C232.499 680.364 152.882 619.201 136.653 593.088" stroke="url(#paint52_linear_159_2781)"/>
<path d="M1593.77 711.636C1536.74 648.56 1363.7 554.71 1127.69 683.925C832.686 845.443 1027.63 500.397 715.147 595.763C402.66 691.13 661.36 756.332 422.791 715.511C231.936 682.854 150.277 623.344 133.305 597.671" stroke="url(#paint53_linear_159_2781)"/>
<path d="M1603.93 693.506C1544.99 631.759 1368.44 541.208 1133.82 672.984C840.557 837.703 1028.64 492.338 716.181 591.666C403.721 690.994 665.855 751.83 424.582 714.89C231.564 685.337 147.887 627.499 130.177 602.274" stroke="url(#paint54_linear_159_2781)"/>
<path d="M1613.88 675.365C1553.02 614.966 1373.02 527.742 1139.87 662.039C848.434 829.909 1029.6 484.329 717.259 587.589C404.922 690.848 670.41 747.3 426.506 714.251C231.383 687.812 145.715 631.663 127.272 606.893" stroke="url(#paint55_linear_159_2781)"/>
<path d="M1623.59 657.216C1560.84 598.184 1377.45 514.313 1145.84 651.089C856.316 822.059 1030.5 476.371 718.383 583.53C406.262 690.689 675.024 742.739 428.564 713.593C231.396 690.276 143.762 635.833 124.591 611.526" stroke="url(#paint56_linear_159_2781)"/>
<path d="M1633.07 639.064C1568.46 581.416 1381.73 500.925 1151.72 640.139C864.202 814.157 1031.36 468.465 719.552 579.491C407.744 690.517 679.697 738.15 430.756 712.914C231.603 692.726 142.03 640.006 122.138 616.169" stroke="url(#paint57_linear_159_2781)"/>
<path d="M1642.32 620.91C1575.86 564.665 1385.85 487.577 1157.51 629.187C872.091 806.199 1032.17 460.609 720.768 575.469C409.367 690.329 684.429 733.529 433.083 712.212C232.005 695.159 140.52 644.177 119.913 620.818" stroke="url(#paint58_linear_159_2781)"/>
<path d="M1651.34 602.761C1583.05 547.935 1389.82 474.273 1163.22 618.236C879.981 798.189 1032.93 452.806 722.032 571.464C411.133 690.122 689.22 728.877 435.544 711.485C232.604 697.572 139.235 648.345 117.918 625.471" stroke="url(#paint59_linear_159_2781)"/>
<path d="M1660.12 584.618C1590.02 531.228 1393.63 461.016 1168.85 607.287C887.871 790.127 1033.65 445.056 723.343 567.476C413.04 689.896 694.068 724.194 438.141 710.733C233.399 699.964 138.175 652.507 116.155 630.124" stroke="url(#paint60_linear_159_2781)"/>
<path d="M1668.67 566.485C1596.78 514.547 1397.28 447.805 1174.38 596.341C895.76 782.011 1034.32 437.357 724.704 563.502C415.092 689.648 698.975 719.478 440.874 709.951C234.394 702.33 137.343 656.657 114.627 634.773" stroke="url(#paint61_linear_159_2781)"/>
<path d="M1676.98 548.365C1603.33 497.895 1400.78 434.645 1179.83 585.4C903.647 773.843 1034.94 429.712 726.114 559.543C417.288 689.375 703.938 714.728 443.743 709.139C235.586 704.668 136.738 660.793 113.334 639.414" stroke="url(#paint62_linear_159_2781)"/>
<path d="M1685.05 530.262C1609.65 481.276 1404.13 421.535 1185.2 574.463C911.529 765.623 1035.52 422.119 727.574 555.597C419.627 689.076 708.959 709.945 446.748 708.295C236.978 706.975 136.364 664.911 112.277 644.044" stroke="url(#paint63_linear_159_2781)"/>
<path d="M1692.87 512.18C1615.76 464.692 1407.32 408.48 1190.47 563.535C919.406 757.353 1036.06 414.58 729.086 551.665C422.112 688.75 714.037 705.129 449.89 707.418C238.572 709.25 136.221 669.01 111.46 648.661" stroke="url(#paint64_linear_159_2781)"/>
<path d="M1700.46 494.122C1621.65 448.147 1410.35 395.481 1195.65 552.614C927.278 749.031 1036.56 407.095 730.649 547.745C424.742 688.394 719.171 700.277 453.168 706.505C240.366 711.489 136.31 673.084 110.882 653.259" stroke="url(#paint65_linear_159_2781)"/>
<path d="M1707.8 476.09C1627.32 431.642 1413.23 382.537 1200.75 541.702C935.141 740.659 1037.01 399.663 732.263 543.834C427.517 688.005 724.359 695.388 456.582 705.554C242.361 713.687 136.631 677.131 110.544 657.836" stroke="url(#paint66_linear_159_2781)"/>
<path d="M1714.9 458.09C1632.77 415.183 1415.96 369.655 1205.75 530.803C942.996 732.238 1037.43 392.286 733.932 539.935C430.438 687.584 729.605 690.466 460.135 704.566C244.559 715.846 137.188 681.148 110.45 662.39" stroke="url(#paint67_linear_159_2781)"/>
<path d="M1721.76 440.123C1638 398.769 1418.53 356.832 1210.67 519.914C950.84 723.766 1037.8 384.962 735.654 536.044C433.505 687.125 734.904 685.504 463.824 703.534C246.959 717.958 137.98 685.13 110.598 666.914" stroke="url(#paint68_linear_159_2781)"/>
<path d="M1728.36 422.196C1643.01 382.408 1420.95 344.073 1215.49 509.039C958.674 715.247 1038.14 377.694 737.43 532.162C436.719 686.631 740.259 680.508 467.65 702.462C249.563 720.025 139.009 689.077 110.992 671.408" stroke="url(#paint69_linear_159_2781)"/>
<path d="M1734.72 404.308C1647.8 366.098 1423.21 331.378 1220.23 498.178C966.494 706.678 1038.44 370.479 739.261 528.287C440.078 686.095 745.667 675.472 471.613 701.344C252.37 722.041 140.274 692.982 111.631 675.866" stroke="url(#paint70_linear_159_2781)"/>
<path d="M1740.84 386.465C1652.37 349.845 1425.32 318.751 1224.87 487.334C974.301 698.063 1038.71 363.32 741.147 524.42C443.584 685.519 751.128 670.399 475.713 700.181C255.38 724.005 141.777 696.845 112.517 680.286" stroke="url(#paint71_linear_159_2781)"/>
<path d="M1746.7 368.67C1656.72 333.651 1427.28 306.192 1229.42 476.506C982.093 689.4 1038.94 356.215 743.089 520.557C447.237 684.9 756.643 665.288 479.949 698.969C258.594 725.915 143.518 700.66 113.649 684.664" stroke="url(#paint72_linear_159_2781)"/>
<path d="M1752.32 350.925C1660.84 317.518 1429.09 293.702 1233.88 465.696C989.868 680.69 1039.14 349.165 745.087 516.699C451.036 684.234 762.209 660.136 484.322 697.708C262.013 727.766 145.499 704.425 115.031 688.997" stroke="url(#paint73_linear_159_2781)"/>
<path d="M1757.68 333.236C1664.74 301.45 1430.74 281.285 1238.25 454.907C997.625 671.935 1039.3 342.17 747.143 512.847C454.982 683.523 767.828 654.946 488.832 696.396C265.636 729.557 147.719 708.137 116.661 693.282" stroke="url(#paint74_linear_159_2781)"/>
<path d="M1762.8 315.604C1668.42 285.45 1432.25 268.942 1242.52 444.138C1005.36 663.134 1039.44 335.231 749.255 508.997C459.075 682.762 773.497 649.715 493.478 695.032C269.462 731.286 150.179 711.793 118.54 697.515" stroke="url(#paint75_linear_159_2781)"/>
<path d="M1767.66 298.032C1671.88 269.519 1433.6 256.672 1246.71 433.39C1013.08 654.287 1039.54 328.345 751.426 505.147C463.313 681.95 779.217 644.442 498.259 693.612C273.493 732.947 152.88 715.388 120.67 701.692" stroke="url(#paint76_linear_159_2781)"/>
<path d="M1772.27 280.527C1675.12 253.664 1434.81 244.482 1250.8 422.668C1020.78 645.399 1039.61 321.517 753.656 501.302C467.699 681.087 784.988 639.131 503.177 692.138C277.729 734.543 155.823 718.923 123.051 705.813" stroke="url(#paint77_linear_159_2781)"/>
<path d="M1776.63 263.088C1678.13 237.882 1435.87 232.369 1254.8 411.968C1028.46 636.466 1039.66 314.743 755.945 497.456C472.23 680.169 790.808 633.776 508.23 690.605C282.167 736.067 159.005 722.391 125.682 709.87" stroke="url(#paint78_linear_159_2781)"/>
<path d="M1780.74 245.721C1680.93 222.18 1436.77 220.337 1258.7 401.294C1036.11 627.49 1039.68 308.024 758.292 493.609C476.907 679.194 796.676 628.38 513.417 689.012C286.81 737.518 162.429 725.789 128.565 713.862" stroke="url(#paint79_linear_159_2781)"/>
<path d="M1784.6 228.427C1683.5 206.558 1437.54 208.386 1262.51 390.646C1043.73 618.471 1039.67 301.359 760.7 489.76C481.729 678.162 802.593 622.941 518.739 687.359C291.656 738.893 166.094 729.115 131.699 717.785" stroke="url(#paint80_linear_159_2781)"/>
<path d="M1788.21 211.211C1685.85 191.021 1438.15 196.519 1266.23 380.027C1051.34 609.412 1039.64 294.751 763.167 485.91C486.696 677.07 808.556 617.459 524.194 685.643C296.704 740.19 170 732.367 135.085 721.637" stroke="url(#paint81_linear_159_2781)"/>
<path d="M1791.56 194.075C1687.98 175.571 1438.62 184.737 1269.86 369.437C1058.91 600.312 1039.58 288.197 765.695 482.057C491.808 675.916 814.567 611.935 529.783 683.864C301.956 741.407 174.148 735.54 138.722 725.414" stroke="url(#paint82_linear_159_2781)"/>
<path d="M1794.67 177.023C1689.89 160.21 1438.95 173.042 1273.4 358.877C1066.45 591.172 1039.5 281.699 768.284 478.2C497.064 674.7 820.623 606.367 535.505 682.019C307.41 742.541 178.537 738.632 142.612 729.113" stroke="url(#paint83_linear_159_2781)"/>
<path d="M1797.52 160.058C1691.58 144.941 1439.13 161.435 1276.84 348.35C1073.97 581.992 1039.4 275.256 770.934 474.338C502.465 673.42 826.725 600.755 541.358 680.107C313.065 743.589 183.166 741.641 146.753 732.731" stroke="url(#paint84_linear_159_2781)"/>
<path d="M1800.12 143.183C1693.05 129.767 1439.18 149.917 1280.19 337.854C1081.45 572.774 1039.28 268.867 773.646 470.47C508.008 672.072 832.872 595.098 547.344 678.127C318.921 744.55 188.037 744.561 151.147 736.264" stroke="url(#paint85_linear_159_2781)"/>
<path d="M1802.47 126.401C1694.31 114.689 1439.08 138.49 1283.45 327.392C1088.91 563.518 1039.14 262.533 776.42 466.595C513.694 670.656 839.062 589.397 553.459 676.076C324.978 745.419 193.147 747.392 155.791 739.71" stroke="url(#paint86_linear_159_2781)"/>
<path d="M1804.57 109.715C1695.34 99.7112 1438.84 127.156 1286.61 316.964C1096.33 554.225 1038.99 256.254 779.256 462.712C519.524 669.171 845.295 583.651 559.706 673.954C331.235 746.197 198.497 750.129 160.688 743.064" stroke="url(#paint87_linear_159_2781)"/>
<path d="M1806.42 93.1288C1696.16 84.8363 1438.46 115.916 1289.68 306.574C1103.71 544.896 1038.81 250.029 782.154 458.822C525.493 667.615 851.571 577.86 566.081 671.761C337.689 746.881 204.087 752.771 165.834 746.326" stroke="url(#paint88_linear_159_2781)"/>
<path d="M1808.02 76.6443C1696.77 70.0657 1437.95 104.771 1292.66 296.22C1111.06 535.532 1038.63 243.859 785.115 454.922C531.605 665.986 857.888 572.024 572.585 669.492C344.343 747.467 209.915 755.314 171.232 749.49" stroke="url(#paint89_linear_159_2781)"/>
<path d="M1809.37 60.2646C1697.16 55.4019 1437.3 93.722 1295.55 285.904C1118.38 526.132 1038.42 237.743 788.139 451.012C537.856 664.282 864.246 566.141 579.217 667.148C351.194 747.954 215.982 757.755 176.879 752.555" stroke="url(#paint90_linear_159_2781)"/>
<path d="M1810.47 43.993C1697.33 40.8476 1436.51 82.7709 1298.35 275.628C1125.65 516.699 1038.21 231.681 791.226 447.091C544.246 662.502 870.643 560.213 585.975 664.727C358.24 748.339 222.285 760.092 182.774 755.516" stroke="url(#paint91_linear_159_2781)"/>
<path d="M1811.33 27.833C1697.3 26.4058 1435.59 71.9197 1301.06 265.392C1132.89 507.233 1037.98 225.673 794.376 443.159C550.775 660.646 877.081 554.238 592.859 662.229C365.482 748.622 228.826 762.321 188.92 758.372" stroke="url(#paint92_linear_159_2781)"/>
<path d="M1811.94 11.7863C1697.05 12.0778 1434.54 61.1683 1303.67 255.198C1140.09 497.735 1037.74 219.718 797.59 439.214C557.442 658.709 883.556 548.217 599.869 659.651C372.919 748.798 235.603 764.441 195.313 761.119" stroke="url(#paint93_linear_159_2781)"/>
<path d="M1812.31 -4.14376C1696.59 -2.1336 1433.36 50.5185 1306.2 245.046C1147.25 488.205 1037.49 213.816 800.868 435.254C564.246 656.693 890.069 542.149 607.002 656.992C380.548 748.866 242.614 766.448 201.954 763.755" stroke="url(#paint94_linear_159_2781)"/>
<path d="M1812.43 -19.9546C1695.92 -16.2264 1432.05 39.9714 1308.63 234.937C1154.36 478.644 1037.23 207.967 804.209 431.281C571.185 654.594 896.619 536.034 614.258 654.25C388.369 748.824 249.859 768.34 208.84 766.276" stroke="url(#paint95_linear_159_2781)"/>
<path d="M1812.3 -35.6429C1695.04 -30.1979 1430.62 29.5284 1310.98 224.873C1161.44 469.054 1036.97 202.172 807.615 427.292C578.26 652.413 903.204 529.871 621.636 651.426C396.381 748.67 257.337 770.113 215.972 768.679" stroke="url(#paint96_linear_159_2781)"/>
<path d="M1811.94 -51.2066C1693.96 -44.0463 1429.05 19.1904 1313.24 214.855C1168.46 459.435 1036.7 196.428 811.084 423.287C585.468 650.146 909.824 523.662 629.134 648.518C404.581 748.403 265.046 771.767 223.347 770.963" stroke="url(#paint97_linear_159_2781)"/>
<path d="M1811.33 -66.6423C1692.68 -57.769 1427.37 8.95871 1315.4 204.883C1175.45 449.789 1036.42 190.737 814.617 419.266C592.809 647.794 916.478 517.405 636.751 645.524C412.97 748.019 272.986 773.297 230.966 773.124" stroke="url(#paint98_linear_159_2781)"/>
<path d="M1810.49 -81.9478C1691.19 -71.3642 1425.56 -1.16579 1317.48 194.959C1182.39 440.115 1036.15 185.098 818.215 415.226C600.282 645.355 923.166 511.1 644.488 642.443C421.546 747.518 281.155 774.701 238.828 775.159" stroke="url(#paint99_linear_159_2781)"/>
<defs>
<linearGradient id="paint0_linear_159_2781" x1="761.323" y1="978.491" x2="550.985" y2="1034.86" gradientUnits="userSpaceOnUse">
<stop stop-color="#037159"/>
<stop offset="1" stop-color="#F9AF7C"/>
</linearGradient>
<linearGradient id="paint1_linear_159_2781" x1="764.712" y1="970.562" x2="555.16" y2="1032.87" gradientUnits="userSpaceOnUse">
<stop stop-color="#037159"/>
<stop offset="1" stop-color="#F9AF7C"/>
</linearGradient>
<linearGradient id="paint2_linear_159_2781" x1="768.071" y1="962.645" x2="559.572" y2="1030.91" gradientUnits="userSpaceOnUse">
<stop stop-color="#037159"/>
<stop offset="1" stop-color="#F9AF7C"/>
</linearGradient>
<linearGradient id="paint3_linear_159_2781" x1="771.399" y1="954.743" x2="564.226" y2="1028.96" gradientUnits="userSpaceOnUse">
<stop stop-color="#037159"/>
<stop offset="1" stop-color="#F9AF7C"/>
</linearGradient>
<linearGradient id="paint4_linear_159_2781" x1="774.696" y1="946.854" x2="569.121" y2="1026.99" gradientUnits="userSpaceOnUse">
<stop stop-color="#037159"/>
<stop offset="1" stop-color="#F9AF7C"/>
</linearGradient>
<linearGradient id="paint5_linear_159_2781" x1="777.964" y1="938.983" x2="574.261" y2="1025" gradientUnits="userSpaceOnUse">
<stop stop-color="#037159"/>
<stop offset="1" stop-color="#F9AF7C"/>
</linearGradient>
<linearGradient id="paint6_linear_159_2781" x1="781.201" y1="931.125" x2="579.642" y2="1022.96" gradientUnits="userSpaceOnUse">
<stop stop-color="#037159"/>
<stop offset="1" stop-color="#F9AF7C"/>
</linearGradient>
<linearGradient id="paint7_linear_159_2781" x1="784.408" y1="923.282" x2="585.262" y2="1020.85" gradientUnits="userSpaceOnUse">
<stop stop-color="#037159"/>
<stop offset="1" stop-color="#F9AF7C"/>
</linearGradient>
<linearGradient id="paint8_linear_159_2781" x1="787.586" y1="915.456" x2="591.116" y2="1018.65" gradientUnits="userSpaceOnUse">
<stop stop-color="#037159"/>
<stop offset="1" stop-color="#F9AF7C"/>
</linearGradient>
<linearGradient id="paint9_linear_159_2781" x1="790.733" y1="907.646" x2="597.196" y2="1016.35" gradientUnits="userSpaceOnUse">
<stop stop-color="#037159"/>
<stop offset="1" stop-color="#F9AF7C"/>
</linearGradient>
<linearGradient id="paint10_linear_159_2781" x1="793.851" y1="899.854" x2="603.493" y2="1013.93" gradientUnits="userSpaceOnUse">
<stop stop-color="#037159"/>
<stop offset="1" stop-color="#F9AF7C"/>
</linearGradient>
<linearGradient id="paint11_linear_159_2781" x1="796.94" y1="892.076" x2="609.998" y2="1011.37" gradientUnits="userSpaceOnUse">
<stop stop-color="#037159"/>
<stop offset="1" stop-color="#F9AF7C"/>
</linearGradient>
<linearGradient id="paint12_linear_159_2781" x1="800" y1="884.318" x2="616.698" y2="1008.65" gradientUnits="userSpaceOnUse">
<stop stop-color="#037159"/>
<stop offset="1" stop-color="#F9AF7C"/>
</linearGradient>
<linearGradient id="paint13_linear_159_2781" x1="803.031" y1="876.576" x2="623.579" y2="1005.77" gradientUnits="userSpaceOnUse">
<stop stop-color="#037159"/>
<stop offset="1" stop-color="#F9AF7C"/>
</linearGradient>
<linearGradient id="paint14_linear_159_2781" x1="806.033" y1="868.851" x2="630.628" y2="1002.7" gradientUnits="userSpaceOnUse">
<stop stop-color="#037159"/>
<stop offset="1" stop-color="#F9AF7C"/>
</linearGradient>
<linearGradient id="paint15_linear_159_2781" x1="809.007" y1="861.146" x2="637.828" y2="999.443" gradientUnits="userSpaceOnUse">
<stop stop-color="#037159"/>
<stop offset="1" stop-color="#F9AF7C"/>
</linearGradient>
<linearGradient id="paint16_linear_159_2781" x1="811.953" y1="853.458" x2="645.162" y2="995.981" gradientUnits="userSpaceOnUse">
<stop stop-color="#037159"/>
<stop offset="1" stop-color="#F9AF7C"/>
</linearGradient>
<linearGradient id="paint17_linear_159_2781" x1="814.87" y1="845.789" x2="652.615" y2="992.309" gradientUnits="userSpaceOnUse">
<stop stop-color="#037159"/>
<stop offset="1" stop-color="#F9AF7C"/>
</linearGradient>
<linearGradient id="paint18_linear_159_2781" x1="817.76" y1="838.139" x2="660.168" y2="988.422" gradientUnits="userSpaceOnUse">
<stop stop-color="#037159"/>
<stop offset="1" stop-color="#F9AF7C"/>
</linearGradient>
<linearGradient id="paint19_linear_159_2781" x1="820.622" y1="830.509" x2="667.803" y2="984.313" gradientUnits="userSpaceOnUse">
<stop stop-color="#037159"/>
<stop offset="1" stop-color="#F9AF7C"/>
</linearGradient>
<linearGradient id="paint20_linear_159_2781" x1="823.457" y1="822.898" x2="675.503" y2="979.982" gradientUnits="userSpaceOnUse">
<stop stop-color="#037159"/>
<stop offset="1" stop-color="#F9AF7C"/>
</linearGradient>
<linearGradient id="paint21_linear_159_2781" x1="826.265" y1="815.306" x2="683.251" y2="975.426" gradientUnits="userSpaceOnUse">
<stop stop-color="#037159"/>
<stop offset="1" stop-color="#F9AF7C"/>
</linearGradient>
<linearGradient id="paint22_linear_159_2781" x1="829.047" y1="807.735" x2="691.029" y2="970.647" gradientUnits="userSpaceOnUse">
<stop stop-color="#037159"/>
<stop offset="1" stop-color="#F9AF7C"/>
</linearGradient>
<linearGradient id="paint23_linear_159_2781" x1="831.802" y1="800.183" x2="698.821" y2="965.646" gradientUnits="userSpaceOnUse">
<stop stop-color="#037159"/>
<stop offset="1" stop-color="#F9AF7C"/>
</linearGradient>
<linearGradient id="paint24_linear_159_2781" x1="834.53" y1="792.652" x2="706.611" y2="960.427" gradientUnits="userSpaceOnUse">
<stop stop-color="#037159"/>
<stop offset="1" stop-color="#F9AF7C"/>
</linearGradient>
<linearGradient id="paint25_linear_159_2781" x1="837.234" y1="785.143" x2="714.384" y2="954.995" gradientUnits="userSpaceOnUse">
<stop stop-color="#037159"/>
<stop offset="1" stop-color="#F9AF7C"/>
</linearGradient>
<linearGradient id="paint26_linear_159_2781" x1="839.911" y1="777.653" x2="722.126" y2="949.355" gradientUnits="userSpaceOnUse">
<stop stop-color="#037159"/>
<stop offset="1" stop-color="#F9AF7C"/>
</linearGradient>
<linearGradient id="paint27_linear_159_2781" x1="842.563" y1="770.186" x2="729.823" y2="943.516" gradientUnits="userSpaceOnUse">
<stop stop-color="#037159"/>
<stop offset="1" stop-color="#F9AF7C"/>
</linearGradient>
<linearGradient id="paint28_linear_159_2781" x1="845.191" y1="762.739" x2="737.464" y2="937.483" gradientUnits="userSpaceOnUse">
<stop stop-color="#037159"/>
<stop offset="1" stop-color="#F9AF7C"/>
</linearGradient>
<linearGradient id="paint29_linear_159_2781" x1="847.794" y1="755.314" x2="745.038" y2="931.265" gradientUnits="userSpaceOnUse">
<stop stop-color="#037159"/>
<stop offset="1" stop-color="#F9AF7C"/>
</linearGradient>
<linearGradient id="paint30_linear_159_2781" x1="850.373" y1="747.912" x2="752.534" y2="924.873" gradientUnits="userSpaceOnUse">
<stop stop-color="#037159"/>
<stop offset="1" stop-color="#F9AF7C"/>
</linearGradient>
<linearGradient id="paint31_linear_159_2781" x1="852.927" y1="740.53" x2="759.943" y2="918.312" gradientUnits="userSpaceOnUse">
<stop stop-color="#037159"/>
<stop offset="1" stop-color="#F9AF7C"/>
</linearGradient>
<linearGradient id="paint32_linear_159_2781" x1="855.459" y1="733.171" x2="767.258" y2="911.597" gradientUnits="userSpaceOnUse">
<stop stop-color="#037159"/>
<stop offset="1" stop-color="#F9AF7C"/>
</linearGradient>
<linearGradient id="paint33_linear_159_2781" x1="857.967" y1="725.835" x2="774.471" y2="904.734" gradientUnits="userSpaceOnUse">
<stop stop-color="#037159"/>
<stop offset="1" stop-color="#F9AF7C"/>
</linearGradient>
<linearGradient id="paint34_linear_159_2781" x1="860.453" y1="718.521" x2="781.579" y2="897.733" gradientUnits="userSpaceOnUse">
<stop stop-color="#037159"/>
<stop offset="1" stop-color="#F9AF7C"/>
</linearGradient>
<linearGradient id="paint35_linear_159_2781" x1="862.916" y1="711.23" x2="788.573" y2="890.606" gradientUnits="userSpaceOnUse">
<stop stop-color="#037159"/>
<stop offset="1" stop-color="#F9AF7C"/>
</linearGradient>
<linearGradient id="paint36_linear_159_2781" x1="865.357" y1="703.961" x2="795.452" y2="883.362" gradientUnits="userSpaceOnUse">
<stop stop-color="#037159"/>
<stop offset="1" stop-color="#F9AF7C"/>
</linearGradient>
<linearGradient id="paint37_linear_159_2781" x1="867.777" y1="696.716" x2="802.211" y2="876.011" gradientUnits="userSpaceOnUse">
<stop stop-color="#037159"/>
<stop offset="1" stop-color="#F9AF7C"/>
</linearGradient>
<linearGradient id="paint38_linear_159_2781" x1="870.175" y1="689.494" x2="808.85" y2="868.562" gradientUnits="userSpaceOnUse">
<stop stop-color="#037159"/>
<stop offset="1" stop-color="#F9AF7C"/>
</linearGradient>
<linearGradient id="paint39_linear_159_2781" x1="872.553" y1="682.295" x2="815.365" y2="861.024" gradientUnits="userSpaceOnUse">
<stop stop-color="#037159"/>
<stop offset="1" stop-color="#F9AF7C"/>
</linearGradient>
<linearGradient id="paint40_linear_159_2781" x1="874.91" y1="675.12" x2="821.756" y2="853.407" gradientUnits="userSpaceOnUse">
<stop stop-color="#037159"/>
<stop offset="1" stop-color="#F9AF7C"/>
</linearGradient>
<linearGradient id="paint41_linear_159_2781" x1="877.248" y1="667.969" x2="828.023" y2="845.719" gradientUnits="userSpaceOnUse">
<stop stop-color="#037159"/>
<stop offset="1" stop-color="#F9AF7C"/>
</linearGradient>
<linearGradient id="paint42_linear_159_2781" x1="879.565" y1="660.841" x2="834.165" y2="837.968" gradientUnits="userSpaceOnUse">
<stop stop-color="#037159"/>
<stop offset="1" stop-color="#F9AF7C"/>
</linearGradient>
<linearGradient id="paint43_linear_159_2781" x1="881.864" y1="653.737" x2="840.185" y2="830.162" gradientUnits="userSpaceOnUse">
<stop stop-color="#037159"/>
<stop offset="1" stop-color="#F9AF7C"/>
</linearGradient>
<linearGradient id="paint44_linear_159_2781" x1="884.144" y1="646.657" x2="846.081" y2="822.309" gradientUnits="userSpaceOnUse">
<stop stop-color="#037159"/>
<stop offset="1" stop-color="#F9AF7C"/>
</linearGradient>
<linearGradient id="paint45_linear_159_2781" x1="886.405" y1="639.601" x2="851.858" y2="814.416" gradientUnits="userSpaceOnUse">
<stop stop-color="#037159"/>
<stop offset="1" stop-color="#F9AF7C"/>
</linearGradient>
<linearGradient id="paint46_linear_159_2781" x1="888.649" y1="632.569" x2="857.515" y2="806.49" gradientUnits="userSpaceOnUse">
<stop stop-color="#037159"/>
<stop offset="1" stop-color="#F9AF7C"/>
</linearGradient>
<linearGradient id="paint47_linear_159_2781" x1="890.876" y1="625.562" x2="863.056" y2="798.536" gradientUnits="userSpaceOnUse">
<stop stop-color="#037159"/>
<stop offset="1" stop-color="#F9AF7C"/>
</linearGradient>
<linearGradient id="paint48_linear_159_2781" x1="893.085" y1="618.578" x2="868.481" y2="790.561" gradientUnits="userSpaceOnUse">
<stop stop-color="#037159"/>
<stop offset="1" stop-color="#F9AF7C"/>
</linearGradient>
<linearGradient id="paint49_linear_159_2781" x1="895.278" y1="611.62" x2="873.796" y2="782.572" gradientUnits="userSpaceOnUse">
<stop stop-color="#037159"/>
<stop offset="1" stop-color="#F9AF7C"/>
</linearGradient>
<linearGradient id="paint50_linear_159_2781" x1="897.456" y1="604.686" x2="879.002" y2="774.571" gradientUnits="userSpaceOnUse">
<stop stop-color="#037159"/>
<stop offset="1" stop-color="#F9AF7C"/>
</linearGradient>
<linearGradient id="paint51_linear_159_2781" x1="899.617" y1="597.775" x2="884.101" y2="766.564" gradientUnits="userSpaceOnUse">
<stop stop-color="#037159"/>
<stop offset="1" stop-color="#F9AF7C"/>
</linearGradient>
<linearGradient id="paint52_linear_159_2781" x1="901.764" y1="590.889" x2="889.098" y2="758.557" gradientUnits="userSpaceOnUse">
<stop stop-color="#037159"/>
<stop offset="1" stop-color="#F9AF7C"/>
</linearGradient>
<linearGradient id="paint53_linear_159_2781" x1="903.896" y1="584.029" x2="893.995" y2="750.554" gradientUnits="userSpaceOnUse">
<stop stop-color="#037159"/>
<stop offset="1" stop-color="#F9AF7C"/>
</linearGradient>
<linearGradient id="paint54_linear_159_2781" x1="906.014" y1="577.193" x2="898.795" y2="742.557" gradientUnits="userSpaceOnUse">
<stop stop-color="#037159"/>
<stop offset="1" stop-color="#F9AF7C"/>
</linearGradient>
<linearGradient id="paint55_linear_159_2781" x1="908.118" y1="570.382" x2="903.502" y2="734.571" gradientUnits="userSpaceOnUse">
<stop stop-color="#037159"/>
<stop offset="1" stop-color="#F9AF7C"/>
</linearGradient>
<linearGradient id="paint56_linear_159_2781" x1="910.209" y1="563.594" x2="908.119" y2="726.597" gradientUnits="userSpaceOnUse">
<stop stop-color="#037159"/>
<stop offset="1" stop-color="#F9AF7C"/>
</linearGradient>
<linearGradient id="paint57_linear_159_2781" x1="912.288" y1="556.833" x2="912.649" y2="718.642" gradientUnits="userSpaceOnUse">
<stop stop-color="#037159"/>
<stop offset="1" stop-color="#F9AF7C"/>
</linearGradient>
<linearGradient id="paint58_linear_159_2781" x1="914.355" y1="550.094" x2="917.097" y2="710.704" gradientUnits="userSpaceOnUse">
<stop stop-color="#037159"/>
<stop offset="1" stop-color="#F9AF7C"/>
</linearGradient>
<linearGradient id="paint59_linear_159_2781" x1="916.41" y1="543.382" x2="921.464" y2="702.789" gradientUnits="userSpaceOnUse">
<stop stop-color="#037159"/>
<stop offset="1" stop-color="#F9AF7C"/>
</linearGradient>
<linearGradient id="paint60_linear_159_2781" x1="918.454" y1="536.694" x2="925.754" y2="694.899" gradientUnits="userSpaceOnUse">
<stop stop-color="#037159"/>
<stop offset="1" stop-color="#F9AF7C"/>
</linearGradient>
<linearGradient id="paint61_linear_159_2781" x1="920.487" y1="530.03" x2="929.971" y2="687.034" gradientUnits="userSpaceOnUse">
<stop stop-color="#037159"/>
<stop offset="1" stop-color="#F9AF7C"/>
</linearGradient>
<linearGradient id="paint62_linear_159_2781" x1="922.511" y1="523.391" x2="934.117" y2="679.196" gradientUnits="userSpaceOnUse">
<stop stop-color="#037159"/>
<stop offset="1" stop-color="#F9AF7C"/>
</linearGradient>
<linearGradient id="paint63_linear_159_2781" x1="924.524" y1="516.776" x2="938.197" y2="671.389" gradientUnits="userSpaceOnUse">
<stop stop-color="#037159"/>
<stop offset="1" stop-color="#F9AF7C"/>
</linearGradient>
<linearGradient id="paint64_linear_159_2781" x1="926.529" y1="510.186" x2="942.212" y2="663.613" gradientUnits="userSpaceOnUse">
<stop stop-color="#037159"/>
<stop offset="1" stop-color="#F9AF7C"/>
</linearGradient>
<linearGradient id="paint65_linear_159_2781" x1="928.526" y1="503.621" x2="946.167" y2="655.869" gradientUnits="userSpaceOnUse">
<stop stop-color="#037159"/>
<stop offset="1" stop-color="#F9AF7C"/>
</linearGradient>
<linearGradient id="paint66_linear_159_2781" x1="930.513" y1="497.079" x2="950.063" y2="648.157" gradientUnits="userSpaceOnUse">
<stop stop-color="#037159"/>
<stop offset="1" stop-color="#F9AF7C"/>
</linearGradient>
<linearGradient id="paint67_linear_159_2781" x1="932.495" y1="490.564" x2="953.905" y2="640.482" gradientUnits="userSpaceOnUse">
<stop stop-color="#037159"/>
<stop offset="1" stop-color="#F9AF7C"/>
</linearGradient>
<linearGradient id="paint68_linear_159_2781" x1="934.469" y1="484.07" x2="957.694" y2="632.84" gradientUnits="userSpaceOnUse">
<stop stop-color="#037159"/>
<stop offset="1" stop-color="#F9AF7C"/>
</linearGradient>
<linearGradient id="paint69_linear_159_2781" x1="936.437" y1="477.603" x2="961.435" y2="625.236" gradientUnits="userSpaceOnUse">
<stop stop-color="#037159"/>
<stop offset="1" stop-color="#F9AF7C"/>
</linearGradient>
<linearGradient id="paint70_linear_159_2781" x1="938.398" y1="471.158" x2="965.129" y2="617.667" gradientUnits="userSpaceOnUse">
<stop stop-color="#037159"/>
<stop offset="1" stop-color="#F9AF7C"/>
</linearGradient>
<linearGradient id="paint71_linear_159_2781" x1="940.355" y1="464.739" x2="968.779" y2="610.136" gradientUnits="userSpaceOnUse">
<stop stop-color="#037159"/>
<stop offset="1" stop-color="#F9AF7C"/>
</linearGradient>
<linearGradient id="paint72_linear_159_2781" x1="942.306" y1="458.343" x2="972.388" y2="602.643" gradientUnits="userSpaceOnUse">
<stop stop-color="#037159"/>
<stop offset="1" stop-color="#F9AF7C"/>
</linearGradient>
<linearGradient id="paint73_linear_159_2781" x1="944.254" y1="451.97" x2="975.959" y2="595.186" gradientUnits="userSpaceOnUse">
<stop stop-color="#037159"/>
<stop offset="1" stop-color="#F9AF7C"/>
</linearGradient>
<linearGradient id="paint74_linear_159_2781" x1="946.198" y1="445.622" x2="979.494" y2="587.769" gradientUnits="userSpaceOnUse">
<stop stop-color="#037159"/>
<stop offset="1" stop-color="#F9AF7C"/>
</linearGradient>
<linearGradient id="paint75_linear_159_2781" x1="948.138" y1="439.297" x2="982.996" y2="580.391" gradientUnits="userSpaceOnUse">
<stop stop-color="#037159"/>
<stop offset="1" stop-color="#F9AF7C"/>
</linearGradient>
<linearGradient id="paint76_linear_159_2781" x1="950.076" y1="432.994" x2="986.466" y2="573.049" gradientUnits="userSpaceOnUse">
<stop stop-color="#037159"/>
<stop offset="1" stop-color="#F9AF7C"/>
</linearGradient>
<linearGradient id="paint77_linear_159_2781" x1="952.013" y1="426.718" x2="989.909" y2="565.748" gradientUnits="userSpaceOnUse">
<stop stop-color="#037159"/>
<stop offset="1" stop-color="#F9AF7C"/>
</linearGradient>
<linearGradient id="paint78_linear_159_2781" x1="953.948" y1="420.463" x2="993.325" y2="558.484" gradientUnits="userSpaceOnUse">
<stop stop-color="#037159"/>
<stop offset="1" stop-color="#F9AF7C"/>
</linearGradient>
<linearGradient id="paint79_linear_159_2781" x1="955.881" y1="414.231" x2="996.717" y2="551.259" gradientUnits="userSpaceOnUse">
<stop stop-color="#037159"/>
<stop offset="1" stop-color="#F9AF7C"/>
</linearGradient>
<linearGradient id="paint80_linear_159_2781" x1="957.814" y1="408.021" x2="1000.09" y2="544.071" gradientUnits="userSpaceOnUse">
<stop stop-color="#037159"/>
<stop offset="1" stop-color="#F9AF7C"/>
</linearGradient>
<linearGradient id="paint81_linear_159_2781" x1="959.747" y1="401.835" x2="1003.44" y2="536.921" gradientUnits="userSpaceOnUse">
<stop stop-color="#037159"/>
<stop offset="1" stop-color="#F9AF7C"/>
</linearGradient>
<linearGradient id="paint82_linear_159_2781" x1="961.681" y1="395.67" x2="1006.77" y2="529.809" gradientUnits="userSpaceOnUse">
<stop stop-color="#037159"/>
<stop offset="1" stop-color="#F9AF7C"/>
</linearGradient>
<linearGradient id="paint83_linear_159_2781" x1="963.616" y1="389.529" x2="1010.09" y2="522.735" gradientUnits="userSpaceOnUse">
<stop stop-color="#037159"/>
<stop offset="1" stop-color="#F9AF7C"/>
</linearGradient>
<linearGradient id="paint84_linear_159_2781" x1="965.553" y1="383.41" x2="1013.39" y2="515.698" gradientUnits="userSpaceOnUse">
<stop stop-color="#037159"/>
<stop offset="1" stop-color="#F9AF7C"/>
</linearGradient>
<linearGradient id="paint85_linear_159_2781" x1="967.492" y1="377.312" x2="1016.68" y2="508.697" gradientUnits="userSpaceOnUse">
<stop stop-color="#037159"/>
<stop offset="1" stop-color="#F9AF7C"/>
</linearGradient>
<linearGradient id="paint86_linear_159_2781" x1="969.434" y1="371.236" x2="1019.97" y2="501.732" gradientUnits="userSpaceOnUse">
<stop stop-color="#037159"/>
<stop offset="1" stop-color="#F9AF7C"/>
</linearGradient>
<linearGradient id="paint87_linear_159_2781" x1="971.38" y1="365.181" x2="1023.24" y2="494.803" gradientUnits="userSpaceOnUse">
<stop stop-color="#037159"/>
<stop offset="1" stop-color="#F9AF7C"/>
</linearGradient>
<linearGradient id="paint88_linear_159_2781" x1="973.329" y1="359.149" x2="1026.52" y2="487.909" gradientUnits="userSpaceOnUse">
<stop stop-color="#037159"/>
<stop offset="1" stop-color="#F9AF7C"/>
</linearGradient>
<linearGradient id="paint89_linear_159_2781" x1="975.282" y1="353.137" x2="1029.78" y2="481.05" gradientUnits="userSpaceOnUse">
<stop stop-color="#037159"/>
<stop offset="1" stop-color="#F9AF7C"/>
</linearGradient>
<linearGradient id="paint90_linear_159_2781" x1="977.241" y1="347.146" x2="1033.05" y2="474.225" gradientUnits="userSpaceOnUse">
<stop stop-color="#037159"/>
<stop offset="1" stop-color="#F9AF7C"/>
</linearGradient>
<linearGradient id="paint91_linear_159_2781" x1="979.205" y1="341.175" x2="1036.31" y2="467.433" gradientUnits="userSpaceOnUse">
<stop stop-color="#037159"/>
<stop offset="1" stop-color="#F9AF7C"/>
</linearGradient>
<linearGradient id="paint92_linear_159_2781" x1="981.175" y1="335.226" x2="1039.58" y2="460.675" gradientUnits="userSpaceOnUse">
<stop stop-color="#037159"/>
<stop offset="1" stop-color="#F9AF7C"/>
</linearGradient>
<linearGradient id="paint93_linear_159_2781" x1="983.153" y1="329.296" x2="1042.85" y2="453.948" gradientUnits="userSpaceOnUse">
<stop stop-color="#037159"/>
<stop offset="1" stop-color="#F9AF7C"/>
</linearGradient>
<linearGradient id="paint94_linear_159_2781" x1="985.137" y1="323.386" x2="1046.12" y2="447.253" gradientUnits="userSpaceOnUse">
<stop stop-color="#037159"/>
<stop offset="1" stop-color="#F9AF7C"/>
</linearGradient>
<linearGradient id="paint95_linear_159_2781" x1="987.128" y1="317.496" x2="1049.41" y2="440.589" gradientUnits="userSpaceOnUse">
<stop stop-color="#037159"/>
<stop offset="1" stop-color="#F9AF7C"/>
</linearGradient>
<linearGradient id="paint96_linear_159_2781" x1="989.128" y1="311.625" x2="1052.7" y2="433.954" gradientUnits="userSpaceOnUse">
<stop stop-color="#037159"/>
<stop offset="1" stop-color="#F9AF7C"/>
</linearGradient>
<linearGradient id="paint97_linear_159_2781" x1="991.137" y1="305.773" x2="1056" y2="427.349" gradientUnits="userSpaceOnUse">
<stop stop-color="#037159"/>
<stop offset="1" stop-color="#F9AF7C"/>
</linearGradient>
<linearGradient id="paint98_linear_159_2781" x1="993.155" y1="299.94" x2="1059.31" y2="420.773" gradientUnits="userSpaceOnUse">
<stop stop-color="#037159"/>
<stop offset="1" stop-color="#F9AF7C"/>
</linearGradient>
<linearGradient id="paint99_linear_159_2781" x1="995.182" y1="294.126" x2="1062.64" y2="414.224" gradientUnits="userSpaceOnUse">
<stop stop-color="#037159"/>
<stop offset="1" stop-color="#F9AF7C"/>
</linearGradient>
</defs>
</svg>
