<svg width="60" height="50" viewBox="0 0 60 50" fill="none" xmlns="http://www.w3.org/2000/svg">
<path fill-rule="evenodd" clip-rule="evenodd" d="M32.3269 1.58318C32.0652 1.74076 31.8295 2.03394 31.3766 2.76515C30.4642 4.23856 29.1266 6.95485 27.2078 11.2311C27.0068 11.6789 26.8328 12.0455 26.8211 12.0455C26.8094 12.0455 26.8052 11.5597 26.8118 10.9659C26.8251 9.76379 26.7738 9.44629 26.5723 9.48447C26.46 9.50576 26.4332 9.64993 26.3861 10.487C26.2821 12.3365 25.7047 14.5524 24.5882 17.3864C24.2686 18.1975 23.8569 19.3163 23.3017 20.882C22.8899 22.0432 22.7107 22.4557 22.5843 22.533C22.5461 22.5564 22.4473 22.4624 22.3649 22.3242C22.183 22.0189 21.7876 21.8208 21.3402 21.8106C20.4853 21.7912 20.3943 21.5871 20.9911 21.0284C21.5099 20.5427 22.4082 20.0799 22.9661 20.0109L23.3799 19.9598L23.3736 19.643C23.3659 19.2587 23.0476 18.743 22.7453 18.6252C22.2813 18.4445 21.3298 18.9083 20.4178 19.7599C19.4099 20.7011 18.7651 21.6641 18.8688 22.0731C18.8946 22.175 18.9994 22.3361 19.1016 22.4311C19.2678 22.5857 19.3879 22.6086 20.2386 22.6485C20.7617 22.673 21.2131 22.7162 21.2417 22.7445C21.3495 22.8513 21.1857 23.1614 20.7442 23.6864C20.105 24.4467 19.8174 24.6482 19.3417 24.6699C18.7971 24.6946 18.7432 24.8072 18.9455 25.4964C19.0817 25.9599 19.3915 26.3301 19.7094 26.409C20.1758 26.5249 21.0209 26.1413 21.5946 25.5533C21.7492 25.3948 22.0312 25.0294 22.2214 24.7413C22.5627 24.2239 22.5676 24.2201 22.617 24.4383C22.7134 24.8636 22.7414 24.9268 22.9351 25.1546C23.2068 25.4742 23.5003 25.6061 23.9407 25.6061C24.4511 25.6061 24.5473 25.4843 24.3389 25.1014C24.1474 24.7491 24.1775 24.5602 24.5421 23.8258C25.0067 22.8902 26.375 21.0127 26.5022 21.1364C26.5237 21.1572 26.305 21.7708 26.0164 22.5C25.5274 23.7353 24.7731 25.9275 24.6859 26.3669C24.6493 26.5512 24.6022 26.567 23.5928 26.7347C20.4496 27.2568 16.505 28.1499 15.8245 28.4935C15.4553 28.6799 15.4565 28.8269 15.8309 29.2957C16.2233 29.7871 16.5794 30.0758 16.7934 30.0758C16.8895 30.0758 17.4809 29.9564 18.1077 29.8105C21.0123 29.1344 24.2581 28.4881 24.7619 28.4856C24.8486 28.4852 25.1013 28.6583 25.3235 28.8703C25.7733 29.2994 26.1118 29.4697 26.5152 29.4697C26.9592 29.4697 27.2498 29.0719 26.9695 28.8477C26.3766 28.3733 26.3396 28.2192 26.8046 28.1604C29.6717 27.7975 33.199 27.5013 34.6681 27.4999C35.1101 27.4995 35.6036 27.4629 35.7648 27.4186C36.1118 27.3232 36.2365 27.0907 36.3167 26.3896C36.4072 25.597 36.4303 25.6008 32.6018 25.7935C30.6446 25.892 27.6258 26.1424 26.9494 26.2623L26.6923 26.3078L26.7477 26.0517C26.945 25.1374 28.0153 22.116 28.8467 20.1261C29.0179 19.7164 29.1579 19.2896 29.1579 19.1778C29.1579 18.8966 28.8364 18.4551 28.5251 18.3089C27.9807 18.0531 27.4364 18.4002 26.1226 19.8411C25.668 20.3398 25.2832 20.7352 25.2676 20.7196C25.1181 20.5717 27.4304 15.0422 29.1197 11.5079C29.9688 9.73144 31.8587 6.02728 32.0051 5.85265C32.1276 5.70659 32.185 5.80796 32.2944 6.36364C32.3477 6.63447 32.5753 7.6144 32.8002 8.54129C33.8163 12.7297 35.1924 15.7154 36.3222 16.1827C36.6231 16.3071 37.5521 16.3219 37.8583 16.207C38.1464 16.099 38.4181 15.8386 38.4181 15.6705C38.4181 15.5933 38.3103 15.479 38.1694 15.4069C37.7111 15.1723 37.4886 14.9654 37.1459 14.4553C36.4201 13.3752 35.4353 10.9147 34.6284 8.16622C34.2842 6.99379 34.0836 5.78319 33.9781 4.24243C33.9311 3.55493 33.8789 2.92425 33.8623 2.84091C33.8195 2.62667 33.0115 1.6844 32.7602 1.55576C32.5742 1.46053 32.5255 1.46364 32.3269 1.58318ZM43.9124 11.8371C43.8455 11.8892 43.4108 12.6015 42.9466 13.4199C41.2057 16.4888 39.8686 18.5842 38.5303 20.3409C37.8682 21.2099 37.4998 21.6063 37.4998 21.4495C37.4998 21.3988 37.6944 20.8389 37.9323 20.2052C38.4661 18.7833 38.5251 18.5405 38.4161 18.2136C38.3206 17.9272 37.8692 17.5 37.662 17.5C37.452 17.5 37.3139 17.7028 37.0426 18.4091C36.4069 20.0649 35.4145 21.819 34.6937 22.561C34.2999 22.9664 34.2776 22.9787 34.3242 22.7652C34.3937 22.4465 34.8354 21.4626 35.3105 20.5682C35.9749 19.3174 35.989 19.1671 35.4902 18.6553C35.2557 18.4145 34.9963 18.3474 34.7147 18.4543C34.6492 18.4792 34.1819 19.0224 33.6764 19.6613C33.1708 20.3002 32.7236 20.8435 32.6827 20.8686C32.6418 20.8936 32.7273 20.6555 32.8729 20.3392C33.0184 20.023 33.1375 19.6703 33.1375 19.5555C33.1375 19.3158 32.8363 18.9938 32.4912 18.8647C32.1919 18.7527 31.981 18.9054 31.5447 19.5502C31.0518 20.2784 30.8164 20.5864 30.8822 20.4167C31.2227 19.5388 31.3772 19.0341 31.377 18.8014C31.3766 18.425 31.128 18.0461 30.7897 17.9061C30.2525 17.6839 30.23 17.7222 28.6467 21.553C27.6366 23.997 27.575 24.2857 27.9751 24.7023C28.247 24.9853 28.4951 25.1211 28.867 25.1901C29.3131 25.273 29.4432 25.1958 29.4432 24.8482C29.4432 24.5439 29.9858 23.3598 30.3109 22.9545L30.4629 22.7652L30.4152 22.9702C30.3135 23.4072 30.343 23.906 30.483 24.1177C30.6662 24.3947 31.2764 24.7727 31.5406 24.7727C31.7328 24.7727 31.75 24.7489 31.7464 24.488C31.7401 24.0339 32.2029 23.0581 32.8474 22.1667C32.9649 22.0042 33.061 21.8924 33.061 21.9183C33.061 21.9442 32.9577 22.2456 32.8314 22.5881C32.4753 23.5539 32.5345 23.9686 33.098 24.4585C33.3983 24.7194 33.624 24.7527 34.0009 24.5918C34.2977 24.4652 34.8572 23.8964 35.22 23.3526C35.4948 22.9407 35.5865 22.9157 35.5865 23.2527C35.5865 23.7025 36.3242 24.3939 36.8043 24.3939C37.0095 24.3939 37.0971 24.2954 37.764 23.3144C38.8299 21.7462 38.844 21.7359 38.4092 22.8409C36.8849 26.715 36.0301 29.2074 36.0187 29.8106C36.0072 30.4199 36.3061 31.0117 36.9412 31.6368C37.5494 32.2355 38.0725 32.5 38.6483 32.5C39.35 32.5 39.5698 32.1674 39.2883 31.5317C38.9812 30.8384 39.0269 29.923 39.4051 29.1835C40.3382 27.3595 42.646 24.7036 45.1146 22.6128C45.4092 22.3633 45.6675 22.1402 45.6885 22.1171C45.7096 22.094 46.1573 21.733 46.6834 21.315C51.0428 17.8514 54.842 15.8771 57.4743 15.7078C57.8741 15.6821 58.2601 15.6312 58.3319 15.5948C58.5102 15.5043 58.6208 15.0649 58.5471 14.7408C58.4639 14.3761 58.1386 13.8448 57.8525 13.6064C57.6023 13.398 57.5319 13.3879 56.4411 13.4033C54.6016 13.4293 48.0578 15.0721 44.6255 16.3695C43.9509 16.6245 43.7746 16.8303 43.7764 17.3602C43.7786 17.9657 43.7415 17.9647 45.5111 17.405C48.0014 16.6174 51.3212 15.702 51.4009 15.781C51.4195 15.7993 50.9914 16.0408 50.4497 16.3175C47.7653 17.6886 44.2897 20.362 40.8385 23.7107C39.9447 24.5779 39.4905 24.9723 39.5281 24.8485C39.6983 24.2882 40.9779 21.2982 41.8462 19.4318C42.7474 17.4949 42.8866 17.2083 43.9365 15.1285C44.6165 13.7814 44.9998 12.9375 44.9998 12.7874C44.9998 12.6048 44.909 12.4629 44.5905 12.1476C44.1528 11.7143 44.1008 11.6905 43.9124 11.8371ZM20.5549 13.3725C19.8889 13.6237 18.9969 14.5098 17.5005 16.4066C15.4385 19.0204 13.751 21.5338 12.6124 23.687L12.0849 24.6847L11.0742 24.9211C8.22527 25.5874 6.18405 25.83 4.63568 25.6862C3.73698 25.6027 3.59402 25.5602 2.82879 25.1486C2.45632 24.9483 2.06096 25.0609 1.62626 25.4912C1.3467 25.768 1.30078 25.8583 1.30078 26.1314C1.30078 26.7919 2.07014 27.4317 3.463 27.9296C4.3943 28.2626 7.13861 29.6095 8.45639 30.3805C9.38639 30.9245 10.0982 31.6312 10.3243 32.2349C10.5572 32.8568 10.6832 33.0303 10.9019 33.0303C11.2399 33.0303 11.4949 32.486 11.8247 31.0606C12.2212 29.3474 13.457 25.7972 13.6987 25.6772C13.7619 25.6458 14.1579 25.5203 14.5788 25.3982L15.3441 25.1762L15.3824 25.8267C15.4322 26.6726 15.5939 26.988 16.1773 27.3766C16.699 27.7242 17.0969 27.8341 17.3628 27.7042C17.661 27.5586 17.6961 27.3336 17.4699 27.0188C17.3474 26.8484 17.26 26.6067 17.2377 26.3762C17.2045 26.0341 17.3267 24.8268 17.4185 24.5899C17.4406 24.533 17.7106 24.3955 18.0184 24.2843C18.7534 24.019 18.9222 23.8372 18.9639 23.2662C18.9857 22.9682 18.9657 22.8036 18.9031 22.7653C18.8518 22.7339 18.6066 22.7691 18.3584 22.8436C18.1101 22.918 17.8867 22.9587 17.8619 22.9342C17.7945 22.8676 18.2553 21.5974 18.7117 20.5912C19.7206 18.3672 21.6019 15.7952 22.5813 15.3005C22.9346 15.1221 23.0148 14.9002 22.8593 14.5317C22.4785 13.6295 21.3623 13.068 20.5549 13.3725ZM34.6299 16.6262C34.3773 16.6789 33.7574 16.7968 33.2523 16.8882C32.031 17.1092 32.0849 17.0866 31.8303 17.484C31.5924 17.8554 31.5432 18.1414 31.7068 18.2036C31.8381 18.2534 35.0395 17.6311 35.2586 17.513C35.4749 17.3965 35.6274 16.8838 35.5101 16.667C35.4171 16.4949 35.288 16.4889 34.6299 16.6262ZM17.6466 18.9205C17.2325 19.4517 16.5751 20.3636 16.1858 20.947C15.4759 22.0105 14.3875 23.8342 14.3875 23.96C14.3875 24.0422 14.7255 23.9739 15.3767 23.76C15.7952 23.6225 15.8791 23.5647 15.9402 23.3712C16.2899 22.2639 17.3043 20.0056 18.0585 18.6553C18.2738 18.2699 18.4387 17.9545 18.4248 17.9545C18.411 17.9545 18.0608 18.3892 17.6466 18.9205ZM10.1662 26.5626C9.59142 26.6949 8.60992 26.8939 7.98512 27.0049C7.3604 27.1158 6.7865 27.2246 6.70981 27.2464C6.61989 27.2722 7.02688 27.4813 7.85777 27.836C8.56583 28.1383 9.39841 28.5124 9.70782 28.6674C10.0173 28.8223 10.2841 28.9357 10.3007 28.9192C10.3173 28.9029 10.432 28.6004 10.5557 28.247C10.6794 27.8938 10.8875 27.3381 11.0183 27.0124C11.149 26.6865 11.2459 26.398 11.2338 26.371C11.2215 26.3441 10.7411 26.4303 10.1662 26.5626ZM42.3745 27.6542C41.7521 28.1966 41.3923 29.2724 41.5504 30.1186C41.7105 30.9762 43.3628 36.0902 44.1432 38.1439C44.3235 38.6182 44.9022 40.0324 45.2051 40.7386C45.2887 40.9336 45.0971 40.822 44.767 40.4836C43.8556 39.5492 41.6777 37.7146 40.1219 36.5705C37.8108 34.8709 36.21 34.0278 34.2921 33.5001C33.6299 33.3179 33.4354 33.2985 32.2957 33.3017C30.9387 33.3055 30.7948 33.3356 29.8737 33.8079C28.9009 34.3066 28.0984 35.5117 28.4845 35.8939C28.6351 36.0431 28.7723 36.0004 29.1225 35.6952C29.8408 35.0692 30.7382 35.0678 32.6128 35.6895C34.9774 36.4737 37.8918 38.2067 40.8671 40.5976C42.3994 41.8289 43.2834 42.6234 45.3067 44.5878C46.7617 46.0005 47.4467 46.6131 47.7149 46.7416C48.4712 47.104 50.2804 46.8958 50.2804 46.4463C50.2804 46.3621 50.0862 45.9767 49.8489 45.5898C48.6249 43.5944 47.0938 40.2111 45.2278 35.3788C43.4649 30.8129 43.2396 30.0356 43.2396 28.5186C43.2396 28.0362 43.2039 27.5756 43.1604 27.495C43.0358 27.2647 42.7566 27.3213 42.3745 27.6542ZM13.6375 28.8402C13.5982 28.9155 13.5223 29.2159 13.4688 29.5076C13.2801 30.5371 12.7152 32.2636 11.9939 34.0152C11.266 35.7828 11.0717 36.1951 9.34009 39.6485C7.57086 43.1769 7.43502 43.5223 7.53496 44.2377C7.64647 45.0355 8.19542 46.0574 8.83315 46.6545C9.19285 46.9912 9.29984 47.0512 9.50509 47.0313C9.72902 47.0095 9.75956 46.9731 9.87397 46.5909C10.3769 44.9104 14.1256 41.2609 18.3671 38.3224C20.5865 36.7849 22.8989 35.417 25.434 34.1419C29.2188 32.2382 32.3782 30.9849 33.3918 30.9849C33.5602 30.9849 33.8795 31.0414 34.1012 31.1107C34.4775 31.2281 34.5174 31.228 34.6998 31.1097C34.9661 30.937 35.0188 30.6677 34.8647 30.2681C34.6039 29.5923 33.9002 28.9991 33.2402 28.8987C32.3264 28.7598 28.2091 30.2252 25.0253 31.8226C21.1388 33.7724 14.9489 37.8717 11.5987 40.7145C11.1803 41.0696 10.8226 41.3448 10.804 41.3264C10.7215 41.2448 12.8494 37.5008 14.8086 34.2803C15.493 33.1553 16.0747 32.1639 16.1014 32.077C16.1499 31.9194 15.8053 31.1736 15.5532 30.8902C15.2697 30.5716 15.2826 30.556 13.3577 33.5436C13.0283 34.055 12.7456 34.4605 12.7297 34.4448C12.7138 34.429 12.8244 34.0276 12.9755 33.5527C13.4779 31.9745 14.044 29.4209 13.9918 28.9691C13.9623 28.7145 13.7444 28.6352 13.6375 28.8402ZM19.3299 40.8523C19.2884 40.9962 19.0559 42.1549 19.0559 42.2177C19.0559 42.3433 19.1905 42.2594 19.2715 42.0833C19.3929 41.8196 19.7209 41.8224 19.823 42.0879C19.9322 42.3724 20.0444 42.2449 19.9764 41.9133C19.7342 40.7314 19.744 40.7576 19.5455 40.7576C19.4419 40.7576 19.3449 40.8002 19.3299 40.8523ZM20.5263 41.4953C20.5501 42.2948 20.584 42.3468 21.0135 42.2402C21.2775 42.1745 21.2425 42.0592 20.95 42.0313L20.7013 42.0076L20.6791 41.3826C20.6666 41.0329 20.6232 40.7576 20.5806 40.7576C20.5338 40.7576 20.5129 41.0416 20.5263 41.4953ZM21.5978 41.4962L21.6197 42.2349H21.9577C22.16 42.2349 22.3085 42.1968 22.3276 42.1402C22.349 42.0765 22.2722 42.0455 22.0934 42.0455C21.9275 42.0455 21.8108 42.0027 21.7833 41.9318C21.7172 41.7613 21.8093 41.5909 21.9677 41.5909C22.0449 41.5909 22.1294 41.5568 22.1554 41.5152C22.1814 41.4735 22.1335 41.4394 22.0489 41.4394C21.8665 41.4394 21.7396 41.2471 21.7916 41.0499C21.8186 40.9477 21.8998 40.9091 22.0878 40.9091C22.2301 40.9091 22.3467 40.875 22.3467 40.8333C22.3467 40.7917 22.1733 40.7576 21.9613 40.7576H21.5759L21.5978 41.4962ZM22.8569 40.8081C22.8288 40.8358 22.8059 41.1597 22.8059 41.5278C22.8059 42.0721 22.8273 42.197 22.9207 42.197C23.0075 42.197 23.0366 42.1002 23.0401 41.7992L23.0448 41.4015L23.2473 41.7992C23.5557 42.4049 23.6477 42.3294 23.6477 41.471C23.6477 40.9241 23.6242 40.7527 23.5521 40.7761C23.4995 40.7932 23.4392 40.975 23.4181 41.1802L23.3799 41.553L23.2055 41.1553C23.0375 40.7718 22.9658 40.7004 22.8569 40.8081ZM24.3761 40.928C24.1302 41.9819 24.1043 42.1489 24.1763 42.2202C24.2292 42.2726 24.2792 42.2326 24.3318 42.0957C24.4409 41.8115 24.7661 41.8154 24.8877 42.1023L24.9761 42.3106L25.008 42.1254C25.0353 41.9665 24.939 41.331 24.8209 40.8902C24.7666 40.6877 24.4255 40.7167 24.3761 40.928ZM26.2951 40.8902C26.1454 41.3692 26.0254 42.1567 26.092 42.2227C26.1417 42.2718 26.1941 42.2283 26.245 42.0957C26.3542 41.8117 26.6791 41.8155 26.8022 42.1023L26.8915 42.3106L26.9202 42.1018C26.9359 41.987 26.8914 41.6376 26.8212 41.3253C26.707 40.8172 26.6748 40.7576 26.5151 40.7576C26.4119 40.7576 26.3191 40.8135 26.2951 40.8902ZM27.4896 40.8485C27.439 40.8985 27.3977 41.036 27.3977 41.1541C27.3977 41.318 27.4594 41.4048 27.6588 41.5212C28.1087 41.7839 28.1075 42.0946 27.6568 42.0109C27.3643 41.9566 27.3065 42.0676 27.5579 42.2008C27.7759 42.3162 28.0436 42.2369 28.1395 42.0283C28.2514 41.7853 28.1446 41.564 27.8254 41.3776C27.5257 41.2026 27.4934 41.1264 27.6607 40.9889C27.7408 40.923 27.8121 40.9206 27.9239 40.9798C28.0868 41.0661 28.2128 40.9742 28.1248 40.8333C28.0587 40.7276 27.6007 40.7385 27.4896 40.8485ZM28.7498 40.8081C28.7217 40.8358 28.6987 41.1597 28.6987 41.5278C28.6987 42.0721 28.7202 42.197 28.8135 42.197C28.8964 42.197 28.9283 42.1128 28.9283 41.8939C28.9283 41.6212 28.9475 41.5909 29.1197 41.5909C29.2919 41.5909 29.311 41.6212 29.311 41.8939C29.311 42.1128 29.3429 42.197 29.4258 42.197C29.5198 42.197 29.5406 42.0658 29.5406 41.471C29.5406 40.924 29.517 40.7527 29.4449 40.7761C29.3923 40.7933 29.332 40.941 29.311 41.1044C29.2808 41.3384 29.2402 41.4015 29.1197 41.4015C28.9943 41.4015 28.9623 41.3433 28.9431 41.0795C28.9208 40.7742 28.8642 40.6948 28.7498 40.8081ZM30.1528 41.4773C30.1528 42.0665 30.1736 42.197 30.2676 42.197C30.3561 42.197 30.383 42.097 30.3849 41.7614C30.3869 41.3829 30.4006 41.3431 30.489 41.4583C30.6285 41.6404 30.8019 41.6245 30.9013 41.4205C30.9709 41.2777 30.9852 41.3267 30.9895 41.7235C30.9936 42.0967 31.0195 42.197 31.1124 42.197C31.2112 42.197 31.2265 42.0863 31.208 41.5023C31.1833 40.7243 31.0795 40.5764 30.8672 41.0169C30.7955 41.166 30.7081 41.2879 30.6732 41.2879C30.6382 41.2879 30.5521 41.1686 30.4818 41.0227C30.2513 40.5442 30.1528 40.6804 30.1528 41.4773ZM31.9579 40.847C31.8633 41.152 31.6834 41.9849 31.6834 42.1179C31.6834 42.3228 31.7816 42.3148 31.8758 42.1023C31.9221 41.9977 32.0317 41.9227 32.1591 41.9081C32.3277 41.8889 32.3762 41.9211 32.4161 42.0786C32.4432 42.1854 32.496 42.2727 32.5335 42.2727C32.6333 42.2727 32.6069 41.9285 32.4608 41.3258C32.3529 40.8808 32.3047 40.7916 32.1606 40.7712C32.0662 40.7579 31.9749 40.792 31.9579 40.847ZM33.0934 40.8589C33.0138 41.0642 33.0971 42.1462 33.1949 42.1783C33.2576 42.1988 33.2906 42.1291 33.2906 41.976C33.2906 41.6895 33.4906 41.6555 33.5939 41.9245C33.6655 42.111 33.8082 42.2401 33.8725 42.1764C33.8923 42.1568 33.8687 42.0542 33.82 41.9484C33.7482 41.7923 33.7548 41.723 33.8554 41.5808C34.1341 41.187 33.9158 40.7576 33.4369 40.7576C33.2535 40.7576 33.1171 40.7978 33.0934 40.8589ZM34.5151 41.471C34.5151 42.0736 34.535 42.197 34.6328 42.197C34.7317 42.197 34.7469 42.0863 34.7284 41.5023C34.7134 41.0302 34.6758 40.7977 34.6107 40.7764C34.5386 40.7527 34.5151 40.9239 34.5151 41.471ZM35.3128 40.8589C35.2359 41.0574 35.3163 42.1461 35.4101 42.1769C35.4714 42.197 35.5104 42.0739 35.528 41.8042L35.5545 41.4015L35.7387 41.7992C36.0223 42.4114 36.1222 42.3276 36.1222 41.4773C36.1222 41.0573 36.0909 40.7576 36.0471 40.7576C35.9465 40.7576 35.8665 41.0937 35.9116 41.3271C35.9722 41.6408 35.8462 41.5381 35.6775 41.1364C35.5203 40.7619 35.3891 40.6621 35.3128 40.8589ZM36.8512 40.928C36.6746 41.6962 36.6059 42.1694 36.6624 42.2283C36.7012 42.2687 36.7609 42.2137 36.8062 42.0957C36.8622 41.95 36.938 41.8939 37.0788 41.8939C37.2197 41.8939 37.2955 41.95 37.3515 42.0957C37.4998 42.4817 37.5696 42.173 37.457 41.6288C37.2712 40.7308 37.2829 40.7576 37.0788 40.7576C36.9461 40.7576 36.8789 40.808 36.8512 40.928ZM37.0043 41.1742C36.915 41.6802 36.9187 41.7036 37.0939 41.7283C37.2484 41.75 37.2584 41.7283 37.2164 41.4631C37.1913 41.3042 37.1453 41.1061 37.1144 41.0227C37.0687 40.9005 37.0475 40.9299 37.0043 41.1742ZM19.4933 41.0997C19.4695 41.1824 19.4268 41.3636 19.3985 41.5024C19.3511 41.7355 19.3609 41.753 19.5267 41.7297C19.6759 41.7088 19.702 41.667 19.6801 41.4837C19.6657 41.3623 19.6275 41.1924 19.5953 41.1062C19.5378 40.9523 19.536 40.9521 19.4933 41.0997ZM24.502 41.3081C24.3869 41.7608 24.3826 41.7424 24.6024 41.7424C24.7749 41.7424 24.7876 41.7205 24.7439 41.4962C24.6421 40.9727 24.5964 40.9372 24.502 41.3081ZM26.4592 41.0985C26.4345 41.1818 26.3917 41.3608 26.3642 41.4962C26.3179 41.7236 26.3294 41.7424 26.513 41.7424C26.7255 41.7424 26.7246 41.7547 26.5559 41.1364C26.5086 40.9628 26.5005 40.9596 26.4592 41.0985ZM32.1307 41.0227C32.1049 41.0644 32.0595 41.2434 32.0299 41.4205C31.9809 41.7135 31.9905 41.7424 32.1359 41.7424C32.2533 41.7424 32.2933 41.6972 32.2867 41.572C32.2704 41.2677 32.1788 40.945 32.1307 41.0227ZM33.2906 41.25C33.2906 41.5055 33.3057 41.5235 33.501 41.5012C33.6785 41.4811 33.7115 41.4416 33.7115 41.25C33.7115 41.0584 33.6785 41.0189 33.501 40.9988C33.3057 40.9765 33.2906 40.9945 33.2906 41.25ZM24.155 43.166C24.0901 43.2699 23.8773 44.2436 23.8773 44.4365C23.8773 44.6591 23.9965 44.6817 24.0526 44.4697C24.1013 44.2849 24.5661 44.2467 24.5661 44.4273C24.5661 44.5443 24.7041 44.6613 24.7678 44.5983C24.8211 44.5455 24.5568 43.3174 24.4671 43.2008C24.3852 43.0943 24.2118 43.075 24.155 43.166ZM25.3485 43.224C25.203 43.3249 25.1783 43.4117 25.1783 43.8239C25.1783 44.0889 25.2002 44.3624 25.227 44.4314C25.3002 44.6202 25.6039 44.7089 25.8292 44.6073C26.1064 44.4822 26.0633 44.396 25.7332 44.4152L25.4462 44.4318V43.9015V43.3712L25.7332 43.3879C26.0623 43.407 26.1137 43.289 25.8239 43.1799C25.5675 43.0835 25.5486 43.0852 25.3485 43.224ZM26.6665 43.164C26.5948 43.2135 26.3263 44.2901 26.3263 44.5283C26.3263 44.6775 26.4646 44.6352 26.5176 44.4697C26.5513 44.3646 26.6334 44.3182 26.7855 44.3182C26.9375 44.3182 27.0197 44.3646 27.0533 44.4697C27.1168 44.6676 27.2447 44.6649 27.2447 44.4657C27.2447 43.9648 26.9549 43.1084 26.7855 43.1084C26.7644 43.1084 26.7109 43.1334 26.6665 43.164ZM27.7757 43.2252C27.7318 43.2777 27.7072 43.5963 27.7198 43.951L27.7421 44.5833L28.0366 44.6073C28.4848 44.6437 28.6222 44.4782 28.6222 43.9015C28.6222 43.5496 28.5888 43.4036 28.4883 43.3164C28.3103 43.162 27.8754 43.1064 27.7757 43.2252ZM29.1579 43.9015V44.6212H29.5406C29.751 44.6212 29.9232 44.5871 29.9232 44.5455C29.9232 44.5038 29.8005 44.4697 29.6506 44.4697C29.389 44.4697 29.3788 44.4596 29.4018 44.2235C29.4202 44.0342 29.4659 43.9717 29.5991 43.953C29.8037 43.9242 29.7516 43.7879 29.5361 43.7879C29.422 43.7879 29.3875 43.7351 29.3875 43.5606C29.3875 43.3514 29.4088 43.3333 29.6554 43.3333C29.8027 43.3333 29.9232 43.2992 29.9232 43.2576C29.9232 43.2159 29.751 43.1818 29.5406 43.1818H29.1579V43.9015ZM30.4173 43.2769C30.3359 43.4868 30.4169 44.5699 30.5163 44.6025C30.5859 44.6253 30.6131 44.5027 30.616 44.154C30.6199 43.6958 30.6254 43.6819 30.7401 43.8447C30.8062 43.9384 30.9054 44.0152 30.9606 44.0152C31.0157 44.0152 31.0889 43.9384 31.1232 43.8447C31.1714 43.7127 31.1941 43.7755 31.2239 44.1229C31.2464 44.3849 31.3023 44.5845 31.3582 44.6027C31.4303 44.6261 31.4538 44.4548 31.4538 43.9078C31.4538 43.1012 31.3671 42.9833 31.1148 43.447C31.0355 43.5928 30.9501 43.7114 30.9252 43.7104C30.9003 43.7095 30.8262 43.6008 30.7606 43.469C30.626 43.1986 30.4795 43.1166 30.4173 43.2769ZM31.913 43.2038C31.913 43.2227 31.9849 43.3992 32.0728 43.5957C32.1606 43.7923 32.2431 44.0779 32.2562 44.2304C32.2901 44.6273 32.2883 44.6212 32.3722 44.6212C32.4143 44.6212 32.4487 44.4858 32.4487 44.3204C32.4487 44.1549 32.5329 43.831 32.6359 43.6007C32.772 43.2959 32.7954 43.1818 32.7217 43.1818C32.6659 43.1818 32.5775 43.2841 32.5253 43.4091C32.408 43.6895 32.333 43.6952 32.2042 43.4336C32.119 43.2606 31.913 43.098 31.913 43.2038ZM27.9845 43.3839C27.904 43.4634 27.925 44.3798 28.0084 44.4308C28.0496 44.4561 28.1529 44.4398 28.238 44.3948C28.3631 44.3285 28.3926 44.2367 28.3926 43.914C28.3926 43.528 28.302 43.3333 28.1222 43.3333C28.0745 43.3333 28.0125 43.3561 27.9845 43.3839ZM24.2605 43.447C24.2582 43.4886 24.2263 43.6506 24.1896 43.8068C24.1264 44.0764 24.1328 44.0909 24.3124 44.0909C24.4859 44.0909 24.4973 44.0703 24.4486 43.8447C24.3922 43.5835 24.2675 43.3197 24.2605 43.447ZM26.7732 43.4477C26.7489 43.489 26.7057 43.6506 26.6773 43.8068C26.6313 44.0592 26.643 44.0909 26.782 44.0909C26.8956 44.0909 26.9365 44.0441 26.9309 43.9205C26.919 43.6552 26.8221 43.3645 26.7732 43.4477Z" fill="url(#paint0_linear_180_5354)"/>
<defs>
<linearGradient id="paint0_linear_180_5354" x1="30.4998" y1="27.5" x2="29.9998" y2="27.5" gradientUnits="userSpaceOnUse">
<stop offset="0.46875" stop-color="white"/>
<stop offset="0.494792"/>
</linearGradient>
</defs>
</svg>
