<svg width="68" height="60" viewBox="0 0 68 60" fill="none" xmlns="http://www.w3.org/2000/svg">
<g clip-path="url(#clip0_210_2848)">
<path fill-rule="evenodd" clip-rule="evenodd" d="M36.3905 1.89972C36.0959 2.08882 35.8305 2.44063 35.3207 3.31809C34.2935 5.08618 32.7878 8.34572 30.6277 13.4772C30.4014 14.0146 30.2055 14.4545 30.1924 14.4545C30.1792 14.4545 30.1745 13.8715 30.1819 13.159C30.1969 11.7165 30.1391 11.3355 29.9122 11.3813C29.7858 11.4068 29.7557 11.5798 29.7027 12.5843C29.5856 14.8037 28.9356 17.4627 27.6787 20.8635C27.3189 21.8369 26.8554 23.1795 26.2303 25.0584C25.7668 26.4517 25.5651 26.9467 25.4228 27.0394C25.3797 27.0675 25.2686 26.9548 25.1758 26.7889C24.971 26.4226 24.5259 26.1848 24.0223 26.1726C23.0599 26.1494 22.9573 25.9045 23.6293 25.234C24.2133 24.6512 25.2246 24.0958 25.8526 24.013L26.3184 23.9516L26.3113 23.5714C26.3027 23.1104 25.9443 22.4914 25.6041 22.3502C25.0816 22.1333 24.0106 22.6898 22.9839 23.7118C21.8492 24.8413 21.1233 25.9968 21.2401 26.4876C21.2692 26.6099 21.3871 26.8033 21.5021 26.9173C21.6892 27.1027 21.8244 27.1303 22.7821 27.1781C23.371 27.2075 23.8791 27.2594 23.9113 27.2934C24.0327 27.4214 23.8483 27.7936 23.3513 28.4236C22.6317 29.3359 22.308 29.5777 21.7725 29.6037C21.1594 29.6334 21.0986 29.7685 21.3264 30.5956C21.4797 31.1517 21.8285 31.596 22.1863 31.6907C22.7114 31.8298 23.6628 31.3694 24.3087 30.6638C24.4827 30.4736 24.8002 30.0352 25.0143 29.6894C25.3985 29.0685 25.404 29.064 25.4596 29.3258C25.5681 29.8363 25.5997 29.9121 25.8177 30.1854C26.1235 30.569 26.454 30.7272 26.9497 30.7272C27.5244 30.7272 27.6326 30.5811 27.3981 30.1215C27.1824 29.6988 27.2163 29.4721 27.6268 28.5908C28.1498 27.4681 29.6902 25.2152 29.8334 25.3635C29.8575 25.3885 29.6114 26.1249 29.2865 26.9999C28.736 28.4823 27.8868 31.1129 27.7886 31.6402C27.7474 31.8614 27.6944 31.8804 26.5582 32.0815C23.0196 32.7081 18.579 33.7797 17.813 34.1921C17.3974 34.4158 17.3987 34.5922 17.8201 35.1547C18.2618 35.7444 18.6628 36.0908 18.9037 36.0908C19.0118 36.0908 19.6776 35.9475 20.3832 35.7725C23.6531 34.9612 27.3071 34.1856 27.8743 34.1826C27.9719 34.1822 28.2563 34.3898 28.5064 34.6443C29.0128 35.1592 29.3938 35.3635 29.848 35.3635C30.3478 35.3635 30.675 34.8862 30.3595 34.6171C29.6919 34.0478 29.6503 33.863 30.1738 33.7924C33.4014 33.3569 37.3723 33.0014 39.0261 32.9998C39.5237 32.9993 40.0792 32.9554 40.2607 32.9022C40.6514 32.7877 40.7918 32.5087 40.882 31.6674C40.9839 30.7164 41.0099 30.7208 36.7 30.9521C34.4967 31.0704 31.0982 31.3708 30.3368 31.5146L30.0474 31.5693L30.1097 31.2619C30.3319 30.1647 31.5367 26.5391 32.4726 24.1513C32.6654 23.6595 32.823 23.1474 32.823 23.0133C32.823 22.6758 32.4611 22.146 32.1106 21.9705C31.4977 21.6636 30.8851 22.0802 29.4061 23.8093C28.8942 24.4076 28.461 24.8821 28.4435 24.8634C28.2752 24.686 30.8783 18.0505 32.78 13.8094C33.7358 11.6776 35.8634 7.23263 36.0282 7.02309C36.1662 6.84782 36.2308 6.96945 36.3539 7.63627C36.4139 7.96127 36.6702 9.13718 36.9233 10.2495C38.0672 15.2755 39.6163 18.8584 40.8882 19.4192C41.2269 19.5685 42.2728 19.5862 42.6175 19.4484C42.9418 19.3187 43.2477 19.0063 43.2477 18.8045C43.2477 18.7119 43.1263 18.5747 42.9677 18.4882C42.4518 18.2066 42.2013 17.9584 41.8155 17.3463C40.9985 16.0502 39.8897 13.0975 38.9814 9.79936C38.5939 8.39245 38.3681 6.93972 38.2494 5.09081C38.1964 4.26582 38.1377 3.509 38.1189 3.409C38.0708 3.15191 37.1612 2.02118 36.8783 1.86682C36.6689 1.75254 36.6141 1.75627 36.3905 1.89972ZM49.4329 14.2045C49.3576 14.267 48.8682 15.1217 48.3456 16.1038C46.3858 19.7865 44.8806 22.301 43.3739 24.409C42.6286 25.4518 42.2138 25.9275 42.2138 25.7393C42.2138 25.6784 42.4329 25.0065 42.7008 24.2462C43.3017 22.5398 43.3681 22.2485 43.2454 21.8562C43.1379 21.5125 42.6297 20.9999 42.3965 20.9999C42.1601 20.9999 42.0046 21.2433 41.6992 22.0908C40.9836 24.0777 39.8664 26.1827 39.0549 27.0731C38.6116 27.5595 38.5865 27.5744 38.639 27.3181C38.7172 26.9357 39.2145 25.755 39.7493 24.6817C40.4972 23.1808 40.5131 23.0005 39.9516 22.3863C39.6875 22.0974 39.3956 22.0167 39.0785 22.1451C39.0048 22.1749 38.4788 22.8267 37.9097 23.5934C37.3405 24.3602 36.8371 25.0121 36.791 25.0422C36.7449 25.0723 36.8413 24.7864 37.0051 24.407C37.169 24.0275 37.3031 23.6043 37.3031 23.4664C37.3031 23.1788 36.964 22.7924 36.5755 22.6375C36.2385 22.5032 36.0011 22.6864 35.5099 23.4601C34.9551 24.334 34.69 24.7035 34.7641 24.4999C35.1474 23.4464 35.3214 22.8408 35.3212 22.5615C35.3207 22.1099 35.0408 21.6552 34.66 21.4873C34.0553 21.2206 34.03 21.2665 32.2475 25.8635C31.1104 28.7963 31.041 29.1427 31.4915 29.6426C31.7975 29.9823 32.0769 30.1452 32.4955 30.228C32.9978 30.3274 33.1441 30.2348 33.1441 29.8177C33.1441 29.4525 33.755 28.0316 34.121 27.5454L34.2921 27.3181L34.2384 27.5641C34.124 28.0885 34.1571 28.6871 34.3147 28.9412C34.521 29.2735 35.208 29.7272 35.5053 29.7272C35.7217 29.7272 35.7411 29.6985 35.737 29.3855C35.7299 28.8406 36.2509 27.6696 36.9764 26.5999C37.1087 26.4049 37.2169 26.2707 37.2169 26.3018C37.2169 26.3329 37.1006 26.6946 36.9584 27.1056C36.5576 28.2645 36.6242 28.7623 37.2586 29.3501C37.5966 29.6632 37.8507 29.7032 38.275 29.5101C38.6091 29.3581 39.2389 28.6756 39.6474 28.023C39.9568 27.5287 40.06 27.4987 40.06 27.9031C40.06 28.4429 40.8904 29.2726 41.4309 29.2726C41.6619 29.2726 41.7606 29.1544 42.5113 27.9772C43.7112 26.0954 43.7271 26.083 43.2376 27.409C41.5217 32.0579 40.5593 35.0487 40.5465 35.7726C40.5336 36.5038 40.8701 37.214 41.5851 37.9641C42.2698 38.6825 42.8586 38.9999 43.5068 38.9999C44.2968 38.9999 44.5442 38.6008 44.2273 37.8379C43.8816 37.006 43.933 35.9075 44.3588 35.0201C45.4092 32.8314 48.0072 29.6443 50.7862 27.1353C51.1179 26.8358 51.4087 26.5682 51.4323 26.5405C51.456 26.5127 51.96 26.0795 52.5523 25.5779C57.4599 21.4215 61.7368 19.0524 64.7001 18.8493C65.1502 18.8184 65.5847 18.7574 65.6655 18.7136C65.8663 18.6051 65.9909 18.0777 65.9078 17.6888C65.8142 17.2513 65.448 16.6136 65.126 16.3276C64.8442 16.0775 64.765 16.0654 63.537 16.0839C61.4662 16.1151 54.0996 18.0865 50.2357 19.6434C49.4762 19.9494 49.2777 20.1963 49.2798 20.8321C49.2822 21.5587 49.2405 21.5575 51.2326 20.8859C54.036 19.9408 57.7733 18.8424 57.8631 18.9371C57.8839 18.9591 57.4021 19.2488 56.7922 19.5809C53.7702 21.2262 49.8576 24.4344 45.9724 28.4527C44.9662 29.4934 44.4549 29.9666 44.4973 29.8181C44.6888 29.1457 46.1294 25.5577 47.1069 23.3181C48.1214 20.9938 48.2781 20.6499 49.4599 18.1541C50.2255 16.5375 50.657 15.5249 50.657 15.3448C50.657 15.1256 50.5548 14.9554 50.1962 14.577C49.7035 14.0571 49.645 14.0285 49.4329 14.2045ZM23.1382 16.0469C22.3885 16.3484 21.3843 17.4116 19.6997 19.6878C17.3784 22.8244 15.4787 25.8405 14.1969 28.4244L13.6031 29.6215L12.4653 29.9052C9.25813 30.7048 6.96022 30.9959 5.21715 30.8234C4.20544 30.7232 4.04451 30.6722 3.18305 30.1783C2.76374 29.9378 2.31867 30.073 1.82931 30.5894C1.51459 30.9214 1.4629 31.0298 1.4629 31.3576C1.4629 32.1502 2.329 32.9179 3.89701 33.5154C4.94542 33.915 8.03483 35.5313 9.51831 36.4565C10.5653 37.1094 11.3666 37.9574 11.6211 38.6817C11.8833 39.4281 12.0251 39.6363 12.2714 39.6363C12.6518 39.6363 12.9389 38.9831 13.3102 37.2726C13.7565 35.2167 15.1477 30.9565 15.4199 30.8125C15.491 30.7749 15.9368 30.6243 16.4107 30.4777L17.2722 30.2114L17.3153 30.992C17.3713 32.007 17.5534 32.3855 18.2102 32.8518C18.7975 33.2689 19.2454 33.4008 19.5447 33.245C19.8803 33.0703 19.9199 32.8002 19.6652 32.4225C19.5274 32.218 19.429 31.9279 19.4038 31.6514C19.3664 31.2408 19.504 29.7921 19.6074 29.5078C19.6322 29.4395 19.9362 29.2745 20.2828 29.1411C21.1101 28.8227 21.3002 28.6045 21.3471 27.9194C21.3717 27.5617 21.3491 27.3643 21.2786 27.3183C21.2209 27.2806 20.945 27.3228 20.6655 27.4122C20.386 27.5014 20.1344 27.5504 20.1065 27.5209C20.0307 27.441 20.5494 25.9167 21.0632 24.7094C22.199 22.0405 24.3169 18.9541 25.4194 18.3605C25.8171 18.1465 25.9074 17.8802 25.7324 17.438C25.3037 16.3554 24.0471 15.6815 23.1382 16.0469ZM38.9831 19.9514C38.6987 20.0146 38.0009 20.1561 37.4323 20.2657C36.0574 20.531 36.1181 20.5038 35.8315 20.9807C35.5636 21.4264 35.5083 21.7696 35.6924 21.8442C35.8402 21.904 39.4442 21.1572 39.6909 21.0155C39.9344 20.8757 40.106 20.2605 39.974 20.0003C39.8692 19.7937 39.7239 19.7865 38.9831 19.9514ZM19.8642 22.7045C19.398 23.3419 18.6579 24.4363 18.2196 25.1363C17.4205 26.4125 16.1953 28.6009 16.1953 28.7519C16.1953 28.8505 16.5757 28.7685 17.3088 28.5119C17.78 28.3469 17.8744 28.2775 17.9432 28.0454C18.3369 26.7166 19.4789 24.0066 20.3279 22.3863C20.5703 21.9238 20.7558 21.5454 20.7403 21.5454C20.7247 21.5454 20.3305 22.067 19.8642 22.7045ZM11.4432 31.875C10.7961 32.0337 9.69114 32.2725 8.98778 32.4057C8.2845 32.5388 7.63843 32.6694 7.5521 32.6956C7.45087 32.7265 7.90904 32.9774 8.84442 33.4031C9.64152 33.7658 10.5788 34.2147 10.9271 34.4007C11.2755 34.5867 11.5759 34.7227 11.5945 34.703C11.6132 34.6834 11.7424 34.3204 11.8816 33.8964C12.0208 33.4724 12.2552 32.8056 12.4023 32.4147C12.5495 32.0237 12.6586 31.6774 12.6449 31.6451C12.6312 31.6128 12.0904 31.7163 11.4432 31.875ZM47.7015 33.185C47.0009 33.8358 46.5959 35.1268 46.7738 36.1423C46.954 37.1714 48.8141 43.3081 49.6927 45.7726C49.8956 46.3417 50.5471 48.0387 50.8881 48.8863C50.9823 49.1202 50.7665 48.9864 50.3949 48.5802C49.3689 47.459 46.9172 45.2575 45.1657 43.8845C42.564 41.845 40.7619 40.8333 38.6029 40.2C37.8574 39.9814 37.6384 39.9581 36.3554 39.962C34.8278 39.9665 34.6657 40.0026 33.6288 40.5694C32.5336 41.1678 31.6302 42.614 32.0649 43.0726C32.2345 43.2516 32.3889 43.2004 32.7831 42.8341C33.5918 42.083 34.602 42.0813 36.7124 42.8274C39.3743 43.7684 42.6551 45.8479 46.0046 48.717C47.7296 50.1946 48.7248 51.148 51.0024 53.5053C52.6405 55.2005 53.4116 55.9356 53.7135 56.0898C54.5649 56.5247 56.6016 56.2748 56.6016 55.7354C56.6016 55.6344 56.383 55.1719 56.1159 54.7076C54.7379 52.3132 53.0143 48.2533 50.9137 42.4544C48.929 36.9754 48.6754 36.0426 48.6754 34.2222C48.6754 33.6434 48.6353 33.0906 48.5862 32.9939C48.4461 32.7175 48.1317 32.7854 47.7015 33.185ZM15.351 34.6081C15.3067 34.6985 15.2212 35.059 15.1611 35.409C14.9486 36.6445 14.3126 38.7163 13.5006 40.8181C12.6812 42.9393 12.4626 43.434 10.5131 47.5781C8.52143 51.8122 8.3685 52.2266 8.48102 53.0852C8.60654 54.0425 9.22453 55.2687 9.94246 55.9853C10.3474 56.3894 10.4678 56.4614 10.6989 56.4374C10.951 56.4114 10.9854 56.3676 11.1142 55.909C11.6804 53.8924 15.9004 49.513 20.6753 45.9868C23.1738 44.1417 25.7769 42.5003 28.6309 40.9702C32.8916 38.6857 36.4482 37.1817 37.5893 37.1817C37.7789 37.1817 38.1383 37.2496 38.3879 37.3327C38.8115 37.4736 38.8565 37.4735 39.0618 37.3315C39.3615 37.1244 39.4209 36.8012 39.2474 36.3216C38.9539 35.5106 38.1617 34.7988 37.4187 34.6784C36.39 34.5116 31.7549 36.2702 28.1707 38.187C23.7955 40.5267 16.8273 45.446 13.0557 48.8573C12.5847 49.2834 12.1821 49.6137 12.1611 49.5915C12.0683 49.4936 14.4637 45.0009 16.6693 41.1363C17.4398 39.7863 18.0946 38.5965 18.1247 38.4924C18.1792 38.3032 17.7914 37.4082 17.5075 37.0681C17.1884 36.6858 17.2029 36.6671 15.036 40.2522C14.6651 40.8659 14.3469 41.3525 14.329 41.3336C14.3111 41.3147 14.4356 40.833 14.6057 40.2632C15.1713 38.3693 15.8086 35.305 15.7498 34.7628C15.7166 34.4574 15.4713 34.3622 15.351 34.6081ZM21.7592 49.0226C21.7124 49.1954 21.4507 50.5857 21.4507 50.6611C21.4507 50.8118 21.6022 50.7112 21.6935 50.4999C21.8301 50.1834 22.1994 50.1867 22.3142 50.5054C22.4372 50.8467 22.5634 50.6937 22.4869 50.2959C22.2143 48.8775 22.2253 48.909 22.0018 48.909C21.8852 48.909 21.7761 48.9602 21.7592 49.0226ZM23.106 49.7943C23.1328 50.7536 23.171 50.8161 23.6544 50.6881C23.9516 50.6094 23.9123 50.471 23.583 50.4374L23.303 50.409L23.278 49.659C23.264 49.2394 23.2151 48.909 23.1671 48.909C23.1144 48.909 23.0909 49.2498 23.106 49.7943ZM24.3122 49.7954L24.3368 50.6817H24.7174C24.9452 50.6817 25.1123 50.6361 25.1338 50.5681C25.1579 50.4917 25.0715 50.4544 24.8701 50.4544C24.6834 50.4544 24.552 50.4031 24.521 50.3181C24.4466 50.1134 24.5503 49.909 24.7287 49.909C24.8156 49.909 24.9106 49.8681 24.9399 49.8181C24.9692 49.7681 24.9153 49.7272 24.8201 49.7272C24.6148 49.7272 24.4718 49.4964 24.5304 49.2597C24.5608 49.1371 24.6522 49.0908 24.8638 49.0908C25.0241 49.0908 25.1553 49.0499 25.1553 48.9999C25.1553 48.9499 24.9601 48.909 24.7214 48.909H24.2876L24.3122 49.7954ZM25.7297 48.9696C25.6981 49.0029 25.6722 49.3915 25.6722 49.8333C25.6722 50.4864 25.6964 50.6363 25.8015 50.6363C25.8993 50.6363 25.932 50.5202 25.936 50.159L25.9412 49.6817L26.1692 50.159C26.5163 50.8857 26.6199 50.7952 26.6199 49.7651C26.6199 49.1088 26.5934 48.9031 26.5122 48.9312C26.453 48.9517 26.3852 49.1699 26.3615 49.4161L26.3184 49.8635L26.1221 49.3863C25.9329 48.9261 25.8522 48.8404 25.7297 48.9696ZM27.4399 49.1135C27.163 50.3782 27.1339 50.5786 27.215 50.6642C27.2745 50.727 27.3308 50.679 27.39 50.5147C27.5128 50.1737 27.879 50.1784 28.0159 50.5226L28.1153 50.7726L28.1512 50.5504C28.182 50.3597 28.0736 49.5971 27.9406 49.0681C27.8795 48.8251 27.4955 48.86 27.4399 49.1135ZM29.6003 49.0681C29.4317 49.6429 29.2966 50.5879 29.3716 50.6671C29.4275 50.7261 29.4865 50.6738 29.5438 50.5147C29.6667 50.1739 30.0325 50.1784 30.171 50.5226L30.2717 50.7726L30.3039 50.5221C30.3216 50.3844 30.2715 49.965 30.1925 49.5903C30.0639 48.9805 30.0277 48.909 29.8479 48.909C29.7317 48.909 29.6272 48.9761 29.6003 49.0681ZM30.9449 49.0181C30.888 49.0781 30.8415 49.2431 30.8415 49.3848C30.8415 49.5815 30.9109 49.6856 31.1354 49.8254C31.6419 50.1406 31.6405 50.5135 31.1331 50.413C30.8038 50.3478 30.7388 50.481 31.0218 50.6408C31.2673 50.7794 31.5685 50.6842 31.6766 50.4339C31.8025 50.1423 31.6823 49.8767 31.3229 49.653C30.9855 49.443 30.9492 49.3515 31.1375 49.1865C31.2277 49.1075 31.308 49.1046 31.4338 49.1756C31.6172 49.2792 31.759 49.169 31.66 48.9999C31.5856 48.873 31.07 48.8861 30.9449 49.0181ZM32.3636 48.9696C32.332 49.0029 32.3061 49.3915 32.3061 49.8333C32.3061 50.4864 32.3302 50.6363 32.4353 50.6363C32.5286 50.6363 32.5646 50.5353 32.5646 50.2726C32.5646 49.9454 32.5861 49.909 32.78 49.909C32.9738 49.909 32.9953 49.9454 32.9953 50.2726C32.9953 50.5353 33.0313 50.6363 33.1246 50.6363C33.2305 50.6363 33.2538 50.4789 33.2538 49.7651C33.2538 49.1087 33.2273 48.9031 33.1461 48.9313C33.0869 48.9518 33.019 49.1291 32.9953 49.3252C32.9614 49.606 32.9156 49.6817 32.78 49.6817C32.6388 49.6817 32.6028 49.6118 32.5812 49.2954C32.556 48.9289 32.4924 48.8336 32.3636 48.9696ZM33.943 49.7726C33.943 50.4797 33.9665 50.6363 34.0723 50.6363C34.1719 50.6363 34.2021 50.5163 34.2043 50.1135C34.2066 49.6594 34.222 49.6116 34.3214 49.7499C34.4786 49.9684 34.6737 49.9493 34.7856 49.7044C34.8639 49.5331 34.8801 49.592 34.8849 50.0681C34.8895 50.516 34.9187 50.6363 35.0232 50.6363C35.1346 50.6363 35.1517 50.5034 35.1309 49.8027C35.1031 48.8691 34.9862 48.6915 34.7473 49.2202C34.6665 49.3991 34.5682 49.5454 34.5288 49.5454C34.4894 49.5454 34.3925 49.4022 34.3134 49.2272C34.0539 48.653 33.943 48.8164 33.943 49.7726ZM35.9751 49.0163C35.8686 49.3823 35.6661 50.3818 35.6661 50.5414C35.6661 50.7873 35.7766 50.7777 35.8826 50.5226C35.9348 50.3972 36.0581 50.3071 36.2016 50.2896C36.3914 50.2665 36.446 50.3052 36.491 50.4942C36.5214 50.6224 36.5809 50.7272 36.6231 50.7272C36.7355 50.7272 36.7057 50.3141 36.5413 49.5908C36.4198 49.0568 36.3655 48.9498 36.2033 48.9254C36.097 48.9094 35.9943 48.9503 35.9751 49.0163ZM37.2534 49.0306C37.1638 49.2769 37.2576 50.5754 37.3677 50.6138C37.4382 50.6384 37.4754 50.5548 37.4754 50.3711C37.4754 50.0274 37.7006 49.9865 37.8168 50.3093C37.8974 50.5331 38.0581 50.688 38.1305 50.6116C38.1528 50.5881 38.1262 50.465 38.0714 50.338C37.9905 50.1506 37.998 50.0675 38.1112 49.8969C38.425 49.4243 38.1792 48.909 37.6401 48.909C37.4336 48.909 37.2801 48.9573 37.2534 49.0306ZM38.8538 49.7651C38.8538 50.4883 38.8763 50.6363 38.9863 50.6363C39.0976 50.6363 39.1148 50.5034 39.094 49.8027C39.0771 49.2362 39.0348 48.9571 38.9615 48.9315C38.8804 48.9031 38.8538 49.1086 38.8538 49.7651ZM39.7519 49.0306C39.6653 49.2687 39.7559 50.5753 39.8614 50.6122C39.9304 50.6363 39.9743 50.4885 39.9942 50.1649L40.024 49.6817L40.2313 50.159C40.5506 50.8936 40.6631 50.793 40.6631 49.7726C40.6631 49.2686 40.6278 48.909 40.5786 48.909C40.4653 48.909 40.3752 49.3124 40.426 49.5924C40.4942 49.9689 40.3523 49.8456 40.1624 49.3635C39.9855 48.9142 39.8378 48.7944 39.7519 49.0306ZM41.4838 49.1135C41.2849 50.0354 41.2076 50.6032 41.2711 50.6738C41.3149 50.7224 41.3821 50.6564 41.4331 50.5147C41.4961 50.3399 41.5814 50.2726 41.74 50.2726C41.8986 50.2726 41.9839 50.3399 42.0469 50.5147C42.2138 50.978 42.2924 50.6075 42.1657 49.9544C41.9566 48.8769 41.9697 48.909 41.74 48.909C41.5905 48.909 41.5149 48.9694 41.4838 49.1135ZM41.6561 49.409C41.5555 50.0162 41.5598 50.0442 41.757 50.0738C41.9308 50.0999 41.9421 50.0738 41.8949 49.7556C41.8666 49.565 41.8149 49.3272 41.78 49.2272C41.7286 49.0805 41.7047 49.1157 41.6561 49.409ZM21.9431 49.3195C21.9163 49.4187 21.8683 49.6363 21.8364 49.8028C21.783 50.0825 21.794 50.1034 21.9807 50.0755C22.1486 50.0504 22.178 50.0004 22.1534 49.7804C22.1372 49.6346 22.0942 49.4308 22.0579 49.3274C21.9932 49.1426 21.9911 49.1424 21.9431 49.3195ZM27.5817 49.5696C27.452 50.1129 27.4472 50.0908 27.6947 50.0908C27.8889 50.0908 27.9031 50.0644 27.854 49.7954C27.7393 49.1672 27.6879 49.1245 27.5817 49.5696ZM29.785 49.3181C29.7571 49.4181 29.709 49.6328 29.678 49.7954C29.6259 50.0682 29.6388 50.0908 29.8455 50.0908C30.0847 50.0908 30.0837 50.1055 29.8938 49.3635C29.8405 49.1553 29.8314 49.1514 29.785 49.3181ZM36.1696 49.2272C36.1406 49.2772 36.0895 49.492 36.0561 49.7044C36.001 50.0561 36.0118 50.0908 36.1755 50.0908C36.3076 50.0908 36.3527 50.0365 36.3452 49.8863C36.3269 49.5212 36.2238 49.1339 36.1696 49.2272ZM37.4754 49.4999C37.4754 49.8065 37.4923 49.8281 37.7123 49.8014C37.9121 49.7772 37.9492 49.7298 37.9492 49.4999C37.9492 49.27 37.9121 49.2226 37.7123 49.1985C37.4923 49.1717 37.4754 49.1933 37.4754 49.4999ZM27.191 51.7991C27.118 51.9238 26.8784 53.0923 26.8784 53.3237C26.8784 53.5908 27.0126 53.6179 27.0757 53.3635C27.1306 53.1418 27.6538 53.0959 27.6538 53.3127C27.6538 53.4531 27.8092 53.5934 27.8809 53.5178C27.9408 53.4545 27.6434 51.9808 27.5424 51.8408C27.4502 51.7131 27.255 51.6899 27.191 51.7991ZM28.5345 51.8687C28.3708 51.9897 28.343 52.094 28.343 52.5885C28.343 52.9066 28.3677 53.2347 28.3978 53.3176C28.4802 53.5441 28.8221 53.6505 29.0757 53.5286C29.3878 53.3785 29.3393 53.2751 28.9676 53.2981L28.6446 53.3181V52.6817V52.0454L28.9676 52.0654C29.3381 52.0883 29.396 51.9467 29.0697 51.8158C28.7811 51.7001 28.7598 51.7022 28.5345 51.8687ZM30.0183 51.7967C29.9376 51.8561 29.6353 53.148 29.6353 53.4338C29.6353 53.6129 29.791 53.5622 29.8507 53.3635C29.8886 53.2374 29.9811 53.1817 30.1523 53.1817C30.3234 53.1817 30.4159 53.2374 30.4538 53.3635C30.5252 53.601 30.6692 53.5978 30.6692 53.3587C30.6692 52.7576 30.343 51.73 30.1523 51.73C30.1286 51.73 30.0683 51.76 30.0183 51.7967ZM31.267 51.8702C31.2176 51.9331 31.1899 52.3154 31.204 52.7411L31.2292 53.4999L31.5607 53.5286C32.0653 53.5724 32.22 53.3737 32.22 52.6817C32.22 52.2594 32.1823 52.0842 32.0692 51.9796C31.8688 51.7944 31.3792 51.7276 31.267 51.8702ZM32.823 52.6817V53.5454H33.2538C33.4907 53.5454 33.6846 53.5044 33.6846 53.4544C33.6846 53.4044 33.5464 53.3635 33.3776 53.3635C33.0831 53.3635 33.0717 53.3514 33.0976 53.0681C33.1183 52.841 33.1697 52.7659 33.3197 52.7435C33.55 52.7089 33.4913 52.5454 33.2487 52.5454C33.1203 52.5454 33.0815 52.482 33.0815 52.2726C33.0815 52.0215 33.1054 51.9999 33.383 51.9999C33.5489 51.9999 33.6846 51.959 33.6846 51.909C33.6846 51.859 33.4907 51.8181 33.2538 51.8181H32.823V52.6817ZM34.2408 51.9322C34.1491 52.1841 34.2403 53.4838 34.3523 53.5229C34.4306 53.5503 34.4612 53.4032 34.4644 52.9847C34.4688 52.4348 34.475 52.4182 34.6042 52.6135C34.6786 52.726 34.7903 52.8181 34.8524 52.8181C34.9144 52.8181 34.9968 52.726 35.0354 52.6135C35.0897 52.4552 35.1152 52.5304 35.1488 52.9474C35.1742 53.2618 35.2371 53.5013 35.3 53.5231C35.3811 53.5513 35.4077 53.3456 35.4077 52.6893C35.4077 51.7214 35.31 51.5798 35.026 52.1363C34.9367 52.3113 34.8406 52.4535 34.8126 52.4524C34.7845 52.4513 34.7011 52.3209 34.6272 52.1627C34.4757 51.8382 34.3107 51.7398 34.2408 51.9322ZM35.9246 51.8444C35.9246 51.8672 36.0055 52.0789 36.1044 52.3147C36.2033 52.5506 36.2962 52.8934 36.3109 53.0764C36.3491 53.5527 36.3471 53.5454 36.4415 53.5454C36.4889 53.5454 36.5277 53.3829 36.5277 53.1844C36.5277 52.9857 36.6224 52.5971 36.7383 52.3207C36.8916 51.955 36.9179 51.8181 36.8349 51.8181C36.7722 51.8181 36.6727 51.9408 36.6138 52.0908C36.4817 52.4273 36.3974 52.4341 36.2524 52.1203C36.1564 51.9126 35.9246 51.7175 35.9246 51.8444ZM31.502 52.0605C31.4115 52.156 31.4351 53.2557 31.5289 53.3169C31.5753 53.3472 31.6917 53.3277 31.7874 53.2736C31.9282 53.1941 31.9615 53.0839 31.9615 52.6967C31.9615 52.2334 31.8595 51.9999 31.6571 51.9999C31.6033 51.9999 31.5336 52.0272 31.502 52.0605ZM27.3098 52.1363C27.3072 52.1863 27.2713 52.3806 27.23 52.5681C27.1588 52.8915 27.166 52.909 27.3682 52.909C27.5635 52.909 27.5763 52.8843 27.5215 52.6135C27.458 52.3001 27.3176 51.9835 27.3098 52.1363ZM30.1384 52.1372C30.1111 52.1867 30.0625 52.3806 30.0304 52.5681C29.9787 52.871 29.9918 52.909 30.1484 52.909C30.2762 52.909 30.3222 52.8528 30.3159 52.7044C30.3026 52.3861 30.1934 52.0374 30.1384 52.1372ZM-23.7146 73.7005C-23.6075 73.7223 -23.4524 73.7215 -23.37 73.6987C-23.2877 73.676 -23.3754 73.6582 -23.5649 73.6592C-23.7544 73.6602 -23.8218 73.6788 -23.7146 73.7005ZM-22.6789 73.7034C-22.4286 73.7218 -22.0409 73.7216 -21.8173 73.703C-21.5939 73.6843 -21.7987 73.6693 -22.2726 73.6694C-22.7464 73.6697 -22.9293 73.685 -22.6789 73.7034Z" fill="black"/>
</g>
<defs>
<clipPath id="clip0_210_2848">
<rect width="67.5449" height="60" fill="white"/>
</clipPath>
</defs>
</svg>
