<svg width="90" height="80" viewBox="0 0 90 80" fill="none" xmlns="http://www.w3.org/2000/svg">
<g clip-path="url(#clip0_179_2758)">
<path fill-rule="evenodd" clip-rule="evenodd" d="M48.4908 2.53329C48.0982 2.78541 47.7446 3.2545 47.0654 4.42444C45.6967 6.7819 43.6904 11.128 40.8121 17.9699C40.5106 18.6865 40.2496 19.2729 40.2321 19.2729C40.2146 19.2729 40.2083 18.4957 40.2181 17.5457C40.2381 15.6223 40.1611 15.1143 39.8588 15.1754C39.6904 15.2094 39.6502 15.4401 39.5796 16.7794C39.4236 19.7386 38.5575 23.284 36.8827 27.8184C36.4034 29.1162 35.7858 30.9063 34.9529 33.4115C34.3353 35.2693 34.0665 35.9293 33.8769 36.0529C33.8195 36.0904 33.6714 35.9401 33.5478 35.7189C33.2749 35.2305 32.6818 34.9134 32.0108 34.8972C30.7284 34.8661 30.5918 34.5396 31.4871 33.6457C32.2653 32.8686 33.6128 32.1281 34.4495 32.0177L35.0702 31.9358L35.0608 31.4289C35.0493 30.8141 34.5718 29.9889 34.1185 29.8006C33.4223 29.5114 31.9952 30.2534 30.6272 31.6161C29.1153 33.122 28.148 34.6627 28.3037 35.3172C28.3424 35.4802 28.4995 35.738 28.6528 35.89C28.9021 36.1373 29.0822 36.174 30.3583 36.2378C31.1429 36.2771 31.82 36.3461 31.8629 36.3915C32.0247 36.5623 31.779 37.0585 31.1168 37.8985C30.1579 39.1149 29.7266 39.4373 29.013 39.472C28.1961 39.5116 28.1152 39.6917 28.4187 40.7945C28.6229 41.536 29.0876 42.1283 29.5645 42.2546C30.2641 42.4401 31.5318 41.8263 32.3924 40.8854C32.6243 40.6318 33.0473 40.0472 33.3326 39.5863C33.8446 38.7584 33.8519 38.7523 33.9259 39.1014C34.0705 39.782 34.1126 39.8831 34.403 40.2476C34.8106 40.759 35.2509 40.9699 35.9115 40.9699C36.6771 40.9699 36.8213 40.7751 36.5089 40.1624C36.2215 39.5988 36.2666 39.2964 36.8136 38.1214C37.5104 36.6244 39.563 33.6206 39.7538 33.8184C39.7859 33.8517 39.458 34.8335 39.0251 36.0002C38.2915 37.9767 37.1601 41.4842 37.0292 42.1872C36.9743 42.4821 36.9037 42.5075 35.3897 42.7757C30.6748 43.6111 24.7579 45.04 23.7372 45.5898C23.1835 45.8881 23.1852 46.1232 23.7468 46.8733C24.3353 47.6595 24.8696 48.1214 25.1905 48.1214C25.3346 48.1214 26.2218 47.9304 27.1619 47.6971C31.5189 46.6152 36.3876 45.5812 37.1433 45.5772C37.2734 45.5766 37.6524 45.8534 37.9857 46.1927C38.6604 46.8792 39.1681 47.1517 39.7732 47.1517C40.4392 47.1517 40.8751 46.5152 40.4547 46.1564C39.5653 45.3974 39.5098 45.151 40.2073 45.0568C44.5079 44.4762 49.799 44.0023 52.0026 44.0001C52.6656 43.9994 53.4058 43.9408 53.6477 43.8699C54.1681 43.7173 54.3553 43.3453 54.4754 42.2236C54.6113 40.9555 54.6459 40.9614 48.9031 41.2698C45.9673 41.4275 41.4391 41.8281 40.4245 42.0198L40.0389 42.0927L40.1219 41.6829C40.418 40.22 42.0233 35.3858 43.2704 32.202C43.5272 31.5464 43.7373 30.8636 43.7373 30.6847C43.7373 30.2347 43.2551 29.5283 42.7881 29.2944C41.9714 28.8852 41.1551 29.4406 39.1844 31.746C38.5024 32.5438 37.9252 33.1764 37.9018 33.1516C37.6776 32.915 41.146 24.0677 43.6799 18.4128C44.9536 15.5705 47.7885 9.64384 48.0081 9.36444C48.1919 9.13075 48.278 9.29293 48.442 10.182C48.522 10.6154 48.8634 12.1832 49.2007 13.6663C50.7248 20.3677 52.789 25.1448 54.4837 25.8926C54.9351 26.0916 56.3286 26.1152 56.7879 25.9315C57.2201 25.7586 57.6276 25.342 57.6276 25.0731C57.6276 24.9495 57.4659 24.7666 57.2545 24.6512C56.5671 24.2758 56.2333 23.9448 55.7193 23.1287C54.6306 21.4006 53.1533 17.4637 51.943 13.0661C51.4267 11.1903 51.1258 9.25329 50.9676 6.78808C50.897 5.68808 50.8188 4.67899 50.7938 4.54565C50.7297 4.20287 49.5176 2.69523 49.1408 2.48941C48.8617 2.33705 48.7887 2.34202 48.4908 2.53329ZM65.8691 18.9396C65.7687 19.023 65.1167 20.1626 64.4203 21.4721C61.809 26.3823 59.8034 29.735 57.7958 32.5457C56.8027 33.9361 56.2501 34.5703 56.2501 34.3194C56.2501 34.2383 56.542 33.3424 56.8989 32.3286C57.6996 30.0534 57.7881 29.6651 57.6245 29.1419C57.4814 28.6837 56.8042 28.0002 56.4934 28.0002C56.1784 28.0002 55.9712 28.3247 55.5644 29.4547C54.6108 32.104 53.1222 34.9106 52.041 36.0978C51.4502 36.7464 51.4168 36.7661 51.4867 36.4244C51.591 35.9146 52.2536 34.3403 52.9662 32.9093C53.9628 30.9081 53.9839 30.6676 53.2358 29.8487C52.8839 29.4635 52.4949 29.356 52.0724 29.5271C51.9742 29.5669 51.2733 30.436 50.515 31.4583C49.7566 32.4806 49.0859 33.3498 49.0245 33.3899C48.9631 33.43 49.0914 33.0489 49.3097 32.543C49.5281 32.0371 49.7067 31.4727 49.7067 31.2889C49.7067 30.9054 49.2549 30.3903 48.7373 30.1837C48.2883 30.0046 47.9719 30.2488 47.3175 31.2804C46.5782 32.4457 46.225 32.9384 46.3237 32.6669C46.8344 31.2623 47.0663 30.4547 47.0659 30.0824C47.0654 29.4802 46.6924 28.8739 46.185 28.65C45.3792 28.2945 45.3455 28.3557 42.9705 34.4851C41.4553 38.3954 41.3629 38.8573 41.9632 39.5238C42.3709 39.9767 42.7431 40.1939 43.3009 40.3043C43.9701 40.4369 44.1652 40.3134 44.1652 39.7573C44.1652 39.2704 44.9791 37.3758 45.4668 36.7275L45.6947 36.4244L45.6232 36.7524C45.4707 37.4517 45.5149 38.2498 45.7249 38.5886C45.9997 39.0317 46.9151 39.6366 47.3113 39.6366C47.5996 39.6366 47.6255 39.5984 47.6201 39.1811C47.6105 38.4545 48.3048 36.8932 49.2715 35.4669C49.4477 35.2069 49.5919 35.028 49.5919 35.0694C49.5919 35.1109 49.4369 35.5932 49.2475 36.1412C48.7134 37.6864 48.8021 38.35 49.6475 39.1338C50.0978 39.5512 50.4365 39.6046 51.0018 39.3471C51.447 39.1444 52.2862 38.2345 52.8304 37.3643C53.2427 36.7053 53.3802 36.6653 53.3802 37.2044C53.3802 37.9242 54.4867 39.0305 55.2068 39.0305C55.5147 39.0305 55.6461 38.8728 56.6464 37.3032C58.2452 34.7941 58.2665 34.7777 57.6142 36.5457C55.3278 42.7442 54.0455 46.732 54.0284 47.6972C54.0112 48.6721 54.4596 49.619 55.4123 50.6191C56.3246 51.5771 57.1092 52.0002 57.9729 52.0002C59.0255 52.0002 59.3552 51.4681 58.9329 50.4509C58.4723 49.3417 58.5407 47.8771 59.1081 46.6938C60.5077 43.7755 63.9694 39.526 67.6723 36.1807C68.1142 35.7814 68.5017 35.4246 68.5332 35.3876C68.5648 35.3506 69.2364 34.7731 70.0256 34.1042C76.5646 28.5624 82.2634 25.4036 86.2118 25.1327C86.8116 25.0916 87.3905 25.0101 87.4982 24.9518C87.7657 24.8071 87.9317 24.104 87.821 23.5854C87.6963 23.002 87.2084 22.1518 86.7792 21.7705C86.4039 21.4371 86.2982 21.4208 84.6621 21.4455C81.9028 21.4871 72.0872 24.1156 66.9387 26.1915C65.9268 26.5995 65.6623 26.9287 65.6651 27.7764C65.6683 28.7453 65.6127 28.7437 68.2671 27.8482C72.0025 26.5881 76.9822 25.1235 77.1018 25.2498C77.1296 25.2791 76.4876 25.6654 75.6749 26.1082C71.6483 28.3019 66.435 32.5795 61.2582 37.9373C59.9175 39.3248 59.2362 39.9558 59.2926 39.7578C59.5478 38.8613 61.4673 34.0773 62.7698 31.0911C64.1215 27.9921 64.3303 27.5335 65.9051 24.2058C66.9252 22.0504 67.5001 20.7002 67.5001 20.4601C67.5001 20.1678 67.3639 19.9408 66.8861 19.4363C66.2296 18.7431 66.1517 18.705 65.8691 18.9396ZM30.8328 21.3962C29.8338 21.7981 28.4957 23.2158 26.2511 26.2507C23.1582 30.4328 20.6269 34.4543 18.919 37.8995L18.1277 39.4957L16.6117 39.8739C12.3383 40.9401 9.2765 41.3282 6.95395 41.0981C5.6059 40.9646 5.39146 40.8966 4.24362 40.238C3.68491 39.9174 3.09187 40.0977 2.43983 40.7861C2.02048 41.2289 1.9516 41.3734 1.9516 41.8105C1.9516 42.8672 3.10564 43.8909 5.19493 44.6876C6.59188 45.2203 10.7084 47.3754 12.685 48.6089C14.08 49.4795 15.1477 50.6101 15.4868 51.576C15.8363 52.5711 16.0252 52.8487 16.3533 52.8487C16.8603 52.8487 17.2428 51.9778 17.7375 49.6972C18.3322 46.956 20.1859 41.2757 20.5485 41.0837C20.6432 41.0335 21.2373 40.8327 21.8687 40.6373L23.0167 40.2821L23.0741 41.323C23.1487 42.6763 23.3913 43.1809 24.2664 43.8027C25.049 44.3589 25.6458 44.5348 26.0446 44.327C26.4919 44.094 26.5446 43.7339 26.2052 43.2303C26.0216 42.9577 25.8905 42.5709 25.8569 42.2021C25.8071 41.6547 25.9904 39.7231 26.1282 39.3441C26.1613 39.2531 26.5663 39.0329 27.0281 38.8551C28.1305 38.4306 28.3837 38.1397 28.4463 37.2261C28.479 36.7493 28.4489 36.486 28.355 36.4247C28.2781 36.3745 27.9104 36.4307 27.538 36.5499C27.1656 36.6689 26.8304 36.7341 26.7932 36.6949C26.6922 36.5883 27.3834 34.556 28.068 32.9461C29.5814 29.3877 32.4033 25.2724 33.8723 24.4811C34.4023 24.1956 34.5227 23.8406 34.2894 23.251C33.7182 21.8075 32.0439 20.909 30.8328 21.3962ZM51.9452 26.6021C51.5664 26.6865 50.6366 26.8751 49.8789 27.0213C48.0469 27.375 48.1278 27.3387 47.7459 27.9746C47.389 28.5688 47.3153 29.0265 47.5606 29.1259C47.7576 29.2057 52.5596 28.2099 52.8884 28.021C53.2128 27.8346 53.4415 27.0143 53.2656 26.6674C53.126 26.392 52.9324 26.3824 51.9452 26.6021ZM26.4704 30.2729C25.8491 31.1229 24.863 32.582 24.2791 33.5154C23.2142 35.2171 21.5817 38.1349 21.5817 38.3362C21.5817 38.4677 22.0886 38.3584 23.0654 38.0162C23.6933 37.7962 23.8191 37.7037 23.9108 37.3941C24.4353 35.6225 25.9569 32.0092 27.0882 29.8487C27.4112 29.2321 27.6584 28.7275 27.6377 28.7275C27.617 28.7275 27.0917 29.423 26.4704 30.2729ZM15.2498 42.5003C14.3876 42.712 12.9153 43.0304 11.9781 43.208C11.041 43.3854 10.1802 43.5595 10.0652 43.5945C9.93026 43.6357 10.5407 43.9703 11.7871 44.5378C12.8492 45.0214 14.098 45.62 14.5622 45.868C15.0264 46.116 15.4266 46.2973 15.4515 46.271C15.4764 46.2448 15.6485 45.7608 15.834 45.1955C16.0195 44.6303 16.3317 43.7412 16.5278 43.22C16.7239 42.6986 16.8693 42.2369 16.8511 42.1938C16.8327 42.1507 16.1121 42.2887 15.2498 42.5003ZM63.5621 44.247C62.6286 45.1147 62.0889 46.8361 62.326 48.19C62.5661 49.5621 65.0446 57.7444 66.2153 61.0305C66.4856 61.7893 67.3537 64.052 67.8081 65.182C67.9335 65.4939 67.6461 65.3155 67.1509 64.7739C65.7838 63.279 62.517 60.3436 60.1833 58.5131C56.7166 55.7937 54.3154 54.4447 51.4386 53.6003C50.4453 53.3088 50.1535 53.2778 48.444 53.283C46.4085 53.2891 46.1926 53.3372 44.811 54.0928C43.3517 54.8907 42.148 56.819 42.7271 57.4305C42.9531 57.6692 43.1589 57.6008 43.6842 57.1124C44.7616 56.111 46.1077 56.1087 48.9197 57.1035C52.4665 58.3581 56.8381 61.1309 61.3011 64.9563C63.5995 66.9265 64.9255 68.1977 67.9604 71.3407C70.143 73.6011 71.1704 74.5812 71.5728 74.7868C72.7072 75.3666 75.421 75.0334 75.421 74.3143C75.421 74.1796 75.1298 73.5629 74.7738 72.9438C72.9377 69.7512 70.6411 64.338 67.8422 56.6063C65.1977 49.3008 64.8598 48.0572 64.8598 45.6299C64.8598 44.8581 64.8063 44.1212 64.741 43.9922C64.5542 43.6237 64.1353 43.7143 63.5621 44.247ZM20.4567 46.1444C20.3977 46.2651 20.2838 46.7457 20.2037 47.2123C19.9206 48.8596 19.0732 51.622 17.9912 54.4244C16.8994 57.2527 16.6081 57.9123 14.0106 63.4378C11.3567 69.0832 11.153 69.6358 11.3029 70.7806C11.4701 72.0571 12.2936 73.692 13.2502 74.6474C13.7897 75.1861 13.9502 75.2821 14.2581 75.2503C14.594 75.2155 14.6398 75.1572 14.8114 74.5457C15.5658 71.8568 21.1888 66.0177 27.5511 61.3161C30.8802 58.856 34.3487 56.6674 38.1515 54.6272C43.8287 51.5813 48.5677 49.576 50.0881 49.576C50.3407 49.576 50.8196 49.6665 51.1522 49.7773C51.7167 49.9652 51.7766 49.9651 52.0501 49.7757C52.4495 49.4995 52.5286 49.0686 52.2974 48.4292C51.9063 47.3478 50.8508 46.3988 49.8608 46.2381C48.4901 46.0158 42.3141 48.3606 37.5383 50.9163C31.7087 54.036 22.4238 60.595 17.3984 65.1434C16.7708 65.7115 16.2344 66.152 16.2064 66.1224C16.0827 65.9918 19.2745 60.0015 22.2133 54.8487C23.2399 53.0487 24.1125 51.4624 24.1526 51.3235C24.2252 51.0712 23.7084 49.8779 23.3302 49.4244C22.905 48.9147 22.9244 48.8898 20.037 53.6699C19.5428 54.4882 19.1189 55.1371 19.095 55.1118C19.0711 55.0866 19.237 54.4443 19.4637 53.6846C20.2174 51.1594 21.0665 47.0737 20.9881 46.3507C20.9439 45.9435 20.6171 45.8166 20.4567 46.1444ZM28.9953 65.3638C28.933 65.5941 28.5843 67.448 28.5843 67.5484C28.5843 67.7494 28.7862 67.6152 28.9078 67.3335C29.0898 66.9116 29.5818 66.916 29.7349 67.3408C29.8988 67.796 30.067 67.592 29.965 67.0615C29.6017 65.1704 29.6164 65.2123 29.3186 65.2123C29.1633 65.2123 29.0178 65.2806 28.9953 65.3638ZM30.7899 66.3927C30.8255 67.6718 30.8765 67.7551 31.5206 67.5844C31.9167 67.4795 31.8642 67.295 31.4255 67.2503L31.0524 67.2123L31.0191 66.2123C31.0004 65.6528 30.9353 65.2123 30.8713 65.2123C30.8011 65.2123 30.7697 65.6667 30.7899 66.3927ZM32.3971 66.3941L32.4299 67.576H32.937C33.2405 67.576 33.4632 67.5151 33.4918 67.4244C33.5239 67.3226 33.4088 67.2729 33.1405 67.2729C32.8917 67.2729 32.7166 67.2044 32.6754 67.0911C32.5762 66.8183 32.7144 66.5457 32.952 66.5457C33.0678 66.5457 33.1945 66.4911 33.2335 66.4244C33.2725 66.3578 33.2007 66.3032 33.0738 66.3032C32.8003 66.3032 32.6098 65.9956 32.6879 65.68C32.7284 65.5164 32.8501 65.4548 33.1321 65.4548C33.3456 65.4548 33.5205 65.4002 33.5205 65.3335C33.5205 65.2669 33.2604 65.2123 32.9424 65.2123H32.3643L32.3971 66.3941ZM34.2858 65.2932C34.2437 65.3375 34.2093 65.8557 34.2093 66.4447C34.2093 67.3156 34.2414 67.5154 34.3815 67.5154C34.5117 67.5154 34.5554 67.3606 34.5606 66.879L34.5676 66.2426L34.8714 66.879C35.3339 67.848 35.472 67.7272 35.472 66.3538C35.472 65.4787 35.4367 65.2044 35.3285 65.2419C35.2497 65.2693 35.1592 65.5602 35.1276 65.8884L35.0702 66.4851L34.8087 65.8487C34.5566 65.2351 34.4491 65.1208 34.2858 65.2932ZM36.5646 65.4851C36.1957 67.1712 36.1569 67.4385 36.2649 67.5526C36.3442 67.6363 36.4192 67.5723 36.4981 67.3533C36.6618 66.8986 37.1496 66.9048 37.3321 67.3638L37.4645 67.6972L37.5124 67.4008C37.5534 67.1466 37.409 66.1298 37.2317 65.4244C37.1503 65.1004 36.6387 65.147 36.5646 65.4851ZM39.4432 65.4244C39.2185 66.1909 39.0385 67.4509 39.1385 67.5564C39.213 67.6351 39.2916 67.5654 39.368 67.3533C39.5317 66.8989 40.0191 66.9049 40.2037 67.3638L40.3378 67.6972L40.3807 67.3631C40.4043 67.1795 40.3375 66.6203 40.2323 66.1207C40.0609 65.3077 40.0126 65.2123 39.7731 65.2123C39.6183 65.2123 39.4791 65.3018 39.4432 65.4244ZM41.2348 65.3578C41.159 65.4378 41.097 65.6578 41.097 65.8468C41.097 66.1091 41.1895 66.2478 41.4886 66.4342C42.1635 66.8545 42.1616 67.3516 41.4856 67.2177C41.0469 67.1308 40.9602 67.3083 41.3373 67.5214C41.6643 67.7061 42.0658 67.5792 42.2097 67.2455C42.3776 66.8567 42.2173 66.5026 41.7385 66.2043C41.289 65.9243 41.2405 65.8024 41.4914 65.5824C41.6116 65.4771 41.7186 65.4732 41.8862 65.5678C42.1306 65.7059 42.3196 65.559 42.1876 65.3335C42.0885 65.1643 41.4015 65.1818 41.2348 65.3578ZM43.1251 65.2932C43.083 65.3375 43.0485 65.8557 43.0485 66.4447C43.0485 67.3156 43.0807 67.5154 43.2207 67.5154C43.3451 67.5154 43.3929 67.3807 43.3929 67.0305C43.3929 66.5941 43.4216 66.5457 43.6799 66.5457C43.9382 66.5457 43.9669 66.5941 43.9669 67.0305C43.9669 67.3807 44.0148 67.5154 44.1391 67.5154C44.2802 67.5154 44.3113 67.3055 44.3113 66.3538C44.3113 65.4786 44.2759 65.2044 44.1678 65.242C44.0889 65.2694 43.9985 65.5058 43.9669 65.7672C43.9217 66.1417 43.8607 66.2426 43.6799 66.2426C43.4919 66.2426 43.4439 66.1494 43.4151 65.7275C43.3816 65.2389 43.2967 65.1118 43.1251 65.2932ZM45.2297 66.3638C45.2297 67.3066 45.2609 67.5154 45.4019 67.5154C45.5346 67.5154 45.5749 67.3554 45.5777 66.8184C45.5808 66.2128 45.6014 66.1492 45.7339 66.3335C45.9432 66.6248 46.2033 66.5994 46.3524 66.2729C46.4567 66.0444 46.4782 66.123 46.4846 66.7578C46.4908 67.355 46.5297 67.5154 46.669 67.5154C46.8173 67.5154 46.8401 67.3383 46.8125 66.404C46.7754 65.1591 46.6196 64.9224 46.3013 65.6272C46.1936 65.8658 46.0626 66.0608 46.0102 66.0608C45.9577 66.0608 45.8286 65.8699 45.7232 65.6366C45.3774 64.871 45.2297 65.0888 45.2297 66.3638ZM47.9372 65.3554C47.7954 65.8434 47.5256 67.1761 47.5256 67.3888C47.5256 67.7167 47.6728 67.704 47.8141 67.3638C47.8835 67.1966 48.0479 67.0764 48.239 67.0532C48.4919 67.0224 48.5647 67.0739 48.6246 67.3259C48.6652 67.4968 48.7445 67.6366 48.8007 67.6366C48.9504 67.6366 48.9107 67.0858 48.6917 66.1214C48.5298 65.4094 48.4575 65.2668 48.2413 65.2341C48.0997 65.2128 47.9628 65.2674 47.9372 65.3554ZM49.6406 65.3745C49.5212 65.7029 49.6461 67.4341 49.7928 67.4854C49.8868 67.5183 49.9363 67.4068 49.9363 67.1618C49.9363 66.7035 50.2364 66.6491 50.3912 67.0794C50.4987 67.3778 50.7128 67.5843 50.8092 67.4825C50.8389 67.4511 50.8035 67.287 50.7305 67.1177C50.6227 66.8678 50.6327 66.7571 50.7835 66.5295C51.2016 65.8994 50.8742 65.2123 50.1558 65.2123C49.8806 65.2123 49.6761 65.2767 49.6406 65.3745ZM51.773 66.3538C51.773 67.318 51.803 67.5154 51.9496 67.5154C52.0979 67.5154 52.1208 67.3383 52.0931 66.404C52.0706 65.6486 52.0141 65.2764 51.9165 65.2424C51.8084 65.2044 51.773 65.4785 51.773 66.3538ZM52.9697 65.3745C52.8543 65.692 52.9749 67.434 53.1156 67.4832C53.2075 67.5154 53.266 67.3184 53.2925 66.8869L53.3322 66.2426L53.6085 66.879C54.0339 67.8585 54.1837 67.7243 54.1837 66.3638C54.1837 65.6918 54.1368 65.2123 54.0711 65.2123C53.9202 65.2123 53.8002 65.7501 53.8678 66.1236C53.9587 66.6255 53.7697 66.4612 53.5167 65.8184C53.2809 65.2192 53.0841 65.0596 52.9697 65.3745ZM55.2773 65.4851C55.0123 66.7141 54.9093 67.4712 54.994 67.5654C55.0523 67.6301 55.1418 67.5421 55.2098 67.3533C55.2937 67.1202 55.4074 67.0305 55.6187 67.0305C55.83 67.0305 55.9437 67.1202 56.0276 67.3533C56.2501 67.971 56.3548 67.4771 56.1859 66.6063C55.9073 65.1695 55.9247 65.2123 55.6187 65.2123C55.4195 65.2123 55.3187 65.2929 55.2773 65.4851ZM55.5069 65.879C55.3729 66.6886 55.3785 66.7259 55.6413 66.7654C55.873 66.8002 55.888 66.7654 55.8251 66.3412C55.7874 66.087 55.7185 65.7699 55.672 65.6366C55.6035 65.4411 55.5716 65.488 55.5069 65.879ZM29.2404 65.7597C29.2046 65.892 29.1407 66.182 29.0982 66.4041C29.027 66.7771 29.0417 66.8049 29.2905 66.7677C29.5142 66.7343 29.5534 66.6675 29.5206 66.3741C29.499 66.1798 29.4417 65.9081 29.3933 65.7701C29.3071 65.5238 29.3044 65.5236 29.2404 65.7597ZM36.7535 66.0932C36.5807 66.8175 36.5743 66.7881 36.9041 66.7881C37.1628 66.7881 37.1818 66.7529 37.1163 66.3941C36.9636 65.5566 36.895 65.4997 36.7535 66.0932ZM39.6893 65.7578C39.6522 65.8911 39.588 66.1774 39.5467 66.3941C39.4774 66.7579 39.4945 66.7881 39.77 66.7881C40.0886 66.7881 40.0873 66.8077 39.8343 65.8184C39.7633 65.5407 39.7511 65.5356 39.6893 65.7578ZM48.1964 65.6366C48.1578 65.7032 48.0897 65.9897 48.0453 66.2729C47.9718 66.7418 47.9861 66.7881 48.2043 66.7881C48.3804 66.7881 48.4404 66.7157 48.4304 66.5154C48.4061 66.0286 48.2687 65.5122 48.1964 65.6366ZM49.9363 66.0002C49.9363 66.4091 49.9589 66.4378 50.252 66.4021C50.5182 66.3699 50.5677 66.3068 50.5677 66.0002C50.5677 65.6937 50.5182 65.6305 50.252 65.5983C49.9589 65.5626 49.9363 65.5914 49.9363 66.0002ZM36.233 69.0658C36.1357 69.2321 35.8164 70.79 35.8164 71.0986C35.8164 71.4548 35.9953 71.4909 36.0793 71.1517C36.1524 70.8561 36.8496 70.7949 36.8496 71.084C36.8496 71.2711 37.0567 71.4583 37.1522 71.3574C37.2321 71.2731 36.8357 69.3081 36.7011 69.1214C36.5783 68.9511 36.3182 68.9202 36.233 69.0658ZM38.0231 69.1586C37.8049 69.32 37.7679 69.459 37.7679 70.1184C37.7679 70.5425 37.8008 70.98 37.8409 71.0905C37.9507 71.3924 38.4063 71.5344 38.7442 71.3718C39.1601 71.1717 39.0954 71.0338 38.6002 71.0645L38.1697 71.0911V70.2426V69.3941L38.6002 69.4208C39.0938 69.4514 39.171 69.2626 38.7362 69.0881C38.3517 68.9338 38.3233 68.9366 38.0231 69.1586ZM40.0001 69.0626C39.8926 69.1418 39.4899 70.8643 39.4899 71.2454C39.4899 71.4842 39.6973 71.4166 39.7769 71.1517C39.8274 70.9836 39.9505 70.9093 40.1786 70.9093C40.4067 70.9093 40.5299 70.9836 40.5804 71.1517C40.6756 71.4683 40.8674 71.4641 40.8674 71.1453C40.8674 70.3438 40.4328 68.9737 40.1786 68.9737C40.1471 68.9737 40.0667 69.0137 40.0001 69.0626ZM41.664 69.1606C41.5981 69.2444 41.5612 69.7543 41.5801 70.3218L41.6136 71.3335L42.0553 71.3718C42.7277 71.4301 42.9337 71.1653 42.9337 70.2426C42.9337 69.6796 42.8836 69.4459 42.7329 69.3065C42.4658 69.0595 41.8135 68.9705 41.664 69.1606ZM43.7373 70.2426V71.3941H44.3113C44.627 71.3941 44.8853 71.3396 44.8853 71.2729C44.8853 71.2063 44.7011 71.1517 44.4763 71.1517C44.0839 71.1517 44.0686 71.1356 44.1032 70.7578C44.1307 70.455 44.1993 70.3549 44.3991 70.3249C44.706 70.2789 44.6278 70.0608 44.3045 70.0608C44.1335 70.0608 44.0817 69.9763 44.0817 69.6972C44.0817 69.3624 44.1136 69.3335 44.4835 69.3335C44.7045 69.3335 44.8853 69.279 44.8853 69.2123C44.8853 69.1457 44.627 69.0911 44.3113 69.0911H43.7373V70.2426ZM45.6264 69.2432C45.5043 69.5791 45.6257 71.3121 45.7749 71.3642C45.8793 71.4007 45.9201 71.2046 45.9244 70.6466C45.9303 69.9134 45.9385 69.8912 46.1106 70.1517C46.2098 70.3017 46.3586 70.4244 46.4413 70.4244C46.524 70.4244 46.6337 70.3017 46.6852 70.1517C46.7575 69.9406 46.7916 70.0409 46.8363 70.5968C46.8701 71.0161 46.9539 71.3354 47.0377 71.3644C47.1458 71.402 47.1812 71.1278 47.1812 70.2527C47.1812 68.9621 47.051 68.7734 46.6727 69.5154C46.5536 69.7487 46.4256 69.9384 46.3883 69.9368C46.3509 69.9354 46.2398 69.7615 46.1413 69.5506C45.9394 69.1179 45.7196 68.9868 45.6264 69.2432ZM47.87 69.1263C47.87 69.1566 47.9778 69.4389 48.1096 69.7533C48.2413 70.0678 48.3651 70.5248 48.3847 70.7688C48.4356 71.404 48.4329 71.3941 48.5587 71.3941C48.6219 71.3941 48.6735 71.1775 48.6735 70.9128C48.6735 70.648 48.7998 70.1298 48.9542 69.7613C49.1584 69.2737 49.1935 69.0911 49.0829 69.0911C48.9993 69.0911 48.8667 69.2548 48.7883 69.4548C48.6124 69.9034 48.5 69.9124 48.3068 69.494C48.1789 69.2172 47.87 68.9571 47.87 69.1263ZM41.9771 69.4144C41.8565 69.5417 41.888 71.008 42.013 71.0895C42.0748 71.1299 42.2298 71.104 42.3574 71.0318C42.5451 70.9258 42.5894 70.7789 42.5894 70.2626C42.5894 69.6449 42.4534 69.3335 42.1838 69.3335C42.1122 69.3335 42.0192 69.3699 41.9771 69.4144ZM36.3912 69.5154C36.3877 69.582 36.3399 69.8412 36.2849 70.0911C36.1901 70.5224 36.1996 70.5457 36.469 70.5457C36.7293 70.5457 36.7464 70.5127 36.6734 70.1517C36.5888 69.7338 36.4016 69.3117 36.3912 69.5154ZM40.1602 69.5166C40.1238 69.5826 40.059 69.8412 40.0163 70.0911C39.9473 70.495 39.9649 70.5457 40.1735 70.5457C40.3438 70.5457 40.4051 70.4707 40.3968 70.2729C40.379 69.8484 40.2335 69.3835 40.1602 69.5166ZM-31.5961 98.2677C-31.4533 98.2967 -31.2467 98.2956 -31.1369 98.2653C-31.0272 98.235 -31.1441 98.2112 -31.3966 98.2126C-31.6492 98.2139 -31.7389 98.2387 -31.5961 98.2677ZM-30.216 98.2715C-29.8826 98.2961 -29.366 98.2958 -29.0681 98.271C-28.7703 98.246 -29.0433 98.226 -29.6747 98.2263C-30.306 98.2266 -30.5496 98.247 -30.216 98.2715Z" fill="white"/>
</g>
<defs>
<clipPath id="clip0_179_2758">
<rect width="90" height="80" fill="white"/>
</clipPath>
</defs>
</svg>
