<svg width="59" height="60" viewBox="0 0 59 60" fill="none" xmlns="http://www.w3.org/2000/svg">
<path d="M29.0488 56.25C22.3076 56.25 15.8425 53.4844 11.0758 48.5616C6.30903 43.6387 3.6311 36.9619 3.6311 30C3.6311 23.0381 6.30903 16.3613 11.0758 11.4384C15.8425 6.51562 22.3076 3.75 29.0488 3.75C35.79 3.75 42.2551 6.51562 47.0218 11.4384C51.7886 16.3613 54.4665 23.0381 54.4665 30C54.4665 36.9619 51.7886 43.6387 47.0218 48.5616C42.2551 53.4844 35.79 56.25 29.0488 56.25ZM29.0488 60C36.753 60 44.1417 56.8393 49.5894 51.2132C55.0371 45.5871 58.0976 37.9565 58.0976 30C58.0976 22.0435 55.0371 14.4129 49.5894 8.7868C44.1417 3.16071 36.753 0 29.0488 0C21.3446 0 13.9559 3.16071 8.50819 8.7868C3.06049 14.4129 0 22.0435 0 30C0 37.9565 3.06049 45.5871 8.50819 51.2132C13.9559 56.8393 21.3446 60 29.0488 60V60Z" fill="#F5F7F8"/>
<path d="M22.7706 18.9571C23.0676 18.7991 23.401 18.7289 23.7341 18.754C24.0673 18.7792 24.3872 18.8987 24.6588 19.0996L37.3677 28.4746C37.603 28.648 37.7949 28.877 37.9272 29.1425C38.0596 29.4079 38.1286 29.7022 38.1286 30.0008C38.1286 30.2994 38.0596 30.5937 37.9272 30.8592C37.7949 31.1246 37.603 31.3536 37.3677 31.5271L24.6588 40.9021C24.3873 41.1027 24.0675 41.2222 23.7346 41.2473C23.4016 41.2725 23.0684 41.2023 22.7715 41.0446C22.4746 40.8868 22.2257 40.6476 22.0519 40.3532C21.8781 40.0588 21.7864 39.7206 21.7866 39.3758V20.6258C21.7863 20.2811 21.8779 19.943 22.0515 19.6486C22.2251 19.3542 22.474 19.1149 22.7706 18.9571V18.9571Z" fill="#F5F7F8"/>
</svg>
