<svg width="1409" height="1874" viewBox="0 0 1409 1874" fill="none" xmlns="http://www.w3.org/2000/svg">
<path d="M675.232 1753.21C620.744 1661.81 559.916 1471.38 752.512 1440.9C993.256 1402.8 578.858 1215.59 752.744 1107.75C926.631 999.905 937.111 1217.66 948.131 1034.06C956.947 887.176 911.933 783.75 888.325 750.396" stroke="url(#paint0_linear_3189_4280)"/>
<path d="M657.821 1740.77C605.198 1649.37 548.709 1459.72 743.728 1432.38C987.503 1398.2 574.338 1206.48 752.462 1102.18C930.587 997.885 935.601 1213.86 951.399 1032.05C964.038 886.606 921.278 783.424 898.319 750.014" stroke="url(#paint1_linear_3189_4280)"/>
<path d="M640.449 1728.18C589.709 1636.8 537.575 1447.99 734.959 1423.8C981.69 1393.56 569.884 1197.38 752.192 1096.66C934.5 995.942 934.047 1210.08 954.619 1030.12C971.076 886.146 930.583 783.241 908.28 749.784" stroke="url(#paint2_linear_3189_4280)"/>
<path d="M623.122 1715.45C574.28 1624.12 526.516 1436.21 726.206 1415.17C975.818 1388.88 565.495 1188.29 751.932 1091.18C938.368 994.074 932.448 1206.31 957.787 1028.25C978.058 885.796 939.844 783.198 918.204 749.705" stroke="url(#paint3_linear_3189_4280)"/>
<path d="M605.844 1702.57C558.914 1611.32 515.536 1424.36 717.47 1406.49C969.887 1384.15 561.174 1179.22 751.681 1085.75C942.189 992.281 930.804 1202.55 960.902 1026.44C984.98 885.553 949.058 783.294 928.086 749.775" stroke="url(#paint4_linear_3189_4280)"/>
<path d="M588.619 1689.55C543.615 1598.41 504.637 1412.45 708.753 1397.75C963.897 1379.37 556.918 1170.16 751.439 1080.36C945.96 990.561 929.113 1198.8 963.961 1024.7C991.84 885.416 958.219 783.527 937.924 749.992" stroke="url(#paint5_linear_3189_4280)"/>
<path d="M571.45 1676.38C528.387 1585.38 493.82 1400.49 700.055 1388.96C957.85 1374.55 552.729 1161.13 751.204 1075.02C949.679 988.912 927.375 1195.06 966.964 1023.02C998.634 885.382 967.325 783.894 947.712 750.354" stroke="url(#paint6_linear_3189_4280)"/>
<path d="M554.343 1663.08C513.233 1572.24 483.087 1388.47 691.38 1380.12C951.747 1369.68 548.607 1152.11 750.976 1069.72C953.344 987.333 925.591 1191.32 969.906 1021.39C1005.36 885.45 976.371 784.393 957.446 750.858" stroke="url(#paint7_linear_3189_4280)"/>
<path d="M537.3 1649.64C498.156 1558.99 472.441 1376.4 682.728 1371.23C945.587 1364.76 544.551 1143.1 750.752 1064.46C956.952 985.825 923.757 1187.59 972.787 1019.83C1012.01 885.619 985.354 785.025 967.122 751.504" stroke="url(#paint8_linear_3189_4280)"/>
<path d="M520.327 1636.06C483.161 1545.63 461.884 1364.28 674.101 1362.28C939.372 1359.79 540.562 1134.12 750.532 1059.25C960.502 984.382 921.876 1183.87 975.605 1018.32C1018.59 885.884 994.269 785.784 976.737 752.288" stroke="url(#paint9_linear_3189_4280)"/>
<path d="M503.427 1622.36C468.25 1532.17 451.418 1352.11 665.5 1353.29C933.103 1354.78 536.641 1125.16 750.316 1054.08C963.991 983.007 919.945 1180.15 978.357 1016.87C1025.09 886.247 1003.11 786.67 986.285 753.209" stroke="url(#paint10_linear_3189_4280)"/>
<path d="M486.603 1608.52C453.427 1518.61 441.044 1339.89 656.927 1344.25C926.779 1349.71 532.786 1116.22 750.101 1048.96C967.416 981.695 917.964 1176.44 981.041 1015.47C1031.5 886.702 1011.88 787.68 995.764 754.265" stroke="url(#paint11_linear_3189_4280)"/>
<path d="M469.861 1594.55C438.695 1504.95 430.766 1327.62 648.383 1335.17C920.403 1344.6 528.998 1107.3 749.887 1043.87C970.776 980.447 915.933 1172.73 983.656 1014.13C1037.83 887.251 1020.57 788.812 1005.17 755.453" stroke="url(#paint12_linear_3189_4280)"/>
<path d="M453.204 1580.46C424.057 1491.18 420.585 1315.31 639.869 1326.03C913.975 1339.44 525.278 1098.4 749.673 1038.83C974.069 979.259 913.851 1169.02 986.199 1012.84C1044.08 887.888 1029.18 790.064 1014.5 756.77" stroke="url(#paint13_linear_3189_4280)"/>
<path d="M436.636 1566.25C409.518 1477.32 410.503 1302.95 631.388 1316.85C907.495 1334.22 521.624 1089.53 749.458 1033.83C977.292 978.131 911.718 1165.31 988.669 1011.59C1050.23 888.613 1037.7 791.432 1023.74 758.215" stroke="url(#paint14_linear_3189_4280)"/>
<path d="M420.161 1551.91C395.079 1463.37 400.521 1290.56 622.94 1307.63C900.965 1328.96 518.037 1080.68 749.24 1028.87C980.443 977.062 909.533 1161.61 991.064 1010.4C1056.29 889.423 1046.13 792.917 1032.9 759.785" stroke="url(#paint15_linear_3189_4280)"/>
<path d="M403.783 1537.46C380.745 1449.33 390.642 1278.13 614.528 1298.36C894.385 1323.65 514.518 1071.86 749.019 1023.96C983.52 976.05 907.296 1157.91 993.382 1009.25C1062.25 890.317 1054.47 794.514 1041.97 761.478" stroke="url(#paint16_linear_3189_4280)"/>
<path d="M387.505 1522.89C366.519 1435.19 380.868 1265.66 606.152 1289.05C887.756 1318.29 511.065 1063.06 748.793 1019.08C986.522 975.093 905.006 1154.2 995.62 1008.14C1068.11 891.293 1062.71 796.222 1050.94 763.292" stroke="url(#paint17_linear_3189_4280)"/>
<path d="M371.331 1508.2C352.403 1420.97 371.2 1253.15 597.813 1279.69C881.08 1312.87 507.679 1054.29 748.562 1014.24C989.445 974.188 902.663 1150.5 997.778 1007.08C1073.87 892.347 1070.84 798.037 1059.82 765.224" stroke="url(#paint18_linear_3189_4280)"/>
<path d="M355.266 1493.41C338.402 1406.67 361.641 1240.61 589.514 1270.3C874.356 1307.4 504.359 1045.55 748.324 1009.44C992.288 973.336 900.266 1146.79 999.853 1006.06C1079.52 893.478 1078.88 799.958 1068.6 767.271" stroke="url(#paint19_linear_3189_4280)"/>
<path d="M339.313 1478.5C324.517 1392.28 352.192 1228.04 581.256 1260.86C867.586 1301.89 501.107 1036.84 748.078 1004.69C995.049 972.535 897.815 1143.08 1001.84 1005.08C1085.07 894.684 1086.8 801.982 1077.27 769.431" stroke="url(#paint20_linear_3189_4280)"/>
<path d="M323.476 1463.5C310.753 1377.82 342.854 1215.45 573.039 1251.39C860.771 1296.32 497.921 1028.15 747.823 999.965C997.726 971.781 895.31 1139.37 1003.75 1004.14C1090.5 895.961 1094.62 804.106 1085.83 771.701" stroke="url(#paint21_linear_3189_4280)"/>
<path d="M307.758 1448.38C297.112 1363.28 333.63 1202.82 564.866 1241.88C853.911 1290.7 494.8 1019.49 747.559 995.284C1000.32 971.075 892.75 1135.65 1005.57 1003.24C1095.82 897.31 1102.31 806.329 1094.28 774.08" stroke="url(#paint22_linear_3189_4280)"/>
<path d="M292.163 1433.17C283.597 1348.66 324.521 1190.17 556.738 1232.33C847.009 1285.02 491.746 1010.87 747.283 990.641C1002.82 970.413 890.135 1131.93 1007.29 1002.37C1101.02 898.725 1109.89 808.647 1102.61 776.564" stroke="url(#paint23_linear_3189_4280)"/>
<path d="M276.694 1417.86C270.212 1333.97 315.529 1177.49 548.655 1222.74C840.064 1279.29 488.758 1002.27 746.996 986.034C1005.23 969.795 887.464 1128.2 1008.93 1001.54C1106.1 900.205 1117.35 811.056 1110.82 779.149" stroke="url(#paint24_linear_3189_4280)"/>
<path d="M261.356 1402.46C256.959 1319.21 306.655 1164.8 540.62 1213.12C833.077 1273.52 485.836 993.71 746.695 981.464C1007.56 969.219 884.738 1124.47 1010.47 1000.73C1111.06 901.749 1124.68 813.557 1118.91 781.835" stroke="url(#paint25_linear_3189_4280)"/>
<path d="M246.152 1386.96C243.84 1304.39 297.901 1152.08 532.634 1203.46C826.05 1267.68 482.979 985.179 746.381 976.93C1009.78 968.682 881.955 1120.72 1011.92 999.962C1115.9 903.352 1131.88 816.144 1126.87 784.617" stroke="url(#paint26_linear_3189_4280)"/>
<path d="M231.085 1371.38C230.86 1289.5 289.269 1139.35 524.698 1193.77C818.984 1261.8 480.187 976.682 746.051 972.433C1011.92 968.184 879.116 1116.98 1013.28 999.219C1120.6 905.015 1138.94 818.817 1134.7 787.494" stroke="url(#paint27_linear_3189_4280)"/>
<path d="M216.158 1355.71C218.021 1274.55 280.76 1126.6 516.813 1184.05C811.879 1255.86 477.459 968.218 745.705 967.97C1013.95 967.722 876.22 1113.22 1014.53 998.503C1125.18 906.732 1145.88 821.571 1142.39 790.462" stroke="url(#paint28_linear_3189_4280)"/>
<path d="M201.376 1339.95C205.325 1259.54 272.375 1113.83 508.98 1174.29C804.737 1249.87 474.797 959.789 745.342 963.542C1015.89 967.295 873.268 1109.45 1015.69 997.812C1129.62 908.503 1152.67 824.405 1149.95 793.519" stroke="url(#paint29_linear_3189_4280)"/>
<path d="M186.741 1324.12C192.775 1244.48 264.115 1101.06 501.201 1164.51C797.559 1243.83 472.198 951.395 744.961 959.148C1017.72 966.901 870.257 1105.67 1016.74 997.144C1133.93 910.325 1159.32 827.315 1157.37 796.662" stroke="url(#paint30_linear_3189_4280)"/>
<path d="M172.257 1308.2C180.375 1229.36 255.984 1088.27 493.478 1154.7C790.345 1237.73 469.663 943.037 744.561 954.787C1019.46 966.537 867.19 1101.88 1017.7 996.498C1138.1 912.194 1165.83 830.298 1164.64 799.888" stroke="url(#paint31_linear_3189_4280)"/>
<path d="M157.927 1292.22C168.125 1214.19 247.98 1075.48 485.81 1144.86C783.098 1231.58 467.192 934.716 744.14 950.46C1021.09 966.204 864.065 1098.08 1018.55 995.873C1142.13 914.111 1172.18 833.353 1171.76 803.194" stroke="url(#paint32_linear_3189_4280)"/>
<path d="M143.754 1276.16C156.03 1198.97 240.107 1062.68 478.2 1134.99C775.816 1225.38 464.784 926.432 743.697 946.165C1022.61 965.897 860.882 1094.26 1019.29 995.267C1146.02 916.07 1178.39 836.475 1178.73 806.577" stroke="url(#paint33_linear_3189_4280)"/>
<path d="M129.741 1260.03C144.092 1183.71 232.364 1049.88 470.648 1125.1C768.503 1219.12 462.438 918.185 743.233 941.901C1024.03 965.616 857.641 1090.43 1019.93 994.676C1149.76 918.07 1184.44 839.662 1185.55 810.034" stroke="url(#paint34_linear_3189_4280)"/>
<path d="M115.893 1243.83C132.313 1168.4 224.754 1037.07 463.156 1115.18C761.159 1212.81 460.155 909.976 742.745 937.668C1025.34 965.36 854.342 1086.59 1020.46 994.101C1153.36 920.109 1190.33 842.912 1192.21 813.563" stroke="url(#paint35_linear_3189_4280)"/>
<path d="M102.21 1227.57C120.695 1153.06 217.277 1024.27 455.725 1105.24C753.785 1206.45 457.933 901.807 742.233 933.466C1026.53 965.125 850.985 1082.73 1020.88 993.539C1156.8 922.183 1196.06 846.221 1198.7 817.16" stroke="url(#paint36_linear_3189_4280)"/>
<path d="M88.6977 1211.26C109.242 1137.68 209.935 1011.47 448.356 1095.27C746.382 1200.03 455.773 893.677 741.696 929.294C1027.62 964.91 847.569 1078.86 1021.2 992.989C1160.1 924.29 1201.63 849.586 1205.03 820.821" stroke="url(#paint37_linear_3189_4280)"/>
<path d="M75.358 1194.88C97.9549 1122.26 202.729 998.671 441.05 1085.29C738.951 1193.56 453.673 885.587 741.132 925.15C1028.59 964.714 844.095 1074.97 1021.4 992.448C1163.24 926.429 1207.03 853.005 1211.2 824.546" stroke="url(#paint38_linear_3189_4280)"/>
<path d="M62.1937 1178.46C86.8365 1106.81 195.659 985.879 433.808 1075.28C731.494 1187.03 451.634 877.537 740.541 921.035C1029.45 964.534 840.562 1071.07 1021.49 991.915C1166.23 928.594 1212.27 856.474 1217.19 828.329" stroke="url(#paint39_linear_3189_4280)"/>
<path d="M49.2078 1161.98C75.8891 1091.34 188.728 973.096 426.632 1065.26C724.012 1180.46 449.655 869.529 739.922 916.949C1030.19 964.37 836.971 1067.14 1021.46 991.39C1169.05 930.787 1217.33 859.991 1223.02 832.169" stroke="url(#paint40_linear_3189_4280)"/>
<path d="M36.403 1145.45C65.1145 1075.83 181.934 960.323 419.521 1055.21C716.505 1173.83 447.735 861.562 739.274 912.89C1030.81 964.217 833.32 1063.2 1021.32 990.868C1171.72 933.002 1222.21 863.553 1228.66 836.061" stroke="url(#paint41_linear_3189_4280)"/>
<path d="M23.7826 1128.88C54.5157 1060.31 175.281 947.561 412.478 1045.15C708.975 1167.14 445.874 853.637 738.596 908.856C1031.32 964.075 829.611 1059.24 1021.06 990.348C1174.23 935.237 1226.92 867.155 1234.13 840.003" stroke="url(#paint42_linear_3189_4280)"/>
<path d="M11.3486 1112.27C44.0939 1044.76 168.768 934.814 405.504 1035.08C701.423 1160.41 444.07 845.756 737.886 904.849C1031.7 963.943 825.844 1055.26 1020.69 989.831C1176.57 937.491 1231.45 870.797 1239.41 843.993" stroke="url(#paint43_linear_3189_4280)"/>
<path d="M-0.895767 1095.62C33.8517 1029.2 162.397 922.083 398.598 1024.99C693.85 1153.62 442.325 837.916 737.145 900.867C1031.97 963.817 822.017 1051.25 1020.2 989.311C1178.74 939.758 1235.8 874.473 1244.51 848.025" stroke="url(#paint44_linear_3189_4280)"/>
<path d="M-12.9483 1078.94C23.7908 1013.62 156.168 909.369 391.763 1014.89C686.258 1146.78 440.636 830.121 736.371 896.909C1032.11 963.697 818.132 1047.23 1019.59 988.79C1180.75 942.039 1239.96 878.183 1249.42 852.099" stroke="url(#paint45_linear_3189_4280)"/>
<path d="M-24.8063 1062.22C13.9133 998.032 150.082 896.676 385 1004.77C678.647 1139.89 439.004 822.37 735.563 892.975C1032.12 963.58 814.188 1043.18 1018.86 988.264C1182.59 944.33 1243.94 881.922 1254.14 856.209" stroke="url(#paint46_linear_3189_4280)"/>
<path d="M-36.4674 1045.48C4.22087 982.435 144.139 884.005 378.308 994.644C671.018 1132.94 437.427 814.664 734.721 889.065C1032.01 963.465 810.186 1039.11 1018.01 987.734C1184.26 946.629 1247.72 885.688 1258.67 860.355" stroke="url(#paint47_linear_3189_4280)"/>
<path d="M-47.929 1028.71C-5.28447 966.83 138.341 871.358 371.689 984.507C663.374 1125.94 435.906 807.003 733.843 885.176C1031.78 963.35 806.125 1035.02 1017.03 987.194C1185.76 948.932 1251.32 889.476 1263 864.531" stroke="url(#paint48_linear_3189_4280)"/>
<path d="M-59.189 1011.92C-14.6013 951.222 132.688 858.736 365.144 974.362C655.714 1118.89 434.438 799.387 732.928 881.309C1031.42 963.232 802.006 1030.91 1015.94 986.646C1187.08 951.237 1254.72 893.285 1267.14 868.735" stroke="url(#paint49_linear_3189_4280)"/>
<path d="M-70.2449 995.107C-23.7275 935.613 127.181 846.142 358.674 964.209C648.041 1111.79 433.025 791.816 731.977 877.463C1030.93 963.11 797.828 1026.76 1014.72 986.085C1188.23 953.542 1257.92 897.111 1271.08 872.964" stroke="url(#paint50_linear_3189_4280)"/>
<path d="M-81.0946 978.281C-32.6617 920.007 121.819 833.578 352.28 954.051C640.356 1104.64 431.664 784.292 730.987 873.637C1030.31 962.982 793.592 1022.6 1013.37 985.513C1189.2 955.844 1260.93 900.952 1274.81 877.214" stroke="url(#paint51_linear_3189_4280)"/>
<path d="M-91.7356 961.442C-41.4019 904.406 116.605 821.045 345.962 943.886C632.659 1097.44 430.356 776.814 729.958 869.83C1029.56 962.846 789.299 1018.41 1011.91 984.925C1189.99 958.14 1263.73 904.803 1278.34 881.482" stroke="url(#paint52_linear_3189_4280)"/>
<path d="M-102.167 944.594C-49.9477 888.813 111.537 808.546 339.721 933.719C624.951 1090.19 429.099 769.384 728.889 866.042C1028.68 962.701 784.947 1014.19 1010.31 984.321C1190.6 960.427 1266.33 908.662 1281.66 885.766" stroke="url(#paint53_linear_3189_4280)"/>
<path d="M-112.385 927.74C-58.2962 873.232 106.617 796.082 333.558 923.548C617.235 1082.88 427.893 762.001 727.78 862.272C1027.67 962.544 780.537 1009.94 1008.59 983.699C1191.03 962.704 1268.73 912.526 1284.78 890.062" stroke="url(#paint54_linear_3189_4280)"/>
<path d="M-122.389 910.882C-66.4469 857.663 101.844 783.655 327.474 913.375C609.512 1075.53 426.736 754.665 726.63 858.519C1026.52 962.373 776.071 1005.67 1006.74 983.056C1191.28 964.967 1270.92 916.392 1287.68 894.365" stroke="url(#paint55_linear_3189_4280)"/>
<path d="M-132.176 894.026C-74.3981 842.112 97.2197 771.267 321.469 903.203C601.781 1068.12 425.629 747.377 725.437 854.782C1025.25 962.187 771.547 1001.36 1004.77 982.392C1191.34 967.215 1272.91 920.257 1290.37 898.675" stroke="url(#paint56_linear_3189_4280)"/>
<path d="M-141.745 877.173C-82.1486 826.579 92.7438 758.921 315.545 893.031C594.046 1060.67 424.57 740.137 724.201 851.061C1023.83 961.984 766.965 997.033 1002.66 981.705C1191.22 969.443 1274.68 924.117 1292.84 902.986" stroke="url(#paint57_linear_3189_4280)"/>
<path d="M-151.094 860.326C-89.6975 811.069 88.4163 746.617 309.701 882.861C586.306 1053.17 423.559 732.946 722.922 847.354C1022.28 961.762 762.327 992.671 1000.43 980.993C1190.92 971.65 1276.25 927.969 1295.1 907.297" stroke="url(#paint58_linear_3189_4280)"/>
<path d="M-160.221 843.49C-97.0429 795.585 84.2379 734.358 303.938 872.694C578.564 1045.62 422.595 725.805 721.598 843.662C1020.6 961.52 757.633 988.279 998.072 980.254C1190.42 973.834 1277.6 931.812 1297.14 911.603" stroke="url(#paint59_linear_3189_4280)"/>
<path d="M-169.125 826.668C-104.185 780.128 80.2078 722.146 298.257 862.532C570.819 1038.02 421.676 718.712 720.229 839.983C1018.78 961.255 752.882 983.857 995.581 979.487C1189.74 975.991 1278.73 935.641 1298.96 915.902" stroke="url(#paint60_linear_3189_4280)"/>
<path d="M-177.804 809.861C-111.121 764.701 76.3273 709.981 292.659 852.375C563.074 1030.37 420.802 711.668 718.814 836.316C1016.83 960.964 748.076 979.403 992.962 978.689C1188.87 978.119 1279.65 939.452 1300.55 920.19" stroke="url(#paint61_linear_3189_4280)"/>
<path d="M-186.256 793.074C-117.851 749.308 72.5958 697.867 287.144 842.225C555.33 1022.67 419.973 704.674 717.352 832.661C1014.73 960.647 743.214 974.917 990.211 977.86C1187.81 980.215 1280.35 943.244 1301.92 924.464" stroke="url(#paint62_linear_3189_4280)"/>
<path d="M-194.481 776.31C-124.375 733.952 69.0131 685.805 281.713 832.083C547.588 1014.93 419.186 697.73 715.843 829.017C1012.5 960.303 738.297 970.399 987.331 976.998C1186.56 982.278 1280.84 947.013 1303.07 928.721" stroke="url(#paint63_linear_3189_4280)"/>
<path d="M-202.476 759.573C-130.69 718.634 65.5795 673.796 276.366 821.95C539.849 1007.14 418.442 690.836 714.285 825.382C1010.13 959.929 733.324 965.848 984.319 976.101C1185.11 984.303 1281.1 950.757 1303.99 932.958" stroke="url(#paint64_linear_3189_4280)"/>
<path d="M-210.241 742.864C-136.797 703.358 62.2946 661.843 271.104 811.827C532.115 999.308 417.739 683.992 712.679 821.757C1007.62 959.522 728.297 961.262 981.176 975.166C1183.48 986.289 1281.14 954.47 1304.68 937.171" stroke="url(#paint65_linear_3189_4280)"/>
<path d="M-217.774 726.187C-142.693 688.126 59.1592 649.946 265.927 801.716C524.387 991.427 417.078 677.198 711.025 818.14C1004.97 959.082 723.217 956.643 977.903 974.193C1181.65 988.234 1280.96 958.152 1305.14 941.357" stroke="url(#paint66_linear_3189_4280)"/>
<path d="M-225.074 709.547C-148.381 672.942 56.1717 638.11 260.835 791.617C516.665 983.502 416.455 670.455 709.319 814.531C1002.18 958.607 718.083 951.99 974.499 973.181C1179.63 990.135 1280.55 961.8 1305.37 945.514" stroke="url(#paint67_linear_3189_4280)"/>
<path d="M-232.14 692.945C-153.857 657.808 53.3328 626.333 255.83 781.532C508.951 975.532 415.871 663.763 707.564 810.929C999.256 958.095 712.895 947.301 970.963 972.127C1177.42 991.989 1279.93 965.409 1305.37 949.637" stroke="url(#paint68_linear_3189_4280)"/>
<path d="M-238.971 676.385C-159.122 642.726 50.6418 614.618 250.911 771.462C501.247 967.516 415.325 657.12 705.756 807.332C996.188 957.543 707.654 942.576 967.295 971.03C1175.01 993.793 1279.07 968.977 1305.14 953.723" stroke="url(#paint69_linear_3189_4280)"/>
<path d="M-245.566 659.871C-164.176 627.7 48.0986 602.968 246.078 761.408C493.553 959.459 414.815 650.531 703.898 803.741C992.98 956.952 702.361 937.816 963.496 969.889C1172.4 995.546 1277.99 972.501 1304.67 957.772" stroke="url(#paint70_linear_3189_4280)"/>
<path d="M-251.924 643.403C-169.018 612.73 45.7025 591.382 241.333 751.371C485.87 951.357 414.341 643.99 701.986 800.154C989.631 956.317 697.016 933.018 959.565 968.699C1169.6 997.244 1276.68 975.977 1303.96 961.776" stroke="url(#paint71_linear_3189_4280)"/>
<path d="M-258.045 626.988C-173.647 597.823 43.4539 579.864 236.675 741.353C478.201 943.213 413.901 637.502 700.022 796.571C986.143 955.639 691.62 928.185 955.503 967.464C1166.61 998.887 1275.14 979.404 1303.02 965.735" stroke="url(#paint72_linear_3189_4280)"/>
<path d="M-263.927 610.628C-178.063 582.978 41.3515 568.415 232.105 731.354C470.546 935.028 413.496 631.064 698.004 792.99C982.513 954.916 686.172 923.314 951.31 966.179C1163.42 1000.47 1273.38 982.778 1301.85 969.646" stroke="url(#paint73_linear_3189_4280)"/>
<path d="M-269.57 594.323C-182.267 568.199 39.3952 557.035 227.622 721.375C462.906 926.801 413.123 624.678 695.933 789.411C978.742 954.144 680.675 918.404 946.985 964.842C1160.03 1001.99 1271.38 986.096 1300.43 973.504" stroke="url(#paint74_linear_3189_4280)"/>
<path d="M-274.973 578.081C-186.258 553.489 37.5846 545.729 223.228 711.42C455.283 918.533 412.782 618.343 693.807 785.834C974.832 953.324 675.128 913.458 942.53 963.454C1156.45 1003.45 1269.16 989.355 1298.77 977.308" stroke="url(#paint75_linear_3189_4280)"/>
<path d="M-280.137 561.9C-190.035 538.849 35.9186 534.494 218.922 701.485C447.677 910.224 412.471 612.058 691.625 782.255C970.78 952.452 669.531 908.471 937.944 962.01C1152.67 1004.84 1266.71 992.552 1296.88 981.052" stroke="url(#paint76_linear_3189_4280)"/>
<path d="M-285.06 545.787C-193.6 524.283 34.397 523.335 214.705 691.575C440.09 901.876 412.19 605.826 689.389 778.677C966.588 951.528 663.885 903.446 933.227 960.513C1148.7 1006.17 1264.02 995.684 1294.75 984.737" stroke="url(#paint77_linear_3189_4280)"/>
<path d="M-289.742 529.744C-196.951 509.793 33.019 512.252 210.576 681.691C432.523 893.49 411.937 599.645 687.096 775.097C962.256 950.55 658.192 898.381 928.38 958.958C1144.53 1007.42 1261.11 998.749 1292.37 988.357" stroke="url(#paint78_linear_3189_4280)"/>
<path d="M-294.183 513.772C-200.09 495.382 31.7836 501.247 206.536 671.833C424.977 885.065 411.712 593.514 684.747 771.516C957.783 949.517 652.45 893.277 923.403 957.345C1140.17 1008.6 1257.96 1001.74 1289.76 991.909" stroke="url(#paint79_linear_3189_4280)"/>
<path d="M-298.382 497.877C-203.016 481.052 30.6908 490.321 202.585 662.002C417.453 876.602 411.513 587.435 682.342 767.931C953.17 948.426 646.662 888.132 918.297 955.672C1135.61 1009.7 1254.58 1004.67 1286.9 995.392" stroke="url(#paint80_linear_3189_4280)"/>
<path d="M-302.34 482.059C-205.729 466.805 29.7386 479.476 198.723 652.199C409.953 868.102 411.339 581.407 679.878 764.342C948.418 947.276 640.827 882.947 913.062 953.939C1130.85 1010.73 1250.97 1007.51 1283.8 998.801" stroke="url(#paint81_linear_3189_4280)"/>
<path d="M-306.057 466.323C-208.23 452.644 28.9275 468.713 194.95 642.426C402.478 859.566 411.19 575.43 677.358 760.748C943.526 946.066 634.947 877.721 907.698 952.142C1125.9 1011.68 1247.13 1010.28 1280.47 1002.13" stroke="url(#paint82_linear_3189_4280)"/>
<path d="M-309.532 450.671C-210.52 438.571 28.2554 458.034 191.265 632.683C395.028 850.994 411.063 569.504 674.779 757.149C938.495 944.794 629.022 872.455 902.206 950.282C1120.75 1012.54 1243.05 1012.96 1276.89 1005.39" stroke="url(#paint83_linear_3189_4280)"/>
<path d="M-312.765 435.106C-212.598 424.59 27.7221 447.439 187.67 622.972C387.605 842.388 410.959 563.629 672.142 753.544C933.326 943.458 623.052 867.146 896.586 948.357C1115.41 1013.33 1238.75 1015.56 1273.06 1008.56" stroke="url(#paint84_linear_3189_4280)"/>
<path d="M-315.757 419.631C-214.466 410.701 27.3261 436.931 184.163 613.294C380.21 833.747 410.875 557.805 669.446 749.931C928.018 942.058 617.038 861.796 890.839 946.366C1109.88 1014.02 1234.21 1018.08 1269 1011.65" stroke="url(#paint85_linear_3189_4280)"/>
<path d="M-318.508 404.249C-216.123 396.908 27.0675 426.51 180.746 603.649C372.845 825.073 410.812 552.031 666.692 746.311C922.573 940.591 610.982 856.404 884.966 944.306C1104.15 1014.63 1229.45 1020.5 1264.69 1014.65" stroke="url(#paint86_linear_3189_4280)"/>
<path d="M-321.018 388.962C-217.57 383.212 26.9436 416.177 177.417 594.039C365.509 816.366 410.767 546.308 663.878 742.682C916.989 939.056 604.882 850.97 878.966 942.178C1098.23 1015.14 1224.45 1022.83 1260.15 1017.56" stroke="url(#paint87_linear_3189_4280)"/>
<path d="M-323.288 373.774C-218.809 369.616 26.9546 405.934 174.177 584.465C358.205 807.627 410.739 540.634 661.005 739.043C911.27 937.451 598.742 845.493 872.842 939.979C1092.12 1015.57 1219.22 1025.07 1255.36 1020.37" stroke="url(#paint88_linear_3189_4280)"/>
<path d="M-325.317 358.686C-219.839 356.123 27.0987 395.783 171.025 574.927C350.933 798.857 410.728 535.011 658.071 735.394C905.415 935.776 592.561 839.973 866.594 937.708C1085.82 1015.9 1213.76 1027.21 1250.33 1023.09" stroke="url(#paint89_linear_3189_4280)"/>
<path d="M-327.108 343.702C-220.662 342.734 27.3751 385.724 167.962 565.427C343.695 790.057 410.732 529.438 655.078 731.734C899.424 934.029 586.339 834.41 860.222 935.366C1079.33 1016.13 1208.07 1029.25 1245.06 1025.71" stroke="url(#paint90_linear_3189_4280)"/>
<path d="M-328.659 328.823C-221.279 329.451 27.7826 375.758 164.986 555.966C336.491 781.226 410.751 523.914 652.025 728.061C893.299 932.208 580.079 828.804 853.727 932.948C1072.65 1016.26 1202.16 1031.19 1239.55 1028.23" stroke="url(#paint91_linear_3189_4280)"/>
<path d="M-329.972 314.054C-221.69 316.277 28.3193 365.887 162.099 546.544C329.323 772.367 410.782 518.44 648.91 724.376C887.039 930.312 573.779 823.154 847.11 930.456C1065.77 1016.3 1196.01 1033.02 1233.8 1030.65" stroke="url(#paint92_linear_3189_4280)"/>
<path d="M-331.048 299.396C-221.896 303.213 28.9844 356.111 159.299 537.163C322.191 763.479 410.825 513.015 645.735 720.677C880.646 928.34 567.442 817.461 840.372 927.887C1058.72 1016.23 1189.64 1034.74 1227.81 1032.96" stroke="url(#paint93_linear_3189_4280)"/>
<path d="M-331.887 284.853C-221.9 290.263 29.7766 346.432 156.586 527.824C315.097 754.564 410.879 507.639 642.499 716.964C874.12 926.29 561.067 811.724 833.514 925.241C1051.47 1016.05 1183.04 1036.36 1221.59 1035.16" stroke="url(#paint94_linear_3189_4280)"/>
<path d="M-332.49 270.425C-221.701 277.427 30.6942 336.85 153.96 518.527C308.042 745.622 410.942 502.311 639.202 713.236C867.463 924.161 554.657 805.943 826.536 922.516C1044.04 1015.77 1176.22 1037.86 1215.12 1037.24" stroke="url(#paint95_linear_3189_4280)"/>
<path d="M-332.858 256.117C-221.301 264.709 31.7361 327.368 151.421 509.274C301.026 736.655 411.013 497.033 635.844 709.493C860.675 921.953 548.211 800.118 819.441 919.712C1036.42 1015.39 1169.17 1039.25 1208.42 1039.22" stroke="url(#paint96_linear_3189_4280)"/>
<path d="M-332.993 241.93C-220.701 252.109 32.9007 317.985 148.968 500.064C294.052 727.662 411.092 491.801 632.425 705.732C853.758 919.662 541.73 794.248 812.228 916.826C1028.63 1014.89 1161.9 1040.52 1201.48 1041.07" stroke="url(#paint97_linear_3189_4280)"/>
<path d="M-332.895 227.867C-219.902 239.63 34.1868 308.703 146.601 490.9C287.119 718.646 411.177 486.618 628.944 701.954C846.712 917.289 535.216 788.335 804.899 913.86C1020.65 1014.28 1154.4 1041.67 1194.31 1042.81" stroke="url(#paint98_linear_3189_4280)"/>
<path d="M-332.566 213.931C-218.907 227.273 35.5919 299.523 144.319 481.783C280.228 709.607 411.266 481.482 625.402 698.158C839.537 914.833 528.668 782.377 797.455 910.81C1012.48 1013.56 1146.69 1042.7 1186.91 1044.42" stroke="url(#paint99_linear_3189_4280)"/>
<defs>
<linearGradient id="paint0_linear_3189_4280" x1="696.854" y1="1213.77" x2="900.283" y2="1264.11" gradientUnits="userSpaceOnUse">
<stop/>
<stop offset="1" stop-color="#243E38"/>
</linearGradient>
<linearGradient id="paint1_linear_3189_4280" x1="693.389" y1="1206.43" x2="896.273" y2="1262.94" gradientUnits="userSpaceOnUse">
<stop/>
<stop offset="1" stop-color="#243E38"/>
</linearGradient>
<linearGradient id="paint2_linear_3189_4280" x1="689.954" y1="1199.1" x2="891.985" y2="1261.83" gradientUnits="userSpaceOnUse">
<stop/>
<stop offset="1" stop-color="#243E38"/>
</linearGradient>
<linearGradient id="paint3_linear_3189_4280" x1="686.549" y1="1191.79" x2="887.413" y2="1260.75" gradientUnits="userSpaceOnUse">
<stop/>
<stop offset="1" stop-color="#243E38"/>
</linearGradient>
<linearGradient id="paint4_linear_3189_4280" x1="683.172" y1="1184.49" x2="882.551" y2="1259.66" gradientUnits="userSpaceOnUse">
<stop/>
<stop offset="1" stop-color="#243E38"/>
</linearGradient>
<linearGradient id="paint5_linear_3189_4280" x1="679.826" y1="1177.21" x2="877.399" y2="1258.55" gradientUnits="userSpaceOnUse">
<stop/>
<stop offset="1" stop-color="#243E38"/>
</linearGradient>
<linearGradient id="paint6_linear_3189_4280" x1="676.507" y1="1169.94" x2="871.956" y2="1257.39" gradientUnits="userSpaceOnUse">
<stop/>
<stop offset="1" stop-color="#243E38"/>
</linearGradient>
<linearGradient id="paint7_linear_3189_4280" x1="673.219" y1="1162.69" x2="866.227" y2="1256.16" gradientUnits="userSpaceOnUse">
<stop/>
<stop offset="1" stop-color="#243E38"/>
</linearGradient>
<linearGradient id="paint8_linear_3189_4280" x1="669.958" y1="1155.45" x2="860.217" y2="1254.83" gradientUnits="userSpaceOnUse">
<stop/>
<stop offset="1" stop-color="#243E38"/>
</linearGradient>
<linearGradient id="paint9_linear_3189_4280" x1="666.727" y1="1148.23" x2="853.935" y2="1253.38" gradientUnits="userSpaceOnUse">
<stop/>
<stop offset="1" stop-color="#243E38"/>
</linearGradient>
<linearGradient id="paint10_linear_3189_4280" x1="663.524" y1="1141.02" x2="847.393" y2="1251.78" gradientUnits="userSpaceOnUse">
<stop/>
<stop offset="1" stop-color="#243E38"/>
</linearGradient>
<linearGradient id="paint11_linear_3189_4280" x1="660.349" y1="1133.83" x2="840.605" y2="1250.01" gradientUnits="userSpaceOnUse">
<stop/>
<stop offset="1" stop-color="#243E38"/>
</linearGradient>
<linearGradient id="paint12_linear_3189_4280" x1="657.203" y1="1126.66" x2="833.586" y2="1248.06" gradientUnits="userSpaceOnUse">
<stop/>
<stop offset="1" stop-color="#243E38"/>
</linearGradient>
<linearGradient id="paint13_linear_3189_4280" x1="654.084" y1="1119.5" x2="826.355" y2="1245.89" gradientUnits="userSpaceOnUse">
<stop/>
<stop offset="1" stop-color="#243E38"/>
</linearGradient>
<linearGradient id="paint14_linear_3189_4280" x1="650.993" y1="1112.36" x2="818.932" y2="1243.51" gradientUnits="userSpaceOnUse">
<stop/>
<stop offset="1" stop-color="#243E38"/>
</linearGradient>
<linearGradient id="paint15_linear_3189_4280" x1="647.93" y1="1105.24" x2="811.337" y2="1240.89" gradientUnits="userSpaceOnUse">
<stop/>
<stop offset="1" stop-color="#243E38"/>
</linearGradient>
<linearGradient id="paint16_linear_3189_4280" x1="644.895" y1="1098.14" x2="803.593" y2="1238.02" gradientUnits="userSpaceOnUse">
<stop/>
<stop offset="1" stop-color="#243E38"/>
</linearGradient>
<linearGradient id="paint17_linear_3189_4280" x1="641.886" y1="1091.05" x2="795.722" y2="1234.89" gradientUnits="userSpaceOnUse">
<stop/>
<stop offset="1" stop-color="#243E38"/>
</linearGradient>
<linearGradient id="paint18_linear_3189_4280" x1="638.905" y1="1083.98" x2="787.748" y2="1231.51" gradientUnits="userSpaceOnUse">
<stop/>
<stop offset="1" stop-color="#243E38"/>
</linearGradient>
<linearGradient id="paint19_linear_3189_4280" x1="635.95" y1="1076.93" x2="779.693" y2="1227.85" gradientUnits="userSpaceOnUse">
<stop/>
<stop offset="1" stop-color="#243E38"/>
</linearGradient>
<linearGradient id="paint20_linear_3189_4280" x1="633.021" y1="1069.9" x2="771.581" y2="1223.93" gradientUnits="userSpaceOnUse">
<stop/>
<stop offset="1" stop-color="#243E38"/>
</linearGradient>
<linearGradient id="paint21_linear_3189_4280" x1="630.119" y1="1062.89" x2="763.435" y2="1219.75" gradientUnits="userSpaceOnUse">
<stop/>
<stop offset="1" stop-color="#243E38"/>
</linearGradient>
<linearGradient id="paint22_linear_3189_4280" x1="627.243" y1="1055.9" x2="755.274" y2="1215.3" gradientUnits="userSpaceOnUse">
<stop/>
<stop offset="1" stop-color="#243E38"/>
</linearGradient>
<linearGradient id="paint23_linear_3189_4280" x1="624.392" y1="1048.92" x2="747.121" y2="1210.59" gradientUnits="userSpaceOnUse">
<stop/>
<stop offset="1" stop-color="#243E38"/>
</linearGradient>
<linearGradient id="paint24_linear_3189_4280" x1="621.568" y1="1041.97" x2="738.993" y2="1205.63" gradientUnits="userSpaceOnUse">
<stop/>
<stop offset="1" stop-color="#243E38"/>
</linearGradient>
<linearGradient id="paint25_linear_3189_4280" x1="618.768" y1="1035.03" x2="730.909" y2="1200.43" gradientUnits="userSpaceOnUse">
<stop/>
<stop offset="1" stop-color="#243E38"/>
</linearGradient>
<linearGradient id="paint26_linear_3189_4280" x1="615.993" y1="1028.12" x2="722.886" y2="1195" gradientUnits="userSpaceOnUse">
<stop/>
<stop offset="1" stop-color="#243E38"/>
</linearGradient>
<linearGradient id="paint27_linear_3189_4280" x1="613.242" y1="1021.23" x2="714.938" y2="1189.34" gradientUnits="userSpaceOnUse">
<stop/>
<stop offset="1" stop-color="#243E38"/>
</linearGradient>
<linearGradient id="paint28_linear_3189_4280" x1="610.516" y1="1014.35" x2="707.077" y2="1183.47" gradientUnits="userSpaceOnUse">
<stop/>
<stop offset="1" stop-color="#243E38"/>
</linearGradient>
<linearGradient id="paint29_linear_3189_4280" x1="607.814" y1="1007.5" x2="699.318" y2="1177.41" gradientUnits="userSpaceOnUse">
<stop/>
<stop offset="1" stop-color="#243E38"/>
</linearGradient>
<linearGradient id="paint30_linear_3189_4280" x1="605.136" y1="1000.66" x2="691.668" y2="1171.15" gradientUnits="userSpaceOnUse">
<stop/>
<stop offset="1" stop-color="#243E38"/>
</linearGradient>
<linearGradient id="paint31_linear_3189_4280" x1="602.481" y1="993.85" x2="684.138" y2="1164.72" gradientUnits="userSpaceOnUse">
<stop/>
<stop offset="1" stop-color="#243E38"/>
</linearGradient>
<linearGradient id="paint32_linear_3189_4280" x1="599.849" y1="987.059" x2="676.734" y2="1158.14" gradientUnits="userSpaceOnUse">
<stop/>
<stop offset="1" stop-color="#243E38"/>
</linearGradient>
<linearGradient id="paint33_linear_3189_4280" x1="597.239" y1="980.289" x2="669.463" y2="1151.4" gradientUnits="userSpaceOnUse">
<stop/>
<stop offset="1" stop-color="#243E38"/>
</linearGradient>
<linearGradient id="paint34_linear_3189_4280" x1="594.651" y1="973.54" x2="662.329" y2="1144.53" gradientUnits="userSpaceOnUse">
<stop/>
<stop offset="1" stop-color="#243E38"/>
</linearGradient>
<linearGradient id="paint35_linear_3189_4280" x1="592.086" y1="966.812" x2="655.335" y2="1137.54" gradientUnits="userSpaceOnUse">
<stop/>
<stop offset="1" stop-color="#243E38"/>
</linearGradient>
<linearGradient id="paint36_linear_3189_4280" x1="589.543" y1="960.106" x2="648.485" y2="1130.43" gradientUnits="userSpaceOnUse">
<stop/>
<stop offset="1" stop-color="#243E38"/>
</linearGradient>
<linearGradient id="paint37_linear_3189_4280" x1="587.02" y1="953.422" x2="641.78" y2="1123.23" gradientUnits="userSpaceOnUse">
<stop/>
<stop offset="1" stop-color="#243E38"/>
</linearGradient>
<linearGradient id="paint38_linear_3189_4280" x1="584.519" y1="946.759" x2="635.22" y2="1115.94" gradientUnits="userSpaceOnUse">
<stop/>
<stop offset="1" stop-color="#243E38"/>
</linearGradient>
<linearGradient id="paint39_linear_3189_4280" x1="582.038" y1="940.118" x2="628.806" y2="1108.57" gradientUnits="userSpaceOnUse">
<stop/>
<stop offset="1" stop-color="#243E38"/>
</linearGradient>
<linearGradient id="paint40_linear_3189_4280" x1="579.577" y1="933.5" x2="622.535" y2="1101.13" gradientUnits="userSpaceOnUse">
<stop/>
<stop offset="1" stop-color="#243E38"/>
</linearGradient>
<linearGradient id="paint41_linear_3189_4280" x1="577.135" y1="926.904" x2="616.407" y2="1093.64" gradientUnits="userSpaceOnUse">
<stop/>
<stop offset="1" stop-color="#243E38"/>
</linearGradient>
<linearGradient id="paint42_linear_3189_4280" x1="574.713" y1="920.329" x2="610.421" y2="1086.1" gradientUnits="userSpaceOnUse">
<stop/>
<stop offset="1" stop-color="#243E38"/>
</linearGradient>
<linearGradient id="paint43_linear_3189_4280" x1="572.31" y1="913.778" x2="604.573" y2="1078.52" gradientUnits="userSpaceOnUse">
<stop/>
<stop offset="1" stop-color="#243E38"/>
</linearGradient>
<linearGradient id="paint44_linear_3189_4280" x1="569.926" y1="907.248" x2="598.861" y2="1070.9" gradientUnits="userSpaceOnUse">
<stop/>
<stop offset="1" stop-color="#243E38"/>
</linearGradient>
<linearGradient id="paint45_linear_3189_4280" x1="567.559" y1="900.741" x2="593.282" y2="1063.27" gradientUnits="userSpaceOnUse">
<stop/>
<stop offset="1" stop-color="#243E38"/>
</linearGradient>
<linearGradient id="paint46_linear_3189_4280" x1="565.21" y1="894.257" x2="587.831" y2="1055.61" gradientUnits="userSpaceOnUse">
<stop/>
<stop offset="1" stop-color="#243E38"/>
</linearGradient>
<linearGradient id="paint47_linear_3189_4280" x1="562.879" y1="887.796" x2="582.507" y2="1047.94" gradientUnits="userSpaceOnUse">
<stop/>
<stop offset="1" stop-color="#243E38"/>
</linearGradient>
<linearGradient id="paint48_linear_3189_4280" x1="560.564" y1="881.357" x2="577.304" y2="1040.27" gradientUnits="userSpaceOnUse">
<stop/>
<stop offset="1" stop-color="#243E38"/>
</linearGradient>
<linearGradient id="paint49_linear_3189_4280" x1="558.265" y1="874.941" x2="572.219" y2="1032.6" gradientUnits="userSpaceOnUse">
<stop/>
<stop offset="1" stop-color="#243E38"/>
</linearGradient>
<linearGradient id="paint50_linear_3189_4280" x1="555.983" y1="868.547" x2="567.248" y2="1024.93" gradientUnits="userSpaceOnUse">
<stop/>
<stop offset="1" stop-color="#243E38"/>
</linearGradient>
<linearGradient id="paint51_linear_3189_4280" x1="553.716" y1="862.177" x2="562.387" y2="1017.27" gradientUnits="userSpaceOnUse">
<stop/>
<stop offset="1" stop-color="#243E38"/>
</linearGradient>
<linearGradient id="paint52_linear_3189_4280" x1="551.464" y1="855.829" x2="557.633" y2="1009.62" gradientUnits="userSpaceOnUse">
<stop/>
<stop offset="1" stop-color="#243E38"/>
</linearGradient>
<linearGradient id="paint53_linear_3189_4280" x1="549.227" y1="849.504" x2="552.979" y2="1001.99" gradientUnits="userSpaceOnUse">
<stop/>
<stop offset="1" stop-color="#243E38"/>
</linearGradient>
<linearGradient id="paint54_linear_3189_4280" x1="547.004" y1="843.202" x2="548.425" y2="994.381" gradientUnits="userSpaceOnUse">
<stop/>
<stop offset="1" stop-color="#243E38"/>
</linearGradient>
<linearGradient id="paint55_linear_3189_4280" x1="544.794" y1="836.923" x2="543.963" y2="986.793" gradientUnits="userSpaceOnUse">
<stop/>
<stop offset="1" stop-color="#243E38"/>
</linearGradient>
<linearGradient id="paint56_linear_3189_4280" x1="542.598" y1="830.667" x2="539.592" y2="979.231" gradientUnits="userSpaceOnUse">
<stop/>
<stop offset="1" stop-color="#243E38"/>
</linearGradient>
<linearGradient id="paint57_linear_3189_4280" x1="540.414" y1="824.433" x2="535.307" y2="971.697" gradientUnits="userSpaceOnUse">
<stop/>
<stop offset="1" stop-color="#243E38"/>
</linearGradient>
<linearGradient id="paint58_linear_3189_4280" x1="538.242" y1="818.223" x2="531.104" y2="964.193" gradientUnits="userSpaceOnUse">
<stop/>
<stop offset="1" stop-color="#243E38"/>
</linearGradient>
<linearGradient id="paint59_linear_3189_4280" x1="536.083" y1="812.035" x2="526.98" y2="956.721" gradientUnits="userSpaceOnUse">
<stop/>
<stop offset="1" stop-color="#243E38"/>
</linearGradient>
<linearGradient id="paint60_linear_3189_4280" x1="533.934" y1="805.871" x2="522.929" y2="949.284" gradientUnits="userSpaceOnUse">
<stop/>
<stop offset="1" stop-color="#243E38"/>
</linearGradient>
<linearGradient id="paint61_linear_3189_4280" x1="531.797" y1="799.729" x2="518.951" y2="941.88" gradientUnits="userSpaceOnUse">
<stop/>
<stop offset="1" stop-color="#243E38"/>
</linearGradient>
<linearGradient id="paint62_linear_3189_4280" x1="529.67" y1="793.609" x2="515.04" y2="934.514" gradientUnits="userSpaceOnUse">
<stop/>
<stop offset="1" stop-color="#243E38"/>
</linearGradient>
<linearGradient id="paint63_linear_3189_4280" x1="527.552" y1="787.513" x2="511.193" y2="927.185" gradientUnits="userSpaceOnUse">
<stop/>
<stop offset="1" stop-color="#243E38"/>
</linearGradient>
<linearGradient id="paint64_linear_3189_4280" x1="525.444" y1="781.44" x2="507.408" y2="919.895" gradientUnits="userSpaceOnUse">
<stop/>
<stop offset="1" stop-color="#243E38"/>
</linearGradient>
<linearGradient id="paint65_linear_3189_4280" x1="523.344" y1="775.388" x2="503.679" y2="912.644" gradientUnits="userSpaceOnUse">
<stop/>
<stop offset="1" stop-color="#243E38"/>
</linearGradient>
<linearGradient id="paint66_linear_3189_4280" x1="521.254" y1="769.36" x2="500.007" y2="905.432" gradientUnits="userSpaceOnUse">
<stop/>
<stop offset="1" stop-color="#243E38"/>
</linearGradient>
<linearGradient id="paint67_linear_3189_4280" x1="519.171" y1="763.354" x2="496.385" y2="898.262" gradientUnits="userSpaceOnUse">
<stop/>
<stop offset="1" stop-color="#243E38"/>
</linearGradient>
<linearGradient id="paint68_linear_3189_4280" x1="517.095" y1="757.37" x2="492.811" y2="891.133" gradientUnits="userSpaceOnUse">
<stop/>
<stop offset="1" stop-color="#243E38"/>
</linearGradient>
<linearGradient id="paint69_linear_3189_4280" x1="515.026" y1="751.408" x2="489.284" y2="884.044" gradientUnits="userSpaceOnUse">
<stop/>
<stop offset="1" stop-color="#243E38"/>
</linearGradient>
<linearGradient id="paint70_linear_3189_4280" x1="512.963" y1="745.47" x2="485.799" y2="876.998" gradientUnits="userSpaceOnUse">
<stop/>
<stop offset="1" stop-color="#243E38"/>
</linearGradient>
<linearGradient id="paint71_linear_3189_4280" x1="510.906" y1="739.551" x2="482.354" y2="869.992" gradientUnits="userSpaceOnUse">
<stop/>
<stop offset="1" stop-color="#243E38"/>
</linearGradient>
<linearGradient id="paint72_linear_3189_4280" x1="508.854" y1="733.656" x2="478.947" y2="863.029" gradientUnits="userSpaceOnUse">
<stop/>
<stop offset="1" stop-color="#243E38"/>
</linearGradient>
<linearGradient id="paint73_linear_3189_4280" x1="506.807" y1="727.783" x2="475.575" y2="856.107" gradientUnits="userSpaceOnUse">
<stop/>
<stop offset="1" stop-color="#243E38"/>
</linearGradient>
<linearGradient id="paint74_linear_3189_4280" x1="504.764" y1="721.931" x2="472.235" y2="849.227" gradientUnits="userSpaceOnUse">
<stop/>
<stop offset="1" stop-color="#243E38"/>
</linearGradient>
<linearGradient id="paint75_linear_3189_4280" x1="502.726" y1="716.102" x2="468.926" y2="842.389" gradientUnits="userSpaceOnUse">
<stop/>
<stop offset="1" stop-color="#243E38"/>
</linearGradient>
<linearGradient id="paint76_linear_3189_4280" x1="500.69" y1="710.292" x2="465.644" y2="835.591" gradientUnits="userSpaceOnUse">
<stop/>
<stop offset="1" stop-color="#243E38"/>
</linearGradient>
<linearGradient id="paint77_linear_3189_4280" x1="498.657" y1="704.505" x2="462.388" y2="828.835" gradientUnits="userSpaceOnUse">
<stop/>
<stop offset="1" stop-color="#243E38"/>
</linearGradient>
<linearGradient id="paint78_linear_3189_4280" x1="496.626" y1="698.739" x2="459.155" y2="822.12" gradientUnits="userSpaceOnUse">
<stop/>
<stop offset="1" stop-color="#243E38"/>
</linearGradient>
<linearGradient id="paint79_linear_3189_4280" x1="494.596" y1="692.994" x2="455.943" y2="815.445" gradientUnits="userSpaceOnUse">
<stop/>
<stop offset="1" stop-color="#243E38"/>
</linearGradient>
<linearGradient id="paint80_linear_3189_4280" x1="492.568" y1="687.27" x2="452.75" y2="808.81" gradientUnits="userSpaceOnUse">
<stop/>
<stop offset="1" stop-color="#243E38"/>
</linearGradient>
<linearGradient id="paint81_linear_3189_4280" x1="490.541" y1="681.566" x2="449.573" y2="802.215" gradientUnits="userSpaceOnUse">
<stop/>
<stop offset="1" stop-color="#243E38"/>
</linearGradient>
<linearGradient id="paint82_linear_3189_4280" x1="488.513" y1="675.883" x2="446.412" y2="795.66" gradientUnits="userSpaceOnUse">
<stop/>
<stop offset="1" stop-color="#243E38"/>
</linearGradient>
<linearGradient id="paint83_linear_3189_4280" x1="486.485" y1="670.22" x2="443.263" y2="789.143" gradientUnits="userSpaceOnUse">
<stop/>
<stop offset="1" stop-color="#243E38"/>
</linearGradient>
<linearGradient id="paint84_linear_3189_4280" x1="484.456" y1="664.578" x2="440.126" y2="782.665" gradientUnits="userSpaceOnUse">
<stop/>
<stop offset="1" stop-color="#243E38"/>
</linearGradient>
<linearGradient id="paint85_linear_3189_4280" x1="482.425" y1="658.955" x2="436.997" y2="776.224" gradientUnits="userSpaceOnUse">
<stop/>
<stop offset="1" stop-color="#243E38"/>
</linearGradient>
<linearGradient id="paint86_linear_3189_4280" x1="480.393" y1="653.352" x2="433.876" y2="769.821" gradientUnits="userSpaceOnUse">
<stop/>
<stop offset="1" stop-color="#243E38"/>
</linearGradient>
<linearGradient id="paint87_linear_3189_4280" x1="478.358" y1="647.769" x2="430.76" y2="763.455" gradientUnits="userSpaceOnUse">
<stop/>
<stop offset="1" stop-color="#243E38"/>
</linearGradient>
<linearGradient id="paint88_linear_3189_4280" x1="476.32" y1="642.205" x2="427.648" y2="757.125" gradientUnits="userSpaceOnUse">
<stop/>
<stop offset="1" stop-color="#243E38"/>
</linearGradient>
<linearGradient id="paint89_linear_3189_4280" x1="474.278" y1="636.66" x2="424.538" y2="750.83" gradientUnits="userSpaceOnUse">
<stop/>
<stop offset="1" stop-color="#243E38"/>
</linearGradient>
<linearGradient id="paint90_linear_3189_4280" x1="472.232" y1="631.134" x2="421.428" y2="744.57" gradientUnits="userSpaceOnUse">
<stop/>
<stop offset="1" stop-color="#243E38"/>
</linearGradient>
<linearGradient id="paint91_linear_3189_4280" x1="470.182" y1="625.627" x2="418.317" y2="738.344" gradientUnits="userSpaceOnUse">
<stop/>
<stop offset="1" stop-color="#243E38"/>
</linearGradient>
<linearGradient id="paint92_linear_3189_4280" x1="468.126" y1="620.138" x2="415.203" y2="732.152" gradientUnits="userSpaceOnUse">
<stop/>
<stop offset="1" stop-color="#243E38"/>
</linearGradient>
<linearGradient id="paint93_linear_3189_4280" x1="466.065" y1="614.667" x2="412.083" y2="725.993" gradientUnits="userSpaceOnUse">
<stop/>
<stop offset="1" stop-color="#243E38"/>
</linearGradient>
<linearGradient id="paint94_linear_3189_4280" x1="463.998" y1="609.214" x2="408.958" y2="719.866" gradientUnits="userSpaceOnUse">
<stop/>
<stop offset="1" stop-color="#243E38"/>
</linearGradient>
<linearGradient id="paint95_linear_3189_4280" x1="461.923" y1="603.779" x2="405.825" y2="713.771" gradientUnits="userSpaceOnUse">
<stop/>
<stop offset="1" stop-color="#243E38"/>
</linearGradient>
<linearGradient id="paint96_linear_3189_4280" x1="459.842" y1="598.362" x2="402.683" y2="707.706" gradientUnits="userSpaceOnUse">
<stop/>
<stop offset="1" stop-color="#243E38"/>
</linearGradient>
<linearGradient id="paint97_linear_3189_4280" x1="457.753" y1="592.962" x2="399.529" y2="701.671" gradientUnits="userSpaceOnUse">
<stop/>
<stop offset="1" stop-color="#243E38"/>
</linearGradient>
<linearGradient id="paint98_linear_3189_4280" x1="455.656" y1="587.578" x2="396.364" y2="695.665" gradientUnits="userSpaceOnUse">
<stop/>
<stop offset="1" stop-color="#243E38"/>
</linearGradient>
<linearGradient id="paint99_linear_3189_4280" x1="453.55" y1="582.212" x2="393.184" y2="689.688" gradientUnits="userSpaceOnUse">
<stop/>
<stop offset="1" stop-color="#243E38"/>
</linearGradient>
</defs>
</svg>
