<svg width="32" height="32" viewBox="0 0 32 32" fill="none" xmlns="http://www.w3.org/2000/svg">
<path d="M21.2065 16.8631C21.0033 16.3806 20.6478 16.025 20.1906 15.7203C19.7335 15.4409 19.2001 15.1869 18.5652 14.9838C17.9303 14.7806 17.2192 14.6028 16.4573 14.4504C15.8478 14.3234 15.3906 14.1965 15.1366 14.1203C14.8827 14.0441 14.6287 13.9425 14.3747 13.8155C14.1462 13.6885 13.943 13.5615 13.816 13.3838C13.689 13.2314 13.6128 13.0536 13.6128 12.8504C13.6128 12.4949 13.816 12.2155 14.197 11.9615C14.6033 11.7076 15.162 11.5552 15.8478 11.5552C16.5843 11.5552 17.1176 11.6822 17.4478 11.9107C17.7779 12.1647 18.0573 12.5203 18.3112 12.952C18.5144 13.3076 18.6922 13.5361 18.87 13.6885C19.0732 13.8663 19.3271 13.9425 19.6827 13.9425C20.0636 13.9425 20.3938 13.8155 20.6732 13.5361C20.9271 13.2822 21.0541 12.9774 21.0541 12.6219C21.0541 12.2663 20.9525 11.9107 20.7493 11.5552C20.5462 11.1996 20.2414 10.8441 19.8351 10.5393C19.4287 10.2092 18.8954 9.95519 18.2605 9.77741C17.6255 9.57424 16.889 9.49805 16.0255 9.49805C14.9589 9.49805 14.0192 9.65043 13.2319 9.92979C12.4192 10.2092 11.8097 10.6409 11.3779 11.1996C10.9462 11.7584 10.743 12.3933 10.743 13.1044C10.743 13.8409 10.9462 14.4758 11.3525 14.9838C11.7589 15.4917 12.3176 15.8726 12.9779 16.1774C13.6382 16.4568 14.4763 16.7107 15.4668 16.9139C16.2033 17.0663 16.7874 17.2187 17.2192 17.3457C17.6255 17.4727 17.9811 17.6504 18.2351 17.9044C18.489 18.133 18.5906 18.4123 18.5906 18.7933C18.5906 19.2504 18.362 19.6568 17.8795 19.9615C17.397 20.2917 16.7366 20.4441 15.9493 20.4441C15.3906 20.4441 14.9081 20.3679 14.5779 20.1901C14.2478 20.0377 13.9684 19.8346 13.7906 19.5806C13.5874 19.3266 13.4097 18.9965 13.2319 18.6155C13.0795 18.26 12.9017 18.006 12.6732 17.8028C12.4446 17.625 12.1652 17.5234 11.8351 17.5234C11.4287 17.5234 11.0986 17.6504 10.8446 17.879C10.5906 18.133 10.4382 18.4123 10.4382 18.7679C10.4382 19.3266 10.6414 19.8853 11.0478 20.4695C11.4541 21.0282 11.9874 21.5107 12.6224 21.8409C13.5112 22.298 14.6541 22.552 16.0255 22.552C17.1684 22.552 18.1589 22.3742 18.997 22.0441C19.8351 21.6885 20.4954 21.206 20.9271 20.5965C21.3589 19.9869 21.5874 19.2758 21.5874 18.5139C21.5874 17.879 21.4605 17.3203 21.2065 16.8631Z" fill="url(#paint0_linear_159_3144)"/>
<path d="M23.9746 0H8C3.60635 0 0 3.60635 0 8.0254V24C0 28.3937 3.60635 32 8 32H23.9746C28.3937 32 32 28.3937 32 23.9746V8.0254C32 3.60635 28.3937 0 23.9746 0ZM20.4698 25.981C19.5302 25.981 18.6413 25.7524 17.854 25.346C17.2952 25.4476 16.7111 25.4984 16.1016 25.4984C10.8444 25.4984 6.57778 21.2825 6.57778 16.1016C6.57778 15.4667 6.65397 14.8317 6.78095 14.2222C6.29841 13.4095 6.01905 12.4698 6.01905 11.4794C6.01905 8.48254 8.48254 6.04444 11.5302 6.04444C12.5968 6.04444 13.6127 6.34921 14.4762 6.88254C15.0095 6.80635 15.5429 6.75556 16.1016 6.75556C21.3587 6.75556 25.6254 10.9714 25.6254 16.1524C25.6254 16.8381 25.5492 17.5238 25.3968 18.1587C25.7524 18.8952 25.981 19.7079 25.981 20.5714C25.981 23.5429 23.5175 25.981 20.4698 25.981Z" fill="url(#paint1_linear_159_3144)"/>
<defs>
<linearGradient id="paint0_linear_159_3144" x1="16.0128" y1="22.552" x2="20.522" y2="10.6885" gradientUnits="userSpaceOnUse">
<stop stop-color="#FFB481" stop-opacity="0.99"/>
<stop offset="0.978888" stop-color="#B86B36" stop-opacity="0.76"/>
</linearGradient>
<linearGradient id="paint1_linear_159_3144" x1="16" y1="32" x2="25.7745" y2="1.88998" gradientUnits="userSpaceOnUse">
<stop stop-color="#FFB481" stop-opacity="0.99"/>
<stop offset="0.978888" stop-color="#B86B36" stop-opacity="0.76"/>
</linearGradient>
</defs>
</svg>
