<svg width="32" height="32" viewBox="0 0 32 32" fill="none" xmlns="http://www.w3.org/2000/svg">
<path d="M23.9556 0H8.01903C3.60349 0 0 3.60349 0 8.01903V23.981C0 28.3711 3.60349 31.9746 8.01903 31.9746H23.981C28.3965 31.9746 32 28.3711 32 23.9556V8.01903C31.9746 3.60349 28.3711 0 23.9556 0ZM23.9302 11.9778C23.9302 12.1554 23.9302 12.3331 23.9302 12.5107C23.9302 17.8398 19.8192 23.981 12.2823 23.981C9.97304 23.981 7.81602 23.3212 6.01428 22.1792C6.34417 22.2046 6.64869 22.23 6.97859 22.23C8.90722 22.23 10.6582 21.5956 12.0539 20.5044C10.2522 20.479 8.75496 19.3117 8.22205 17.7129C8.47581 17.7637 8.72958 17.7891 8.98335 17.7891C9.364 17.7891 9.74465 17.7383 10.0745 17.6368C8.24742 17.2561 6.85171 15.632 6.85171 13.678V13.6273C7.35924 13.9318 8.01903 14.1094 8.67883 14.1348C7.58763 13.4243 6.85171 12.1808 6.85171 10.7851C6.85171 10.0492 7.05472 9.364 7.40999 8.75496C9.44013 11.1911 12.4346 12.7898 15.8351 12.9675C15.7589 12.663 15.7335 12.3584 15.7335 12.0539C15.7335 9.82078 17.5607 8.01903 19.8192 8.01903C20.9865 8.01903 22.0523 8.50119 22.8136 9.28787C23.7526 9.11023 24.6154 8.78033 25.4021 8.29818C25.0975 9.23711 24.4377 10.0238 23.6003 10.5313C24.4377 10.4298 25.2244 10.2268 25.9604 9.89691C25.4021 10.709 24.7169 11.4195 23.9302 11.9778Z" fill="url(#paint0_linear_159_3140)"/>
<defs>
<linearGradient id="paint0_linear_159_3140" x1="16" y1="31.9746" x2="25.7604" y2="1.88394" gradientUnits="userSpaceOnUse">
<stop stop-color="#FFB481" stop-opacity="0.99"/>
<stop offset="0.978888" stop-color="#B86B36" stop-opacity="0.76"/>
</linearGradient>
</defs>
</svg>
