<svg width="32" height="32" viewBox="0 0 32 32" fill="none" xmlns="http://www.w3.org/2000/svg">
<path d="M16.1649 7.5625C11.6225 7.5625 7.94287 11.2167 7.94287 15.7338C7.94287 17.5102 8.52654 19.185 9.51623 20.53L8.47578 23.5752L11.6479 22.5601C12.9421 23.4229 14.5154 23.9051 16.1903 23.9051C20.7327 23.9051 24.4377 20.2508 24.4377 15.7338C24.4123 11.2167 20.7073 7.5625 16.1649 7.5625ZM20.9865 19.1089C20.7835 19.6672 19.7938 20.2001 19.3624 20.2508C18.931 20.3016 18.931 20.6061 16.4694 19.6672C14.0333 18.7029 12.4853 16.2413 12.3584 16.0637C12.2315 15.9114 11.3687 14.7695 11.3687 13.6022C11.3687 12.4348 11.9778 11.8512 12.2062 11.6228C12.4345 11.3944 12.6883 11.3182 12.8406 11.3182C12.9928 11.3182 13.1705 11.3436 13.2974 11.3436C13.4496 11.3436 13.6272 11.2675 13.8303 11.7497C14.0333 12.2318 14.5154 13.3991 14.5662 13.526C14.6169 13.6529 14.6677 13.7798 14.5916 13.932C14.5154 14.0843 14.4647 14.1858 14.3632 14.3381C14.2363 14.465 14.1094 14.6426 14.0079 14.7441C13.881 14.871 13.7541 14.9979 13.9064 15.2263C14.0587 15.4546 14.5408 16.2413 15.2514 16.8757C16.1649 17.6878 16.9516 17.9416 17.18 18.0684C17.4084 18.1953 17.5606 18.17 17.6875 18.0177C17.8398 17.8654 18.2966 17.3325 18.4488 17.0788C18.6011 16.8504 18.7787 16.8757 18.9817 16.9519C19.2101 17.028 20.3774 17.6117 20.6312 17.7385C20.8596 17.8654 21.0372 17.9162 21.088 18.0177C21.1641 18.0684 21.1641 18.5506 20.9865 19.1089Z" fill="url(#paint0_linear_159_3151)"/>
<path d="M23.9556 0H8.01903C3.60349 0 0 3.60349 0 8.01903V23.981C0 28.3711 3.60349 31.9746 8.01903 31.9746H23.981C28.3965 31.9746 32 28.3711 32 23.9556V8.01903C31.9746 3.60349 28.3711 0 23.9556 0ZM16.1649 25.4528C14.4393 25.4528 12.8406 25.0214 11.4195 24.2347L5.9889 25.9603L7.76527 20.7581C6.87708 19.2863 6.36955 17.5607 6.36955 15.7335C6.36955 10.3537 10.7597 6.01427 16.1649 6.01427C21.5702 6.01427 25.9604 10.3537 25.9604 15.7335C25.9604 21.1134 21.5702 25.4528 16.1649 25.4528Z" fill="url(#paint1_linear_159_3151)"/>
<defs>
<linearGradient id="paint0_linear_159_3151" x1="16.1903" y1="23.9051" x2="21.1448" y2="8.50074" gradientUnits="userSpaceOnUse">
<stop stop-color="#FFB481" stop-opacity="0.99"/>
<stop offset="0.978888" stop-color="#B86B36" stop-opacity="0.76"/>
</linearGradient>
<linearGradient id="paint1_linear_159_3151" x1="16" y1="31.9746" x2="25.7604" y2="1.88394" gradientUnits="userSpaceOnUse">
<stop stop-color="#FFB481" stop-opacity="0.99"/>
<stop offset="0.978888" stop-color="#B86B36" stop-opacity="0.76"/>
</linearGradient>
</defs>
</svg>
